<svg xmlns="http://www.w3.org/2000/svg" viewBox="0 0 711.3967 521.3104"><defs><style>.a{fill:#2b2b2b;}</style></defs><title>hackduke-logo</title><path class="a" d="M6.5063,513.2505Q.209,506.5737.209,496.4t6.2973-16.8506a21.2007,21.2007,0,0,1,16.1382-6.6767q7.785,0,12.99,3.75a18.8853,18.8853,0,0,1,7.1357,10.5527H36.252q-3.1649-8.7965-13.544-8.7969h-.0635a14.989,14.989,0,0,0-11.74,5.126q-4.5257,5.001-4.5567,12.88a18.748,18.748,0,0,0,4.5411,12.91,15.044,15.044,0,0,0,11.8188,5.127,15.3891,15.3891,0,0,0,8.813-2.4053,12.6294,12.6294,0,0,0,4.9839-6.6133h6.36A19.01,19.01,0,0,1,35.73,516.1616q-5.2053,3.7662-13.0215,3.7657Q12.8035,519.9273,6.5063,513.2505Z"/><path class="a" d="M60.5884,496.3208a23.1138,23.1138,0,0,1,6.55-16.7715q6.4556-6.6766,16.645-6.6767,10.0935,0,16.5815,6.6767a24.9488,24.9488,0,0,1,0,33.7012q-6.4878,6.6768-16.5815,6.6768-10.1895,0-16.645-6.6768A23.3148,23.3148,0,0,1,60.5884,496.3208Zm6.1391.0156a18.3636,18.3636,0,0,0,4.73,12.958,15.9945,15.9945,0,0,0,12.3257,5.127,15.7981,15.7981,0,0,0,12.1831-5.127,18.3525,18.3525,0,0,0,4.81-12.9736,17.9374,17.9374,0,0,0-4.81-12.8164,15.8007,15.8007,0,0,0-12.1831-5.126,15.9467,15.9467,0,0,0-12.31,5.126A17.8809,17.8809,0,0,0,66.7275,496.3364Z"/><path class="a" d="M128.1831,519.0728v-45.378h16.3682q10.5307,0,16.748,6.2344,6.312,6.2345,6.3125,16.4707t-6.3125,16.4385q-6.249,6.2358-16.748,6.2344Zm5.8857-5.5059h10.4429q7.8473,0,12.4043-4.6045t4.5567-12.5781q0-8.0376-4.5249-12.61t-12.4361-4.5722H134.0688Z"/><path class="a" d="M189.0054,519.0728v-45.378h24.9355v5.5069h-19.05v13.7646h16.8032v5.5059H194.8911v15.0947h19.05v5.5059Z"/><path class="a" d="M262.583,519.0728v-45.378h24.4292v5.5069H268.4688v14.3974h15.7587v5.5059H268.4688v19.9678Z"/><path class="a" d="M304.8936,496.3208a23.1138,23.1138,0,0,1,6.55-16.7715q6.4557-6.6766,16.6451-6.6767,10.0935,0,16.5815,6.6767a24.9488,24.9488,0,0,1,0,33.7012q-6.4878,6.6768-16.5815,6.6768-10.19,0-16.6451-6.6768A23.3147,23.3147,0,0,1,304.8936,496.3208Zm6.1391.0156a18.3636,18.3636,0,0,0,4.7305,12.958,15.9945,15.9945,0,0,0,12.3257,5.127,15.7983,15.7983,0,0,0,12.1831-5.127,18.3529,18.3529,0,0,0,4.81-12.9736,17.9378,17.9378,0,0,0-4.81-12.8164,17.1914,17.1914,0,0,0-24.4927,0A17.88,17.88,0,0,0,311.0327,496.3364Z"/><path class="a" d="M372.4883,519.0728v-45.378h12.3291q6.7792,0,10.7842,3.7344a14.3533,14.3533,0,0,1,1.7675,17.6416,12.4421,12.4421,0,0,1-6.2744,4.6358l10.5186,19.3662h-6.74l-9.8857-18.417H378.374v18.417Zm5.8857-23.7334H384.86a9.3545,9.3545,0,0,0,6.4716-2.1358,7.3944,7.3944,0,0,0,2.3887-5.8066,7.738,7.738,0,0,0-2.3887-6.0127,9.2277,9.2277,0,0,0-6.4716-2.1826H378.374Z"/><path class="a" d="M446.0654,496.3843q0-10.19,6.2969-16.8506a21.2286,21.2286,0,0,1,16.1387-6.6611,21.489,21.489,0,0,1,12.9345,3.75,18.88,18.88,0,0,1,7.1055,10.5527h-6.4326q-3.1656-8.7965-13.6387-8.7969h-.0634a14.8253,14.8253,0,0,0-11.6456,5.126q-4.5249,5.001-4.5566,12.88a18.7508,18.7508,0,0,0,4.541,12.91,15.1177,15.1177,0,0,0,11.8828,5.127q6.5508,0,10.3633-3.37t4.0029-9.7305H469.292V495.814h19.8408v3.0381q0,9.9052-5.48,15.4736-5.5443,5.5708-15.0244,5.6016-9.9052,0-16.2021-6.6768A23.6145,23.6145,0,0,1,446.0654,496.3843Z"/><path class="a" d="M508.4707,496.3208a23.1122,23.1122,0,0,1,6.5508-16.7715q6.4556-6.6766,16.6445-6.6767,10.0942,0,16.5811,6.6767a24.9474,24.9474,0,0,1,0,33.7012q-6.4863,6.6768-16.5811,6.6768-10.19,0-16.6445-6.6768A23.3132,23.3132,0,0,1,508.4707,496.3208Zm6.1387.0156a18.362,18.362,0,0,0,4.7314,12.958,15.992,15.992,0,0,0,12.3252,5.127,15.7963,15.7963,0,0,0,12.1826-5.127,18.3489,18.3489,0,0,0,4.8106-12.9736,17.9339,17.9339,0,0,0-4.8106-12.8164,17.1908,17.1908,0,0,0-24.4922,0A17.8833,17.8833,0,0,0,514.6094,496.3364Z"/><path class="a" d="M574.166,496.3208a23.1122,23.1122,0,0,1,6.5508-16.7715q6.4555-6.6766,16.6445-6.6767,10.0942,0,16.5811,6.6767a24.9474,24.9474,0,0,1,0,33.7012q-6.4863,6.6768-16.5811,6.6768-10.1894,0-16.6445-6.6768A23.3132,23.3132,0,0,1,574.166,496.3208Zm6.1387.0156a18.362,18.362,0,0,0,4.7314,12.958,15.9923,15.9923,0,0,0,12.3252,5.127,15.7963,15.7963,0,0,0,12.1826-5.127,18.3489,18.3489,0,0,0,4.8106-12.9736,17.9339,17.9339,0,0,0-4.8106-12.8164,17.1907,17.1907,0,0,0-24.4921,0A17.883,17.883,0,0,0,580.3047,496.3364Z"/><path class="a" d="M641.7607,519.0728v-45.378h16.3672q10.5308,0,16.7481,6.2344,6.3135,6.2345,6.3125,16.4707t-6.3125,16.4385q-6.249,6.2358-16.7481,6.2344Zm5.8858-5.5059h10.4424q7.8471,0,12.4043-4.6045t4.5566-12.5781q0-8.0376-4.5254-12.61t-12.4355-4.5722H647.6465Z"/><path class="a" d="M.2377,180.6123V5.395h27.981V76.9971h84.5542V5.395h27.9809V180.6123H112.7729V103.2676H28.2187v77.3447Z"/><path class="a" d="M262.2279,49.9937l-3.2988-9.5308L255.63,49.9937,205.6552,180.6123H174.8637L244.1439,5.395h30.0586l69.28,175.2173H312.6913Z"/><path class="a" d="M360.12,93.0034q0-38.9759,24.5606-65.0039,24.3135-25.779,62.5586-25.7812,30.914,0,51.2578,15.0288,20.3466,15.0293,27.7988,42.2773H495.2587Q484.1406,28.49,447.2392,28.4883q-25.5381,0-41.543,18.206-16.128,17.9621-16.1289,46.3091,0,27.9822,16.1289,46.31t42.0332,18.3281q18.8145,0,31.2187-8.5532,12.3985-8.551,17.7774-23.8267h30.0586q-7.5762,28.2254-27.7363,43.438-20.1623,15.2124-51.3184,15.2119-38.37,0-63.0488-25.7812Q360.1181,132.104,360.12,93.0034Z"/><path class="a" d="M564.8036,180.6123V5.395h27.9815V99.7241L661.8212,5.395H696.4L639.3388,83.2285l70.624,97.3838H676.1171l-55.84-74.7788-27.4921,34.9458v39.833Z"/><path class="a" d="M.2378,420.4263V245.209H64.1631q40.6223,0,64.8989,24.3149,24.5193,24.1934,24.5215,63.294,0,39.3458-24.5215,63.5371-24.3992,24.0732-64.8989,24.0713Zm27.981-26.2705H64.2642q28.5922,0,44.7207-16.19t16.1289-45.1484q0-28.9585-16.0679-45.1485t-44.7817-16.19H28.2188Z"/><path class="a" d="M200.8506,350.6568V245.209H228.832V350.6568q0,46.8,41.8492,46.7978,41.6052,0,41.6049-46.7978V245.209h27.981V350.6568q0,35.07-18.15,54.0683-18.1509,19.0005-51.4355,19-33.2827,0-51.5577-19.0615T200.8506,350.6568Z"/><path class="a" d="M396.82,420.4263V245.209h27.9815v94.3286l69.0361-94.3286H528.417l-57.0615,77.8335,70.624,97.3838H508.1338l-55.84-74.7793-27.4921,34.9463v39.833Z"/><path class="a" d="M584.9707,420.4263V245.209H683.209v26.27H612.9512v45.5762h61.3379v26.27H612.9512v50.83H683.209v26.2705Z"/></svg>