<svg xmlns="http://www.w3.org/2000/svg" viewBox="0 0 711.3967 521.3104"><defs><style>.a{fill:#2b2b2b;}</style></defs><title>hackduke-logo</title><path class="a" d="M7.2974,513.2505Q1,506.5737,1,496.4t6.2974-16.8506a21.2,21.2,0,0,1,16.1381-6.6767q7.785,0,12.99,3.75a18.8853,18.8853,0,0,1,7.1357,10.5527H37.043q-3.1648-8.7965-13.544-8.7969h-.0635a14.989,14.989,0,0,0-11.74,5.126q-4.5257,5.001-4.5566,12.88a18.748,18.748,0,0,0,4.541,12.91,15.044,15.044,0,0,0,11.8188,5.127,15.3891,15.3891,0,0,0,8.813-2.4053,12.6289,12.6289,0,0,0,4.9839-6.6133h6.36a19.0111,19.0111,0,0,1-7.1358,10.7588q-5.2053,3.7662-13.0215,3.7657Q13.5945,519.9273,7.2974,513.2505Z"/><path class="a" d="M61.3794,496.3208a23.1138,23.1138,0,0,1,6.55-16.7715q6.4556-6.6766,16.645-6.6767,10.0935,0,16.5816,6.6767a24.9491,24.9491,0,0,1,0,33.7012q-6.4878,6.6768-16.5816,6.6768-10.19,0-16.645-6.6768A23.3148,23.3148,0,0,1,61.3794,496.3208Zm6.1392.0156a18.3635,18.3635,0,0,0,4.73,12.958,15.9945,15.9945,0,0,0,12.3257,5.127,15.7981,15.7981,0,0,0,12.1831-5.127,18.3525,18.3525,0,0,0,4.81-12.9736,17.9374,17.9374,0,0,0-4.81-12.8164,15.8007,15.8007,0,0,0-12.1831-5.126,15.9467,15.9467,0,0,0-12.31,5.126A17.8809,17.8809,0,0,0,67.5186,496.3364Z"/><path class="a" d="M128.9741,519.0728v-45.378h16.3682q10.5307,0,16.748,6.2344,6.312,6.2345,6.3125,16.4707T162.09,512.8384q-6.249,6.2358-16.748,6.2344Zm5.8858-5.5059h10.4428q7.8473,0,12.4043-4.6045t4.5567-12.5781q0-8.0376-4.5249-12.61t-12.4361-4.5722H134.86Z"/><path class="a" d="M189.7964,519.0728v-45.378h24.9355v5.5069h-19.05v13.7646h16.8033v5.5059H195.6821v15.0947h19.05v5.5059Z"/><path class="a" d="M263.374,519.0728v-45.378h24.4292v5.5069H269.26v14.3974h15.7588v5.5059H269.26v19.9678Z"/><path class="a" d="M305.6846,496.3208a23.1138,23.1138,0,0,1,6.55-16.7715q6.4555-6.6766,16.645-6.6767,10.0935,0,16.5815,6.6767a24.9488,24.9488,0,0,1,0,33.7012q-6.4878,6.6768-16.5815,6.6768-10.19,0-16.645-6.6768A23.3148,23.3148,0,0,1,305.6846,496.3208Zm6.1391.0156a18.3636,18.3636,0,0,0,4.7305,12.958,15.9945,15.9945,0,0,0,12.3257,5.127,15.7983,15.7983,0,0,0,12.1831-5.127,18.353,18.353,0,0,0,4.81-12.9736,17.9379,17.9379,0,0,0-4.81-12.8164,17.1914,17.1914,0,0,0-24.4927,0A17.8809,17.8809,0,0,0,311.8237,496.3364Z"/><path class="a" d="M373.2793,519.0728v-45.378h12.3291q6.7792,0,10.7842,3.7344a14.3531,14.3531,0,0,1,1.7676,17.6416,12.4428,12.4428,0,0,1-6.2745,4.6358l10.5186,19.3662h-6.74l-9.8858-18.417H379.165v18.417Zm5.8857-23.7334h6.4864a9.3545,9.3545,0,0,0,6.4716-2.1358,7.3944,7.3944,0,0,0,2.3887-5.8066,7.738,7.738,0,0,0-2.3887-6.0127,9.2277,9.2277,0,0,0-6.4716-2.1826H379.165Z"/><path class="a" d="M446.8564,496.3843q0-10.19,6.2969-16.8506a21.2287,21.2287,0,0,1,16.1387-6.6611,21.4893,21.4893,0,0,1,12.9346,3.75,18.8805,18.8805,0,0,1,7.1054,10.5527h-6.4326q-3.1654-8.7965-13.6387-8.7969h-.0634a14.8251,14.8251,0,0,0-11.6455,5.126q-4.5249,5.001-4.5567,12.88a18.7508,18.7508,0,0,0,4.541,12.91,15.1177,15.1177,0,0,0,11.8828,5.127q6.5508,0,10.3633-3.37t4.003-9.7305H470.083V495.814h19.8408v3.0381q0,9.9052-5.48,15.4736-5.5444,5.5708-15.0245,5.6016-9.9053,0-16.2021-6.6768A23.6149,23.6149,0,0,1,446.8564,496.3843Z"/><path class="a" d="M509.2617,496.3208a23.1122,23.1122,0,0,1,6.5508-16.7715q6.4556-6.6766,16.6445-6.6767,10.0942,0,16.5811,6.6767a24.9474,24.9474,0,0,1,0,33.7012q-6.4863,6.6768-16.5811,6.6768-10.1893,0-16.6445-6.6768A23.3132,23.3132,0,0,1,509.2617,496.3208Zm6.1387.0156a18.362,18.362,0,0,0,4.7314,12.958,15.9923,15.9923,0,0,0,12.3252,5.127,15.7963,15.7963,0,0,0,12.1826-5.127,18.3489,18.3489,0,0,0,4.8106-12.9736,17.9339,17.9339,0,0,0-4.8106-12.8164,17.1907,17.1907,0,0,0-24.4921,0A17.883,17.883,0,0,0,515.4,496.3364Z"/><path class="a" d="M574.957,496.3208a23.1122,23.1122,0,0,1,6.5508-16.7715q6.4556-6.6766,16.6445-6.6767,10.0943,0,16.5811,6.6767a24.9474,24.9474,0,0,1,0,33.7012q-6.4863,6.6768-16.5811,6.6768-10.1893,0-16.6445-6.6768A23.3132,23.3132,0,0,1,574.957,496.3208Zm6.1387.0156a18.3624,18.3624,0,0,0,4.7314,12.958,15.9923,15.9923,0,0,0,12.3252,5.127,15.7965,15.7965,0,0,0,12.1827-5.127,18.3492,18.3492,0,0,0,4.81-12.9736,17.9343,17.9343,0,0,0-4.81-12.8164,17.1908,17.1908,0,0,0-24.4922,0A17.883,17.883,0,0,0,581.0957,496.3364Z"/><path class="a" d="M642.5518,519.0728v-45.378h16.3671q10.5309,0,16.7481,6.2344Q681.98,486.1637,681.98,496.4t-6.3125,16.4385q-6.249,6.2358-16.7481,6.2344Zm5.8857-5.5059H658.88q7.8471,0,12.4043-4.6045t4.5566-12.5781q0-8.0376-4.5254-12.61T658.88,479.2017H648.4375Z"/><path class="a" d="M1.0287,180.6123V5.395H29.01V76.9971h84.5542V5.395h27.9809V180.6123H113.5639V103.2676H29.01v77.3447Z"/><path class="a" d="M263.0189,49.9937,259.72,40.4629l-3.2993,9.5308L206.4462,180.6123H175.6547L244.935,5.395h30.0586l69.28,175.2173H313.4823Z"/><path class="a" d="M360.911,93.0034q0-38.9759,24.5606-65.0039Q409.7851,2.2205,448.03,2.2183q30.9141,0,51.2578,15.0288,20.3466,15.0293,27.7988,42.2773H496.05Q484.9316,28.49,448.03,28.4883q-25.5381,0-41.543,18.206-16.1278,17.9621-16.1289,46.3091,0,27.9822,16.1289,46.31T448.52,157.6411q18.8145,0,31.2188-8.5532,12.3984-8.551,17.7773-23.8267h30.0586q-7.5762,28.2254-27.7363,43.438-20.1621,15.2124-51.3184,15.2119-38.37,0-63.0488-25.7812Q360.9091,132.104,360.911,93.0034Z"/><path class="a" d="M565.5946,180.6123V5.395h27.9815V99.7241L662.6122,5.395h34.5791L640.13,83.2285l70.624,97.3838H676.9081l-55.84-74.7788-27.4922,34.9458v39.833Z"/><path class="a" d="M1.0288,420.4263V245.209H64.9541q40.6223,0,64.8989,24.3149,24.5193,24.1934,24.5215,63.294,0,39.3458-24.5215,63.5371-24.3992,24.0732-64.8989,24.0713ZM29.01,394.1558H65.0552q28.5922,0,44.7207-16.19t16.1289-45.1484q0-28.9585-16.0679-45.1485t-44.7817-16.19H29.01Z"/><path class="a" d="M201.6416,350.6568V245.209H229.623V350.6568q0,46.8,41.8492,46.7978,41.6052,0,41.6049-46.7978V245.209h27.981V350.6568q0,35.07-18.15,54.0683-18.1509,19.0005-51.4355,19-33.2827,0-51.5576-19.0615T201.6416,350.6568Z"/><path class="a" d="M397.6113,420.4263V245.209h27.9815v94.3286l69.0361-94.3286H529.208l-57.0615,77.8335,70.624,97.3838H508.9248l-55.84-74.7793-27.4922,34.9463v39.833Z"/><path class="a" d="M585.7617,420.4263V245.209H684v26.27H613.7422v45.5762H675.08v26.27H613.7422v50.83H684v26.2705Z"/></svg>