<svg xmlns="http://www.w3.org/2000/svg" width="720" height="229" viewBox="0 0 720 229"><defs><style>.a,.c,.d{fill:#fff;}.a{stroke:#6077ca;stroke-width:14.86px;}.a,.b,.d,.e{stroke-miterlimit:10;}.b,.e,.f{fill:none;stroke-linecap:round;stroke-width:8px;}.b{stroke:#3649a3;}.c{stroke:#3a3d6d;stroke-width:4px;}.d{stroke:#ef6843;stroke-width:10.43px;}.e{stroke:#d25c59;}.f{stroke:#ffaa5b;stroke-linejoin:round;}</style></defs><title>home-bg-mobile-top</title><path class="a" d="M666.9145,103.8779a23.0969,23.0969,0,1,0-22.961-23.097A23.0292,23.0292,0,0,0,666.9145,103.8779Z"/><path class="b" d="M670.9535,72.6849h34.414"/><path class="b" d="M615.9535,72.6849h31.853"/><path class="b" d="M582.9535,72.6849h9.791"/><path class="c" d="M567.1465,71.4589a7.5985,7.5985,0,1,0-7.596,7.774A7.6865,7.6865,0,0,0,567.1465,71.4589Z"/><path class="d" d="M402.9578,149.6849a16.1163,16.1163,0,1,0,32.232,0v.209a16.1163,16.1163,0,1,0-32.232,0"/><path class="e" d="M429.9578,102.7389l174.577-.054"/><path class="f" d="M345.9578,72.6849h146.336"/></svg>