<svg xmlns="http://www.w3.org/2000/svg" xmlns:xlink="http://www.w3.org/1999/xlink" viewBox="0 0 1400 900"><defs><style>.\31 052333f-626a-4269-9973-4b8ea62d5fb7,.\31 3ac7805-ea94-4ce1-96fc-5b4819652983,.\31 c19c379-fbd8-4fbc-8d1e-feea02fa5494,.\34 3eff4b7-06a9-4701-b2c9-e47dcb354df3,.\38 12c6559-155b-42f7-988e-e3c0f6e9d59e,.a4dad54f-b671-4a8c-a829-667fb182bef0,.a7683eb3-2e5c-422c-ae86-59ccce19d20f,.ab62cb88-ca5c-4de7-9ba8-30f9bfe98ae0,.ac94b870-0227-4f99-8ba5-0c583a70b113,.b1e11cbf-0e50-4c72-9650-bff595762c7a,.c0d69e7d-9531-4d4a-81b9-ec8bb769d342,.c6426543-8c03-4bcf-a94f-85d2551d1013,.cbb578ed-30cf-4360-adb3-2af36569e182,.cd109c70-10b5-4693-a5bc-18204b308e0e,.d6f47a74-debd-4738-b3d9-c98b3c35965e,.d7cd0331-373a-4288-bd1a-c37e0b185afa,.d9bcecd7-4992-45d7-8799-71a10892c64f,.e0e74505-009f-4b70-a5fe-9b24585ef662,.f1338d95-1e94-4955-98dd-254e41c76525{fill:none;}.\32 89a4bef-732e-41b3-846b-8555ae8b2897{clip-path:url(#b9b46f55-d941-4a8d-9780-100bc840c419);}.f153d261-8d4c-4cd5-9e4b-0cf160ff5cd1{fill:#ef6843;}.\39 92c80c6-f155-4e4b-aab1-faba17c69472,.cd109c70-10b5-4693-a5bc-18204b308e0e{stroke:#3a3d6d;}.\31 052333f-626a-4269-9973-4b8ea62d5fb7,.\31 3ac7805-ea94-4ce1-96fc-5b4819652983,.\31 c19c379-fbd8-4fbc-8d1e-feea02fa5494,.\33 026edf7-0abb-45bd-855f-656ce2f73893,.\34 3eff4b7-06a9-4701-b2c9-e47dcb354df3,.\38 12c6559-155b-42f7-988e-e3c0f6e9d59e,.a4dad54f-b671-4a8c-a829-667fb182bef0,.a7683eb3-2e5c-422c-ae86-59ccce19d20f,.ab62cb88-ca5c-4de7-9ba8-30f9bfe98ae0,.ac94b870-0227-4f99-8ba5-0c583a70b113,.b1e11cbf-0e50-4c72-9650-bff595762c7a,.c0d69e7d-9531-4d4a-81b9-ec8bb769d342,.c6426543-8c03-4bcf-a94f-85d2551d1013,.cbb578ed-30cf-4360-adb3-2af36569e182,.cd109c70-10b5-4693-a5bc-18204b308e0e,.d7cd0331-373a-4288-bd1a-c37e0b185afa,.e0e74505-009f-4b70-a5fe-9b24585ef662{stroke-linecap:round;}.cd109c70-10b5-4693-a5bc-18204b308e0e{stroke-width:15px;}.\31 3364dd8-aef4-4e6f-88a7-772b2701b2f8,.\31 4c55bce-e66d-4d4c-81ad-2a168a5f9583,.\32 297a41f-3e7c-42b9-b9bd-4a435dbb805e,.\32 55c3493-c2f1-40c6-aa35-d3a406c63a07,.\33 026edf7-0abb-45bd-855f-656ce2f73893,.\34 82bfdde-f97c-4f3b-80b1-d12ee461029e,.\38 0206a7b-fd8a-4fb8-8399-b66c758d9a00,.\39 92c80c6-f155-4e4b-aab1-faba17c69472,.a576194b-3c10-40dc-bed7-36121dd9cbea,.a576acdd-8576-4e2c-9174-5d9edf9445ca,.d022952c-2b26-416e-b6e6-7bb79bb92927,.d3dec16c-fed2-4905-8da3-e9df811e6278,.fa5086f6-5879-4a04-a6ea-67b78df58486{fill:#fff;}.\38 0206a7b-fd8a-4fb8-8399-b66c758d9a00,.\39 92c80c6-f155-4e4b-aab1-faba17c69472,.a576194b-3c10-40dc-bed7-36121dd9cbea{stroke-width:4px;}.\34 82bfdde-f97c-4f3b-80b1-d12ee461029e,.e0e74505-009f-4b70-a5fe-9b24585ef662{stroke:#6077ca;}.\32 55c3493-c2f1-40c6-aa35-d3a406c63a07,.\34 3eff4b7-06a9-4701-b2c9-e47dcb354df3,.\34 82bfdde-f97c-4f3b-80b1-d12ee461029e,.\38 12c6559-155b-42f7-988e-e3c0f6e9d59e,.a4dad54f-b671-4a8c-a829-667fb182bef0,.a576acdd-8576-4e2c-9174-5d9edf9445ca,.a7683eb3-2e5c-422c-ae86-59ccce19d20f,.ab62cb88-ca5c-4de7-9ba8-30f9bfe98ae0,.c6426543-8c03-4bcf-a94f-85d2551d1013,.d022952c-2b26-416e-b6e6-7bb79bb92927,.d6f47a74-debd-4738-b3d9-c98b3c35965e,.d7cd0331-373a-4288-bd1a-c37e0b185afa{stroke-miterlimit:10;}.\33 026edf7-0abb-45bd-855f-656ce2f73893,.\34 82bfdde-f97c-4f3b-80b1-d12ee461029e{stroke-width:14.86px;}.b1e11cbf-0e50-4c72-9650-bff595762c7a,.d022952c-2b26-416e-b6e6-7bb79bb92927{stroke:#ef6843;}.a576acdd-8576-4e2c-9174-5d9edf9445ca,.d022952c-2b26-416e-b6e6-7bb79bb92927{stroke-width:10.43px;}.\34 3eff4b7-06a9-4701-b2c9-e47dcb354df3,.ab62cb88-ca5c-4de7-9ba8-30f9bfe98ae0{stroke:#d25c59;}.\31 3364dd8-aef4-4e6f-88a7-772b2701b2f8,.\31 c19c379-fbd8-4fbc-8d1e-feea02fa5494,.ab62cb88-ca5c-4de7-9ba8-30f9bfe98ae0,.c0d69e7d-9531-4d4a-81b9-ec8bb769d342,.c6426543-8c03-4bcf-a94f-85d2551d1013,.cbb578ed-30cf-4360-adb3-2af36569e182,.e0e74505-009f-4b70-a5fe-9b24585ef662{stroke-width:8px;}.\31 3ac7805-ea94-4ce1-96fc-5b4819652983,.\32 55c3493-c2f1-40c6-aa35-d3a406c63a07,.\34 3eff4b7-06a9-4701-b2c9-e47dcb354df3,.\38 12c6559-155b-42f7-988e-e3c0f6e9d59e,.a4dad54f-b671-4a8c-a829-667fb182bef0,.a7683eb3-2e5c-422c-ae86-59ccce19d20f,.ac94b870-0227-4f99-8ba5-0c583a70b113,.b1e11cbf-0e50-4c72-9650-bff595762c7a,.d6f47a74-debd-4738-b3d9-c98b3c35965e,.d7cd0331-373a-4288-bd1a-c37e0b185afa{stroke-width:7px;}.\30 90f067c-5702-4d82-96f0-44327bc1b50c{fill-opacity:0;}.\31 052333f-626a-4269-9973-4b8ea62d5fb7,.a576194b-3c10-40dc-bed7-36121dd9cbea,.d3dec16c-fed2-4905-8da3-e9df811e6278{stroke:#d15b58;}.\31 052333f-626a-4269-9973-4b8ea62d5fb7,.\31 4c55bce-e66d-4d4c-81ad-2a168a5f9583,.d3dec16c-fed2-4905-8da3-e9df811e6278,.f1338d95-1e94-4955-98dd-254e41c76525{stroke-width:10px;}.\31 3ac7805-ea94-4ce1-96fc-5b4819652983,.\31 c19c379-fbd8-4fbc-8d1e-feea02fa5494,.\33 026edf7-0abb-45bd-855f-656ce2f73893,.ac94b870-0227-4f99-8ba5-0c583a70b113,.b1e11cbf-0e50-4c72-9650-bff595762c7a,.c0d69e7d-9531-4d4a-81b9-ec8bb769d342,.cbb578ed-30cf-4360-adb3-2af36569e182,.e0e74505-009f-4b70-a5fe-9b24585ef662{stroke-linejoin:round;}.\31 3ac7805-ea94-4ce1-96fc-5b4819652983,.a7683eb3-2e5c-422c-ae86-59ccce19d20f,.c0d69e7d-9531-4d4a-81b9-ec8bb769d342{stroke:#ffaa5b;}.\31 c19c379-fbd8-4fbc-8d1e-feea02fa5494,.\33 026edf7-0abb-45bd-855f-656ce2f73893{stroke:#fad262;}.ac94b870-0227-4f99-8ba5-0c583a70b113,.cbb578ed-30cf-4360-adb3-2af36569e182{stroke:#5c5299;}.c6426543-8c03-4bcf-a94f-85d2551d1013,.d7cd0331-373a-4288-bd1a-c37e0b185afa{stroke:#3649a3;}.bb2709c7-1e74-490e-acea-8f2514c8fb95{fill:#6077ca;}.\32 55c3493-c2f1-40c6-aa35-d3a406c63a07,.a4dad54f-b671-4a8c-a829-667fb182bef0{stroke:#a94a64;}.\31 bbfd258-04f9-40a3-917f-1fee2dbb9bd3{fill:#5c5299;}.\38 12c6559-155b-42f7-988e-e3c0f6e9d59e,.d6f47a74-debd-4738-b3d9-c98b3c35965e{stroke:#3b3e6e;}.\32 db17c08-9478-4c93-9e3b-e92b2f787e27{fill:#a94a64;}.f5c6b8af-7397-4016-9c52-ae8508d361b1{fill:#fad262;}.\31 4c55bce-e66d-4d4c-81ad-2a168a5f9583,.\38 0206a7b-fd8a-4fb8-8399-b66c758d9a00,.a576acdd-8576-4e2c-9174-5d9edf9445ca,.f1338d95-1e94-4955-98dd-254e41c76525,.fa5086f6-5879-4a04-a6ea-67b78df58486{stroke:#f5a859;}.fa5086f6-5879-4a04-a6ea-67b78df58486{stroke-width:5px;}.\31 3364dd8-aef4-4e6f-88a7-772b2701b2f8{stroke:#5c59a4;}</style><clipPath id="b9b46f55-d941-4a8d-9780-100bc840c419"><polyline class="d9bcecd7-4992-45d7-8799-71a10892c64f" points="1400 0 1400 900 0 900 0 0"/></clipPath></defs><title>home-bg</title><g id="4fbd4abc-2931-4358-8ea5-02b773eed4cc" data-name="Layer 1"><g class="289a4bef-732e-41b3-846b-8555ae8b2897"><path class="f153d261-8d4c-4cd5-9e4b-0cf160ff5cd1" d="M724.1652,798h-160v34h160Z"/><path class="cd109c70-10b5-4693-a5bc-18204b308e0e" d="M102.9751,901V807.183c6.3544-21.448,14.3417-25.279,31.1361-27.409,0,0,648.054.226,682.554.226s46,1.5,46,22,23.5,19,23.5,19H1310"/><path class="992c80c6-f155-4e4b-aab1-faba17c69472" d="M110.3587,807.395a7.5988,7.5988,0,1,0-7.5968,7.774A7.6861,7.6861,0,0,0,110.3587,807.395Z"/><path class="992c80c6-f155-4e4b-aab1-faba17c69472" d="M206.6193,779.774a7.5986,7.5986,0,1,0-7.5971,7.774A7.6867,7.6867,0,0,0,206.6193,779.774Z"/><path class="992c80c6-f155-4e4b-aab1-faba17c69472" d="M326.1652,779.5a11.0109,11.0109,0,1,0-11,11.5A11.258,11.258,0,0,0,326.1652,779.5Z"/><path class="992c80c6-f155-4e4b-aab1-faba17c69472" d="M382.6592,779.774a7.5985,7.5985,0,1,0-7.5959,7.774A7.6864,7.6864,0,0,0,382.6592,779.774Z"/><path class="992c80c6-f155-4e4b-aab1-faba17c69472" d="M623.3582,779.774a7.5985,7.5985,0,1,0-7.596,7.774A7.6865,7.6865,0,0,0,623.3582,779.774Z"/><path class="992c80c6-f155-4e4b-aab1-faba17c69472" d="M741.0783,779.774a7.5986,7.5986,0,1,0-7.5971,7.774A7.6867,7.6867,0,0,0,741.0783,779.774Z"/><path class="992c80c6-f155-4e4b-aab1-faba17c69472" d="M865.3582,786.774a7.5985,7.5985,0,1,0-7.596,7.774A7.6865,7.6865,0,0,0,865.3582,786.774Z"/><path class="992c80c6-f155-4e4b-aab1-faba17c69472" d="M1035.3552,821.774a7.5971,7.5971,0,1,0-7.59,7.774A7.682,7.682,0,0,0,1035.3552,821.774Z"/><path class="992c80c6-f155-4e4b-aab1-faba17c69472" d="M1150.3552,821.774a7.5971,7.5971,0,1,0-7.59,7.774A7.682,7.682,0,0,0,1150.3552,821.774Z"/><path class="482bfdde-f97c-4f3b-80b1-d12ee461029e" d="M632.1262,167.193a23.0969,23.0969,0,1,0-22.961-23.097A23.0293,23.0293,0,0,0,632.1262,167.193Z"/><path class="d022952c-2b26-416e-b6e6-7bb79bb92927" d="M422.2812,773.417a16.2088,16.2088,0,1,0-16.116-16.208A16.1629,16.1629,0,0,0,422.2812,773.417Z"/><path class="ab62cb88-ca5c-4de7-9ba8-30f9bfe98ae0" d="M433.1652,710.054,607.7423,710"/><path class="43eff4b7-06a9-4701-b2c9-e47dcb354df3" d="M1249.2952,483.851h31.62"/><rect class="090f067c-5702-4d82-96f0-44327bc1b50c" x="1028.1052" y="452.8" width="190.021" height="33.4253"/><path class="43eff4b7-06a9-4701-b2c9-e47dcb354df3" d="M1028.1052,452.8h189.96"/><path class="43eff4b7-06a9-4701-b2c9-e47dcb354df3" d="M1077.3652,486.225h138.72"/><path class="43eff4b7-06a9-4701-b2c9-e47dcb354df3" d="M1077.8552,486.057l140.27-32.829"/><circle class="d3dec16c-fed2-4905-8da3-e9df811e6278" cx="849.6652" cy="107.5" r="32.5"/><path class="b1e11cbf-0e50-4c72-9650-bff595762c7a" d="M1273.1652,862h7.73"/><path class="c0d69e7d-9531-4d4a-81b9-ec8bb769d342" d="M349.1652,680h146.336"/><path class="1c19c379-fbd8-4fbc-8d1e-feea02fa5494" d="M512.1652,822H670.16"/><path class="e0e74505-009f-4b70-a5fe-9b24585ef662" d="M1091.1652,841h162"/><path class="cbb578ed-30cf-4360-adb3-2af36569e182" d="M556.1652,524.165V293"/><path class="cbb578ed-30cf-4360-adb3-2af36569e182" d="M533.1652,347.728V276"/><path class="d7cd0331-373a-4288-bd1a-c37e0b185afa" d="M954.1652,402H1320"/><path class="d7cd0331-373a-4288-bd1a-c37e0b185afa" d="M1288.1652,421.3333h37.06"/><path class="d7cd0331-373a-4288-bd1a-c37e0b185afa" d="M1211.0653,421.3333h24.42"/><path class="d7cd0331-373a-4288-bd1a-c37e0b185afa" d="M1250.6552,421.3333h5.54"/><path class="c6426543-8c03-4bcf-a94f-85d2551d1013" d="M636.1652,136h34.414"/><path class="c6426543-8c03-4bcf-a94f-85d2551d1013" d="M581.1652,136h31.8531"/><path class="c6426543-8c03-4bcf-a94f-85d2551d1013" d="M548.1652,136h9.7911"/><path class="992c80c6-f155-4e4b-aab1-faba17c69472" d="M532.3582,134.774a7.5985,7.5985,0,1,0-7.596,7.774A7.6865,7.6865,0,0,0,532.3582,134.774Z"/><path class="992c80c6-f155-4e4b-aab1-faba17c69472" d="M821.3582,361.774a7.5985,7.5985,0,1,0-7.596,7.774A7.6865,7.6865,0,0,0,821.3582,361.774Z"/><path class="c6426543-8c03-4bcf-a94f-85d2551d1013" d="M605.1652,370.364h120.552L726.21,361h76.8321"/><path class="bb2709c7-1e74-490e-acea-8f2514c8fb95" d="M766.1652,518.135V601l224-192.457V321Z"/><path class="a4dad54f-b671-4a8c-a829-667fb182bef0" d="M778.1652,467l94-80"/><path class="a4dad54f-b671-4a8c-a829-667fb182bef0" d="M680.1652,655l222-189"/><rect class="090f067c-5702-4d82-96f0-44327bc1b50c" x="1296.1652" y="584" width="44.4321" height="37.5386"/><path class="ac94b870-0227-4f99-8ba5-0c583a70b113" d="M1296.1652,621.539V586.493"/><path class="ac94b870-0227-4f99-8ba5-0c583a70b113" d="M1296.1652,621.538l44.43-37.538"/><rect class="090f067c-5702-4d82-96f0-44327bc1b50c" x="849.1652" y="159" width="303.744" height="227.67"/><path class="bb2709c7-1e74-490e-acea-8f2514c8fb95" d="M1012.1953,303.947l.5,82.723h50.32V320.394a14.7871,14.7871,0,0,0-3.1-10.779c-4.61-5.63-11.66-5.219-12.34-5.17Z"/><path class="1bbfd258-04f9-40a3-917f-1fee2dbb9bd3" d="M1108.2253,159h-150.06v34.021h150.06Z"/><path class="d6f47a74-debd-4738-b3d9-c98b3c35965e" d="M1138.3253,284.264l-42.34.19q-.06-41.5485-.11-83.097"/><path class="255c3493-c2f1-40c6-aa35-d3a406c63a07" d="M1021.4453,298.359a14.4583,14.4583,0,1,0-14.37-14.458A14.4119,14.4119,0,0,0,1021.4453,298.359Z"/><path class="255c3493-c2f1-40c6-aa35-d3a406c63a07" d="M1138.5352,299.917a14.4588,14.4588,0,1,0-14.37-14.459A14.4126,14.4126,0,0,0,1138.5352,299.917Z"/><path class="2db17c08-9478-4c93-9e3b-e92b2f787e27" d="M863.5373,268.917a14.4588,14.4588,0,1,0-14.3721-14.459A14.4157,14.4157,0,0,0,863.5373,268.917Z"/><rect class="090f067c-5702-4d82-96f0-44327bc1b50c" x="863.1652" y="169" width="268.397" height="214.342"/><path class="812c6559-155b-42f7-988e-e3c0f6e9d59e" d="M1097.4553,193.148l-.51-23.606L947.0653,169l-.51,30.813,147.29.515"/><path class="812c6559-155b-42f7-988e-e3c0f6e9d59e" d="M947.0653,169l-83.9,90.554.5041,119.34a4.474,4.474,0,0,0,.839,2.352,4.8243,4.8243,0,0,0,1.7169,1.323c2.1661.981,172.93.807,263.02.655a1.9823,1.9823,0,0,0,1.88-.65,1.9392,1.9392,0,0,0,.36-.715,1.8135,1.8135,0,0,0,.06-.802q-.045-40.335-.08-80.675"/><path class="812c6559-155b-42f7-988e-e3c0f6e9d59e" d="M965.7652,203.455q-.1349,42.486-.27,84.978l40.07.541"/><path class="812c6559-155b-42f7-988e-e3c0f6e9d59e" d="M997.0052,298.052l-.54,82.837"/><path class="812c6559-155b-42f7-988e-e3c0f6e9d59e" d="M1011.9553,305.27a79.7179,79.7179,0,0,1,25.91.266c9.28,1.663,12.38,4.021,13.62,5.077,6.49,5.571,7.33,14.123,7.47,17.103l.55,53.444"/><path class="812c6559-155b-42f7-988e-e3c0f6e9d59e" d="M1035.7253,312.483a13.6015,13.6015,0,0,1,5.34,2.135c5.16,3.517,6,9.527,6.14,10.686l.54,54.246"/><path class="812c6559-155b-42f7-988e-e3c0f6e9d59e" d="M1098.2053,310.077a15.3618,15.3618,0,0,1,4.01,3.208,16.8655,16.8655,0,0,1,4.01,10.957l1.62,55.85"/><path class="812c6559-155b-42f7-988e-e3c0f6e9d59e" d="M1053.8852,303.395l44.06.542a21.4911,21.4911,0,0,1,10.95,4.01c7.88,5.782,8.7,15.071,8.81,16.566l1.08,55.314"/><path class="812c6559-155b-42f7-988e-e3c0f6e9d59e" d="M1074.4353,277.551l.38-74.952"/><path class="812c6559-155b-42f7-988e-e3c0f6e9d59e" d="M981.3552,266.16l66.22-65.474"/><rect class="090f067c-5702-4d82-96f0-44327bc1b50c" x="878.1652" y="559" width="454.708" height="238.746"/><rect class="090f067c-5702-4d82-96f0-44327bc1b50c" x="954.1652" y="605" width="356.754" height="192.746"/><path class="f5c6b8af-7397-4016-9c52-ae8508d361b1" d="M1098.9152,605h-144.75V714.749h144.75Z"/><path class="3026edf7-0abb-45bd-855f-656ce2f73893" d="M1287.9553,797.746a23.0969,23.0969,0,1,0-22.96-23.096A23.0289,23.0289,0,0,0,1287.9553,797.746Z"/><rect class="090f067c-5702-4d82-96f0-44327bc1b50c" x="878.1652" y="559" width="454.708" height="214.522"/><path class="a7683eb3-2e5c-422c-ae86-59ccce19d20f" d="M878.7072,766.662l-.542-160.028c.233-3.793,1.695-20.89,16.045-34.254A51.47,51.47,0,0,1,924.6933,559l402.1819,1.084"/><path class="a7683eb3-2e5c-422c-ae86-59ccce19d20f" d="M892.8623,718.67V621.618h9.3029"/><path class="a7683eb3-2e5c-422c-ae86-59ccce19d20f" d="M1073.0953,723.406l-97.77.461-.47-103.82,141.85-.922,1.38,67.528,38.1-67.067,1.37,141.028"/><path class="a7683eb3-2e5c-422c-ae86-59ccce19d20f" d="M1168.1152,616.367l48.67.461,1.37,144.691"/><path class="a7683eb3-2e5c-422c-ae86-59ccce19d20f" d="M1231.4653,617.288h38.56l1.38,147"/><path class="2297a41f-3e7c-42b9-b9bd-4a435dbb805e" d="M906.8772,770.455l170.648.482Z"/><path class="13ac7805-ea94-4ce1-96fc-5b4819652983" d="M906.8772,770.455l170.648.482"/><path class="13ac7805-ea94-4ce1-96fc-5b4819652983" d="M1092.9453,773.327h9.16"/><path class="2297a41f-3e7c-42b9-b9bd-4a435dbb805e" d="M1302.6352,773.327l30.24.195Z"/><path class="13ac7805-ea94-4ce1-96fc-5b4819652983" d="M1302.6352,773.327l30.24.195"/><path class="f1338d95-1e94-4955-98dd-254e41c76525" d="M812.6652,778V757.5c0-27.5-7.5-35.5-31.5-35.5h-61c-51,0-65.5-10-65.5-50.5V239l158-92.5,51-30V-28"/><circle class="80206a7b-fd8a-4fb8-8399-b66c758d9a00" cx="654.1652" cy="240.5" r="7.5"/><circle class="fa5086f6-5879-4a04-a6ea-67b78df58486" cx="811.1652" cy="148.5" r="13"/><circle class="80206a7b-fd8a-4fb8-8399-b66c758d9a00" cx="759.1652" cy="177.5" r="7.5"/><circle class="80206a7b-fd8a-4fb8-8399-b66c758d9a00" cx="863.1652" cy="46.5" r="7.5"/><circle class="80206a7b-fd8a-4fb8-8399-b66c758d9a00" cx="704.1652" cy="211.5" r="7.5"/><circle class="80206a7b-fd8a-4fb8-8399-b66c758d9a00" cx="654.1652" cy="372.5" r="7.5"/><circle class="80206a7b-fd8a-4fb8-8399-b66c758d9a00" cx="654.1652" cy="431.5" r="7.5"/><circle class="fa5086f6-5879-4a04-a6ea-67b78df58486" cx="654.1652" cy="551.5" r="13"/><path class="80206a7b-fd8a-4fb8-8399-b66c758d9a00" d="M1052.6594,490.9939c6.1142-8.028-2.9608-17.1023-10.9883-10.9877C1035.5569,488.0341,1044.6319,497.1085,1052.6594,490.9939Z"/><circle class="80206a7b-fd8a-4fb8-8399-b66c758d9a00" cx="654.1652" cy="671.5" r="7.5"/><circle class="80206a7b-fd8a-4fb8-8399-b66c758d9a00" cx="747.1652" cy="722.5" r="7.5"/><circle class="80206a7b-fd8a-4fb8-8399-b66c758d9a00" cx="803.1652" cy="728.5" r="7.5"/><circle class="80206a7b-fd8a-4fb8-8399-b66c758d9a00" cx="813.1652" cy="780.5" r="7.5"/><path class="a576acdd-8576-4e2c-9174-5d9edf9445ca" d="M829.2812,877.75a16.2088,16.2088,0,1,0-16.116-16.208A16.1629,16.1629,0,0,0,829.2812,877.75Z"/><circle class="a576194b-3c10-40dc-bed7-36121dd9cbea" cx="813.6652" cy="501.5" r="7.5"/><path class="992c80c6-f155-4e4b-aab1-faba17c69472" d="M1263.3552,821.774a7.5971,7.5971,0,1,0-7.59,7.774A7.682,7.682,0,0,0,1263.3552,821.774Z"/><path class="992c80c6-f155-4e4b-aab1-faba17c69472" d="M1319.3552,821.774a7.5971,7.5971,0,1,0-7.59,7.774A7.682,7.682,0,0,0,1319.3552,821.774Z"/><path class="13364dd8-aef4-4e6f-88a7-772b2701b2f8" d="M1329.1652,474a17.5069,17.5069,0,1,1-18,17.5A17.7539,17.7539,0,0,1,1329.1652,474Z"/><polyline class="090f067c-5702-4d82-96f0-44327bc1b50c" points="1005.165 70 1005.165 -239 2048.165 -239 2048.165 70"/></g></g><g id="167f7167-cec5-4065-a663-f9c5fd3e1489" data-name="Layer 2"><circle class="14c55bce-e66d-4d4c-81ad-2a168a5f9583" cx="1249.9161" cy="332.6876" r="32.5"/><path class="1052333f-626a-4269-9973-4b8ea62d5fb7" d="M1260.1561,209.3442l-38.1256-.0031c-21.2156.7324-25.6144,5.0965-25.6144,27.9059v83.7544c0,21.372,8.2248,26.7228,20.4445,26.7228,52.6588.5265,105.3175-.5263,157.9762,0"/><circle class="a576194b-3c10-40dc-bed7-36121dd9cbea" cx="1260.3121" cy="210.3445" r="7.5"/><circle class="a576194b-3c10-40dc-bed7-36121dd9cbea" cx="1195.9161" cy="252.2808" r="7.5"/><circle class="a576194b-3c10-40dc-bed7-36121dd9cbea" cx="1196.4161" cy="308.6732" r="7.5"/><circle class="a576194b-3c10-40dc-bed7-36121dd9cbea" cx="1312.9161" cy="347.6732" r="7.5"/><circle class="a576194b-3c10-40dc-bed7-36121dd9cbea" cx="1377.7759" cy="347.6732" r="7.5"/></g></svg>