<svg id="85374007-c986-4ec7-8679-c011e2221dde" data-name="Layer 1" xmlns="http://www.w3.org/2000/svg" xmlns:xlink="http://www.w3.org/1999/xlink" viewBox="0 0 1366 900"><defs><style>.\31 77bb00f-bcf3-411a-aa87-d97d60523bac,.\32 713ecce-d25d-4e7a-b2c5-d1d88d2c1d20,.\35 68bc831-30dd-4407-ab11-9d5020a4bc13,.\35 9949661-43f2-4fa1-a1c5-6f633baf8386,.\36 96ca2d4-f0c2-4bb9-afaf-286a5ceb3c02,.\38 a9c14f7-f3ff-4340-b925-58527f980f23,.a74c9791-2400-4786-b329-94fc0624c542,.a769e962-65fd-479c-86eb-ec948dd4592a,.a8605f3e-0635-4957-9e80-c2d8a639e727,.ac07a4be-3c0a-41c7-8786-46b19906e951,.ace3d7ef-67e9-45d4-87d3-bad4ad1c9ccc,.bca25373-0397-43cb-b65d-b164cbc9846f,.c28a5f9e-08fd-427f-bce2-397b394c984a,.c5fab2be-cd0b-4163-8229-787b034c5f9f,.c620903e-326c-4bd1-a690-9a3878a672e3,.d603393d-fcbf-40f8-85ae-4886bb1f0869,.dd10a38c-573f-437b-b692-a8a56a870fc9,.ebcba653-84c1-42f9-a29a-ad9f7fc2ab17,.ee89262d-bf19-4bab-ae5b-eb1236eac9a7,.f2f5242d-030a-446f-8fff-4d63c5e073e5{fill:none;}.\34 9591edf-5908-49a6-9e42-f3bb5d36abd0{clip-path:url(#c4b2a23b-79d2-48fc-95fb-ab7a25f7f542);}.e6715f59-ce47-4f46-99a8-86fff923c886{fill-opacity:0;}.c15dad08-4725-4ab3-8d2e-476a4893ad8f{fill:#ef6843;}.\31 77bb00f-bcf3-411a-aa87-d97d60523bac,.\38 aee8024-9219-4d92-9d7a-ebce23f9a28e{stroke:#3a3d6d;}.\31 77bb00f-bcf3-411a-aa87-d97d60523bac,.\34 485f831-34ab-4f85-8bd8-ce773035b43c,.\35 68bc831-30dd-4407-ab11-9d5020a4bc13,.\35 9949661-43f2-4fa1-a1c5-6f633baf8386,.\38 a9c14f7-f3ff-4340-b925-58527f980f23,.a74c9791-2400-4786-b329-94fc0624c542,.a769e962-65fd-479c-86eb-ec948dd4592a,.a8605f3e-0635-4957-9e80-c2d8a639e727,.ac07a4be-3c0a-41c7-8786-46b19906e951,.bca25373-0397-43cb-b65d-b164cbc9846f,.c28a5f9e-08fd-427f-bce2-397b394c984a,.c5fab2be-cd0b-4163-8229-787b034c5f9f,.c620903e-326c-4bd1-a690-9a3878a672e3,.d603393d-fcbf-40f8-85ae-4886bb1f0869,.dd10a38c-573f-437b-b692-a8a56a870fc9,.ebcba653-84c1-42f9-a29a-ad9f7fc2ab17,.ee89262d-bf19-4bab-ae5b-eb1236eac9a7,.f2f5242d-030a-446f-8fff-4d63c5e073e5{stroke-linecap:round;}.\31 77bb00f-bcf3-411a-aa87-d97d60523bac{stroke-width:15px;}.\31 d8a13bb-b904-4ac3-8fa9-b3ac1e7fa482,.\31 e48491e-57f7-4b16-90a2-eeba838bad74,.\32 a410cd5-80f7-4e8c-8e2d-e36ab586a7e4,.\33 69d32a2-0a05-4dfa-8fc9-3e798780902e,.\34 485f831-34ab-4f85-8bd8-ce773035b43c,.\36 4334a19-7332-406f-8da9-df4c54d67e7d,.\36 a8d0090-e45e-4966-a458-50dd8d8a9de2,.\38 aee8024-9219-4d92-9d7a-ebce23f9a28e,.aa8190d6-eb33-49c5-aa63-d4d51a930efa,.b54e97e6-6c6a-4b86-ad0d-62d00da58801,.bfce61db-2c1c-4f21-8165-aa60810bd93f,.cc30269f-2dbf-485f-850b-97c084a841f5,.d0528669-67a2-4fbd-aa8e-64eab536fd4d,.d14b3b71-e17c-4d74-8a98-a7c5cc4d1c72{fill:#fff;}.\38 aee8024-9219-4d92-9d7a-ebce23f9a28e,.aa8190d6-eb33-49c5-aa63-d4d51a930efa,.b54e97e6-6c6a-4b86-ad0d-62d00da58801,.bfce61db-2c1c-4f21-8165-aa60810bd93f{stroke-width:4px;}.\36 4334a19-7332-406f-8da9-df4c54d67e7d,.d603393d-fcbf-40f8-85ae-4886bb1f0869{stroke:#6077ca;}.\32 713ecce-d25d-4e7a-b2c5-d1d88d2c1d20,.\33 69d32a2-0a05-4dfa-8fc9-3e798780902e,.\35 68bc831-30dd-4407-ab11-9d5020a4bc13,.\36 4334a19-7332-406f-8da9-df4c54d67e7d,.\36 a8d0090-e45e-4966-a458-50dd8d8a9de2,.\38 a9c14f7-f3ff-4340-b925-58527f980f23,.a8605f3e-0635-4957-9e80-c2d8a639e727,.bca25373-0397-43cb-b65d-b164cbc9846f,.c5fab2be-cd0b-4163-8229-787b034c5f9f,.d0528669-67a2-4fbd-aa8e-64eab536fd4d,.ebcba653-84c1-42f9-a29a-ad9f7fc2ab17,.ee89262d-bf19-4bab-ae5b-eb1236eac9a7{stroke-miterlimit:10;}.\34 485f831-34ab-4f85-8bd8-ce773035b43c,.\36 4334a19-7332-406f-8da9-df4c54d67e7d{stroke-width:14.86px;}.\33 69d32a2-0a05-4dfa-8fc9-3e798780902e,.ac07a4be-3c0a-41c7-8786-46b19906e951{stroke:#ef6843;}.\33 69d32a2-0a05-4dfa-8fc9-3e798780902e,.\36 a8d0090-e45e-4966-a458-50dd8d8a9de2{stroke-width:10.43px;}.c5fab2be-cd0b-4163-8229-787b034c5f9f,.ebcba653-84c1-42f9-a29a-ad9f7fc2ab17{stroke:#d25c59;}.\31 e48491e-57f7-4b16-90a2-eeba838bad74,.a769e962-65fd-479c-86eb-ec948dd4592a,.bca25373-0397-43cb-b65d-b164cbc9846f,.c5fab2be-cd0b-4163-8229-787b034c5f9f,.c620903e-326c-4bd1-a690-9a3878a672e3,.d603393d-fcbf-40f8-85ae-4886bb1f0869,.f2f5242d-030a-446f-8fff-4d63c5e073e5{stroke-width:8px;}.\32 713ecce-d25d-4e7a-b2c5-d1d88d2c1d20,.\35 68bc831-30dd-4407-ab11-9d5020a4bc13,.\35 9949661-43f2-4fa1-a1c5-6f633baf8386,.\38 a9c14f7-f3ff-4340-b925-58527f980f23,.a74c9791-2400-4786-b329-94fc0624c542,.a8605f3e-0635-4957-9e80-c2d8a639e727,.ac07a4be-3c0a-41c7-8786-46b19906e951,.d0528669-67a2-4fbd-aa8e-64eab536fd4d,.ebcba653-84c1-42f9-a29a-ad9f7fc2ab17,.ee89262d-bf19-4bab-ae5b-eb1236eac9a7{stroke-width:7px;}.\31 d8a13bb-b904-4ac3-8fa9-b3ac1e7fa482,.b54e97e6-6c6a-4b86-ad0d-62d00da58801,.c28a5f9e-08fd-427f-bce2-397b394c984a{stroke:#d15b58;}.\31 d8a13bb-b904-4ac3-8fa9-b3ac1e7fa482,.\36 96ca2d4-f0c2-4bb9-afaf-286a5ceb3c02,.c28a5f9e-08fd-427f-bce2-397b394c984a,.cc30269f-2dbf-485f-850b-97c084a841f5,.dd10a38c-573f-437b-b692-a8a56a870fc9{stroke-width:10px;}.\34 485f831-34ab-4f85-8bd8-ce773035b43c,.\35 9949661-43f2-4fa1-a1c5-6f633baf8386,.a74c9791-2400-4786-b329-94fc0624c542,.a769e962-65fd-479c-86eb-ec948dd4592a,.ac07a4be-3c0a-41c7-8786-46b19906e951,.c620903e-326c-4bd1-a690-9a3878a672e3,.d603393d-fcbf-40f8-85ae-4886bb1f0869,.f2f5242d-030a-446f-8fff-4d63c5e073e5{stroke-linejoin:round;}.a74c9791-2400-4786-b329-94fc0624c542,.a769e962-65fd-479c-86eb-ec948dd4592a,.ee89262d-bf19-4bab-ae5b-eb1236eac9a7{stroke:#ffaa5b;}.\34 485f831-34ab-4f85-8bd8-ce773035b43c,.f2f5242d-030a-446f-8fff-4d63c5e073e5{stroke:#fad262;}.\35 9949661-43f2-4fa1-a1c5-6f633baf8386,.c620903e-326c-4bd1-a690-9a3878a672e3{stroke:#5c5299;}.\38 a9c14f7-f3ff-4340-b925-58527f980f23,.bca25373-0397-43cb-b65d-b164cbc9846f{stroke:#3649a3;}.\39 cd07fa1-31e2-48f6-a069-e5f1014d1520{fill:#6077ca;}.a8605f3e-0635-4957-9e80-c2d8a639e727,.d0528669-67a2-4fbd-aa8e-64eab536fd4d{stroke:#a94a64;}.\39 7ce9571-1c1f-4642-adc2-8dcac9c10d68{fill:#5c5299;}.\32 713ecce-d25d-4e7a-b2c5-d1d88d2c1d20,.\35 68bc831-30dd-4407-ab11-9d5020a4bc13{stroke:#3b3e6e;}.a198640c-09dc-491c-a1f5-a4b1f7245821{fill:#a94a64;}.aacd0308-16ad-4c6d-b198-0db04e17e59c{fill:#fad262;}.\32 a410cd5-80f7-4e8c-8e2d-e36ab586a7e4,.\36 96ca2d4-f0c2-4bb9-afaf-286a5ceb3c02,.\36 a8d0090-e45e-4966-a458-50dd8d8a9de2,.bfce61db-2c1c-4f21-8165-aa60810bd93f,.cc30269f-2dbf-485f-850b-97c084a841f5{stroke:#f5a859;}.\32 a410cd5-80f7-4e8c-8e2d-e36ab586a7e4{stroke-width:5px;}.\31 e48491e-57f7-4b16-90a2-eeba838bad74{stroke:#5c59a4;}.aa8190d6-eb33-49c5-aa63-d4d51a930efa,.dd10a38c-573f-437b-b692-a8a56a870fc9{stroke:#3549a2;}</style><clipPath id="c4b2a23b-79d2-48fc-95fb-ab7a25f7f542"><rect class="ace3d7ef-67e9-45d4-87d3-bad4ad1c9ccc" x="-73.8348" width="1440" height="900"/></clipPath></defs><title>home-bg</title><g class="49591edf-5908-49a6-9e42-f3bb5d36abd0"><rect class="e6715f59-ce47-4f46-99a8-86fff923c886" x="-23.8348" y="766" width="1392.5" height="137"/><path class="c15dad08-4725-4ab3-8d2e-476a4893ad8f" d="M724.1652,798h-160v34h160Z"/><path class="177bb00f-bcf3-411a-aa87-d97d60523bac" d="M102.9751,901V807.183c6.3544-21.448,14.3417-25.279,31.1361-27.409,0,0,648.054.226,682.554.226s46,1.5,46,22,23.5,19,23.5,19H1349.5"/><path class="8aee8024-9219-4d92-9d7a-ebce23f9a28e" d="M110.3587,807.395a7.5988,7.5988,0,1,0-7.5968,7.774A7.6861,7.6861,0,0,0,110.3587,807.395Z"/><path class="8aee8024-9219-4d92-9d7a-ebce23f9a28e" d="M206.6193,779.774a7.5986,7.5986,0,1,0-7.5971,7.774A7.6867,7.6867,0,0,0,206.6193,779.774Z"/><path class="8aee8024-9219-4d92-9d7a-ebce23f9a28e" d="M326.1652,779.5a11.0109,11.0109,0,1,0-11,11.5A11.258,11.258,0,0,0,326.1652,779.5Z"/><path class="8aee8024-9219-4d92-9d7a-ebce23f9a28e" d="M382.6592,779.774a7.5985,7.5985,0,1,0-7.5959,7.774A7.6864,7.6864,0,0,0,382.6592,779.774Z"/><path class="8aee8024-9219-4d92-9d7a-ebce23f9a28e" d="M623.3582,779.774a7.5985,7.5985,0,1,0-7.596,7.774A7.6865,7.6865,0,0,0,623.3582,779.774Z"/><path class="8aee8024-9219-4d92-9d7a-ebce23f9a28e" d="M741.0783,779.774a7.5986,7.5986,0,1,0-7.5971,7.774A7.6867,7.6867,0,0,0,741.0783,779.774Z"/><path class="8aee8024-9219-4d92-9d7a-ebce23f9a28e" d="M865.3582,786.774a7.5985,7.5985,0,1,0-7.596,7.774A7.6865,7.6865,0,0,0,865.3582,786.774Z"/><path class="8aee8024-9219-4d92-9d7a-ebce23f9a28e" d="M1035.3552,821.774a7.5971,7.5971,0,1,0-7.59,7.774A7.682,7.682,0,0,0,1035.3552,821.774Z"/><path class="8aee8024-9219-4d92-9d7a-ebce23f9a28e" d="M1150.3552,821.774a7.5971,7.5971,0,1,0-7.59,7.774A7.682,7.682,0,0,0,1150.3552,821.774Z"/><path class="64334a19-7332-406f-8da9-df4c54d67e7d" d="M632.1262,167.193a23.0969,23.0969,0,1,0-22.961-23.097A23.0293,23.0293,0,0,0,632.1262,167.193Z"/><path class="369d32a2-0a05-4dfa-8fc9-3e798780902e" d="M422.2812,773.417a16.2088,16.2088,0,1,0-16.116-16.208A16.1629,16.1629,0,0,0,422.2812,773.417Z"/><path class="c5fab2be-cd0b-4163-8229-787b034c5f9f" d="M433.1652,710.054,607.7423,710"/><path class="ebcba653-84c1-42f9-a29a-ad9f7fc2ab17" d="M1249.2952,483.851h31.62"/><rect class="e6715f59-ce47-4f46-99a8-86fff923c886" x="1028.1052" y="452.8" width="190.021" height="33.4253"/><path class="ebcba653-84c1-42f9-a29a-ad9f7fc2ab17" d="M1028.1052,452.8h189.96"/><path class="ebcba653-84c1-42f9-a29a-ad9f7fc2ab17" d="M1077.3652,486.225h138.72"/><path class="ebcba653-84c1-42f9-a29a-ad9f7fc2ab17" d="M1077.8552,486.057l140.27-32.829"/><circle class="1d8a13bb-b904-4ac3-8fa9-b3ac1e7fa482" cx="849.6652" cy="107.5" r="32.5"/><path class="ac07a4be-3c0a-41c7-8786-46b19906e951" d="M1273.1652,862h7.73"/><path class="a769e962-65fd-479c-86eb-ec948dd4592a" d="M349.1652,680h146.336"/><path class="f2f5242d-030a-446f-8fff-4d63c5e073e5" d="M512.1652,822H670.16"/><path class="d603393d-fcbf-40f8-85ae-4886bb1f0869" d="M1091.1652,841h162"/><path class="c620903e-326c-4bd1-a690-9a3878a672e3" d="M556.1652,524.165V293"/><path class="c620903e-326c-4bd1-a690-9a3878a672e3" d="M533.1652,347.728V276"/><path class="8a9c14f7-f3ff-4340-b925-58527f980f23" d="M954.1652,402H1349.5"/><path class="8a9c14f7-f3ff-4340-b925-58527f980f23" d="M1288.1652,421.3333h37.06"/><path class="8a9c14f7-f3ff-4340-b925-58527f980f23" d="M1211.0653,421.3333h24.42"/><path class="8a9c14f7-f3ff-4340-b925-58527f980f23" d="M1250.6552,421.3333h5.54"/><path class="bca25373-0397-43cb-b65d-b164cbc9846f" d="M636.1652,136h34.414"/><path class="bca25373-0397-43cb-b65d-b164cbc9846f" d="M581.1652,136h31.8531"/><path class="bca25373-0397-43cb-b65d-b164cbc9846f" d="M548.1652,136h9.7911"/><path class="8aee8024-9219-4d92-9d7a-ebce23f9a28e" d="M532.3582,134.774a7.5985,7.5985,0,1,0-7.596,7.774A7.6865,7.6865,0,0,0,532.3582,134.774Z"/><path class="8aee8024-9219-4d92-9d7a-ebce23f9a28e" d="M821.3582,361.774a7.5985,7.5985,0,1,0-7.596,7.774A7.6865,7.6865,0,0,0,821.3582,361.774Z"/><path class="bca25373-0397-43cb-b65d-b164cbc9846f" d="M605.1652,370.364h120.552L726.21,361h76.8321"/><rect class="e6715f59-ce47-4f46-99a8-86fff923c886" x="680.1652" y="159" width="660.432" height="496"/><path class="9cd07fa1-31e2-48f6-a069-e5f1014d1520" d="M766.1652,518.135V601l224-192.457V321Z"/><path class="a8605f3e-0635-4957-9e80-c2d8a639e727" d="M778.1652,467l94-80"/><path class="a8605f3e-0635-4957-9e80-c2d8a639e727" d="M680.1652,655l222-189"/><rect class="e6715f59-ce47-4f46-99a8-86fff923c886" x="1296.1652" y="584" width="44.4321" height="37.5386"/><path class="59949661-43f2-4fa1-a1c5-6f633baf8386" d="M1296.1652,621.539V586.493"/><path class="59949661-43f2-4fa1-a1c5-6f633baf8386" d="M1296.1652,621.538l44.43-37.538"/><rect class="e6715f59-ce47-4f46-99a8-86fff923c886" x="849.1652" y="159" width="303.744" height="227.67"/><path class="9cd07fa1-31e2-48f6-a069-e5f1014d1520" d="M1012.1953,303.947l.5,82.723h50.32V320.394a14.7871,14.7871,0,0,0-3.1-10.779c-4.61-5.63-11.66-5.219-12.34-5.17Z"/><path class="97ce9571-1c1f-4642-adc2-8dcac9c10d68" d="M1108.2253,159h-150.06v34.021h150.06Z"/><path class="2713ecce-d25d-4e7a-b2c5-d1d88d2c1d20" d="M1138.3253,284.264l-42.34.19q-.06-41.5485-.11-83.097"/><path class="d0528669-67a2-4fbd-aa8e-64eab536fd4d" d="M1021.4453,298.359a14.4583,14.4583,0,1,0-14.37-14.458A14.4119,14.4119,0,0,0,1021.4453,298.359Z"/><path class="d0528669-67a2-4fbd-aa8e-64eab536fd4d" d="M1138.5352,299.917a14.4588,14.4588,0,1,0-14.37-14.459A14.4126,14.4126,0,0,0,1138.5352,299.917Z"/><path class="a198640c-09dc-491c-a1f5-a4b1f7245821" d="M863.5373,268.917a14.4588,14.4588,0,1,0-14.3721-14.459A14.4157,14.4157,0,0,0,863.5373,268.917Z"/><rect class="e6715f59-ce47-4f46-99a8-86fff923c886" x="863.1652" y="169" width="268.397" height="214.342"/><path class="568bc831-30dd-4407-ab11-9d5020a4bc13" d="M1097.4553,193.148l-.51-23.606L947.0653,169l-.51,30.813,147.29.515"/><path class="568bc831-30dd-4407-ab11-9d5020a4bc13" d="M947.0653,169l-83.9,90.554.5041,119.34a4.474,4.474,0,0,0,.839,2.352,4.8243,4.8243,0,0,0,1.7169,1.323c2.1661.981,172.93.807,263.02.655a1.9823,1.9823,0,0,0,1.88-.65,1.9392,1.9392,0,0,0,.36-.715,1.8135,1.8135,0,0,0,.06-.802q-.045-40.335-.08-80.675"/><path class="568bc831-30dd-4407-ab11-9d5020a4bc13" d="M965.7652,203.455q-.1349,42.486-.27,84.978l40.07.541"/><path class="568bc831-30dd-4407-ab11-9d5020a4bc13" d="M997.0052,298.052l-.54,82.837"/><path class="568bc831-30dd-4407-ab11-9d5020a4bc13" d="M1011.9553,305.27a79.7179,79.7179,0,0,1,25.91.266c9.28,1.663,12.38,4.021,13.62,5.077,6.49,5.571,7.33,14.123,7.47,17.103l.55,53.444"/><path class="568bc831-30dd-4407-ab11-9d5020a4bc13" d="M1035.7253,312.483a13.6015,13.6015,0,0,1,5.34,2.135c5.16,3.517,6,9.527,6.14,10.686l.54,54.246"/><path class="568bc831-30dd-4407-ab11-9d5020a4bc13" d="M1098.2053,310.077a15.3618,15.3618,0,0,1,4.01,3.208,16.8655,16.8655,0,0,1,4.01,10.957l1.62,55.85"/><path class="568bc831-30dd-4407-ab11-9d5020a4bc13" d="M1053.8852,303.395l44.06.542a21.4911,21.4911,0,0,1,10.95,4.01c7.88,5.782,8.7,15.071,8.81,16.566l1.08,55.314"/><path class="568bc831-30dd-4407-ab11-9d5020a4bc13" d="M1074.4353,277.551l.38-74.952"/><path class="568bc831-30dd-4407-ab11-9d5020a4bc13" d="M981.3552,266.16l66.22-65.474"/><rect class="e6715f59-ce47-4f46-99a8-86fff923c886" x="878.1652" y="559" width="454.708" height="238.746"/><rect class="e6715f59-ce47-4f46-99a8-86fff923c886" x="954.1652" y="605" width="356.754" height="192.746"/><path class="aacd0308-16ad-4c6d-b198-0db04e17e59c" d="M1098.9152,605h-144.75V714.749h144.75Z"/><path class="4485f831-34ab-4f85-8bd8-ce773035b43c" d="M1287.9553,797.746a23.0969,23.0969,0,1,0-22.96-23.096A23.0289,23.0289,0,0,0,1287.9553,797.746Z"/><rect class="e6715f59-ce47-4f46-99a8-86fff923c886" x="878.1652" y="559" width="454.708" height="214.522"/><path class="ee89262d-bf19-4bab-ae5b-eb1236eac9a7" d="M878.7072,766.662l-.542-160.028c.233-3.793,1.695-20.89,16.045-34.254A51.47,51.47,0,0,1,924.6933,559l402.1819,1.084"/><path class="ee89262d-bf19-4bab-ae5b-eb1236eac9a7" d="M892.8623,718.67V621.618h9.3029"/><path class="ee89262d-bf19-4bab-ae5b-eb1236eac9a7" d="M1073.0953,723.406l-97.77.461-.47-103.82,141.85-.922,1.38,67.528,38.1-67.067,1.37,141.028"/><path class="ee89262d-bf19-4bab-ae5b-eb1236eac9a7" d="M1168.1152,616.367l48.67.461,1.37,144.691"/><path class="ee89262d-bf19-4bab-ae5b-eb1236eac9a7" d="M1231.4653,617.288h38.56l1.38,147"/><path class="d14b3b71-e17c-4d74-8a98-a7c5cc4d1c72" d="M906.8772,770.455l170.648.482Z"/><path class="a74c9791-2400-4786-b329-94fc0624c542" d="M906.8772,770.455l170.648.482"/><path class="a74c9791-2400-4786-b329-94fc0624c542" d="M1092.9453,773.327h9.16"/><path class="d14b3b71-e17c-4d74-8a98-a7c5cc4d1c72" d="M1302.6352,773.327l30.24.195Z"/><path class="a74c9791-2400-4786-b329-94fc0624c542" d="M1302.6352,773.327l30.24.195"/><rect class="e6715f59-ce47-4f46-99a8-86fff923c886" x="639.1652" y="-28" width="645" height="973"/><path class="696ca2d4-f0c2-4bb9-afaf-286a5ceb3c02" d="M812.6652,778V757.5c0-27.5-7.5-35.5-31.5-35.5h-61c-51,0-65.5-10-65.5-50.5V239l158-92.5,51-30V-28"/><circle class="bfce61db-2c1c-4f21-8165-aa60810bd93f" cx="654.1652" cy="240.5" r="7.5"/><circle class="2a410cd5-80f7-4e8c-8e2d-e36ab586a7e4" cx="811.1652" cy="148.5" r="13"/><circle class="bfce61db-2c1c-4f21-8165-aa60810bd93f" cx="759.1652" cy="177.5" r="7.5"/><circle class="bfce61db-2c1c-4f21-8165-aa60810bd93f" cx="863.1652" cy="46.5" r="7.5"/><circle class="bfce61db-2c1c-4f21-8165-aa60810bd93f" cx="704.1652" cy="211.5" r="7.5"/><circle class="bfce61db-2c1c-4f21-8165-aa60810bd93f" cx="654.1652" cy="372.5" r="7.5"/><circle class="bfce61db-2c1c-4f21-8165-aa60810bd93f" cx="654.1652" cy="431.5" r="7.5"/><circle class="2a410cd5-80f7-4e8c-8e2d-e36ab586a7e4" cx="654.1652" cy="551.5" r="13"/><circle class="cc30269f-2dbf-485f-850b-97c084a841f5" cx="1249.6652" cy="332.5" r="32.5"/><path class="bfce61db-2c1c-4f21-8165-aa60810bd93f" d="M1052.6594,490.9939c6.1142-8.028-2.9608-17.1023-10.9883-10.9877C1035.5569,488.0341,1044.6319,497.1085,1052.6594,490.9939Z"/><circle class="bfce61db-2c1c-4f21-8165-aa60810bd93f" cx="654.1652" cy="671.5" r="7.5"/><circle class="bfce61db-2c1c-4f21-8165-aa60810bd93f" cx="747.1652" cy="722.5" r="7.5"/><circle class="bfce61db-2c1c-4f21-8165-aa60810bd93f" cx="803.1652" cy="728.5" r="7.5"/><circle class="bfce61db-2c1c-4f21-8165-aa60810bd93f" cx="813.1652" cy="780.5" r="7.5"/><path class="6a8d0090-e45e-4966-a458-50dd8d8a9de2" d="M829.2812,877.75a16.2088,16.2088,0,1,0-16.116-16.208A16.1629,16.1629,0,0,0,829.2812,877.75Z"/><path class="c28a5f9e-08fd-427f-bce2-397b394c984a" d="M1543.6652-61.5h-177c-21.72,5.7412-31.68,17.7463-33,38V111c0,32.1667,0,46.5-28.5,46.5h-47.5c-44.8-2.166-54.5,6.6592-54.5,50v88c0,25.5,17.5,30,43.5,30H1349.5"/><circle class="b54e97e6-6c6a-4b86-ad0d-62d00da58801" cx="1333.6652" cy="21.5" r="7.5"/><circle class="b54e97e6-6c6a-4b86-ad0d-62d00da58801" cx="1333.6652" cy="113.5" r="7.5"/><circle class="b54e97e6-6c6a-4b86-ad0d-62d00da58801" cx="1257.6652" cy="157.5" r="7.5"/><circle class="b54e97e6-6c6a-4b86-ad0d-62d00da58801" cx="813.6652" cy="501.5" r="7.5"/><circle class="b54e97e6-6c6a-4b86-ad0d-62d00da58801" cx="1209.6652" cy="167.5" r="7.5"/><circle class="b54e97e6-6c6a-4b86-ad0d-62d00da58801" cx="1202.6652" cy="217.5" r="7.5"/><circle class="b54e97e6-6c6a-4b86-ad0d-62d00da58801" cx="1204.6652" cy="303.5" r="7.5"/><circle class="b54e97e6-6c6a-4b86-ad0d-62d00da58801" cx="1319.6652" cy="326.5" r="7.5"/><path class="8aee8024-9219-4d92-9d7a-ebce23f9a28e" d="M1263.3552,821.774a7.5971,7.5971,0,1,0-7.59,7.774A7.682,7.682,0,0,0,1263.3552,821.774Z"/><path class="8aee8024-9219-4d92-9d7a-ebce23f9a28e" d="M1319.3552,821.774a7.5971,7.5971,0,1,0-7.59,7.774A7.682,7.682,0,0,0,1319.3552,821.774Z"/><path class="1e48491e-57f7-4b16-90a2-eeba838bad74" d="M1329.1652,474a17.5069,17.5069,0,1,1-18,17.5A17.7539,17.7539,0,0,1,1329.1652,474Z"/><rect class="e6715f59-ce47-4f46-99a8-86fff923c886" x="1005.1652" y="-239" width="1043" height="309"/><path class="dd10a38c-573f-437b-b692-a8a56a870fc9" d="M1005.1652-239l240.5,293H1349.5"/><path class="aa8190d6-eb33-49c5-aa63-d4d51a930efa" d="M1280.3552,54.7738a7.5971,7.5971,0,1,0-7.59,7.7738A7.6819,7.6819,0,0,0,1280.3552,54.7738Z"/><path class="aa8190d6-eb33-49c5-aa63-d4d51a930efa" d="M1213.2552,10.9359a7.5966,7.5966,0,1,0,9.68,11.7047,7.5966,7.5966,0,1,0-9.68-11.7047Z"/></g></svg>