<svg id="2ccc0e88-e7f5-4089-8d88-4b027fbb2798" data-name="Layer 1" xmlns="http://www.w3.org/2000/svg" xmlns:xlink="http://www.w3.org/1999/xlink" viewBox="0 0 720 375"><defs><style>.\34 4964881-5942-44d5-b4e6-6f5bbb1ad461,.\34 e10a72b-1326-44ec-b34d-35878387ceb4,.\38 826e6ed-1cda-4652-b94b-3b7eceb0fb48,.c74fc280-84b8-4b7f-8728-e9c672b263a0,.dcea3f1a-b6e3-462c-aaf6-265de9264cce,.ece83de1-58e7-402f-91da-744ebff06cd8,.eece4544-0967-40bf-b4c2-6575da283b1a,.f7090032-7500-4d68-b832-f20cad5bde58{fill:none;}.\34 2860595-810d-4af8-90fe-8cdd89fb72b6{clip-path:url(#98089e7d-eea4-4aa7-924a-8db37bf7f2e4);}.\34 4964881-5942-44d5-b4e6-6f5bbb1ad461,.eece4544-0967-40bf-b4c2-6575da283b1a{stroke:#d25c59;}.\34 4964881-5942-44d5-b4e6-6f5bbb1ad461,.\34 e10a72b-1326-44ec-b34d-35878387ceb4,.\36 769a630-3fba-4ef6-a93f-55d02297b0e6,.\38 826e6ed-1cda-4652-b94b-3b7eceb0fb48,.c74fc280-84b8-4b7f-8728-e9c672b263a0,.dcea3f1a-b6e3-462c-aaf6-265de9264cce,.eece4544-0967-40bf-b4c2-6575da283b1a,.f7090032-7500-4d68-b832-f20cad5bde58{stroke-linecap:round;}.\34 4964881-5942-44d5-b4e6-6f5bbb1ad461,.\34 e10a72b-1326-44ec-b34d-35878387ceb4,.\38 826e6ed-1cda-4652-b94b-3b7eceb0fb48,.dcea3f1a-b6e3-462c-aaf6-265de9264cce{stroke-miterlimit:10;}.\34 4964881-5942-44d5-b4e6-6f5bbb1ad461,.\34 e10a72b-1326-44ec-b34d-35878387ceb4,.\38 826e6ed-1cda-4652-b94b-3b7eceb0fb48,.c74fc280-84b8-4b7f-8728-e9c672b263a0,.dcea3f1a-b6e3-462c-aaf6-265de9264cce,.eece4544-0967-40bf-b4c2-6575da283b1a,.f7090032-7500-4d68-b832-f20cad5bde58{stroke-width:7px;}.a6b0a69e-3d6b-4cc2-8521-be23fc1406a5{fill-opacity:0;}.\34 e10a72b-1326-44ec-b34d-35878387ceb4{stroke:#6077ca;}.f7090032-7500-4d68-b832-f20cad5bde58{stroke:#3649a3;}.\36 769a630-3fba-4ef6-a93f-55d02297b0e6,.c74fc280-84b8-4b7f-8728-e9c672b263a0,.eece4544-0967-40bf-b4c2-6575da283b1a,.f7090032-7500-4d68-b832-f20cad5bde58{stroke-linejoin:round;}.f23b1e4a-8d12-452f-8bda-3e4f4306d7fc{fill:#fad262;}.\32 8048a04-852f-43e8-a043-8d1159a95eb4,.\36 769a630-3fba-4ef6-a93f-55d02297b0e6,.c62a2d3e-e9ed-4381-8f4f-48d9867d278d{fill:#fff;}.\36 769a630-3fba-4ef6-a93f-55d02297b0e6{stroke:#ef6843;stroke-width:14.86px;}.\38 826e6ed-1cda-4652-b94b-3b7eceb0fb48,.c74fc280-84b8-4b7f-8728-e9c672b263a0{stroke:#ffaa5b;}.dcea3f1a-b6e3-462c-aaf6-265de9264cce{stroke:#5c5299;}.\32 8048a04-852f-43e8-a043-8d1159a95eb4{stroke:#a94a64;stroke-width:4px;}</style><clipPath id="98089e7d-eea4-4aa7-924a-8db37bf7f2e4"><polyline class="ece83de1-58e7-402f-91da-744ebff06cd8" points="154.074 375.667 154.074 -0.667 719.909 -0.667 719.909 375.667"/></clipPath></defs><title>home-bg-mobile</title><g class="42860595-810d-4af8-90fe-8cdd89fb72b6"><path class="44964881-5942-44d5-b4e6-6f5bbb1ad461" d="M621.7012,73.4473h31.62"/><rect class="a6b0a69e-3d6b-4cc2-8521-be23fc1406a5" x="400.5111" y="40.4622" width="190.021" height="33.4253"/><path class="4e10a72b-1326-44ec-b34d-35878387ceb4" d="M400.5111,40.4622h189.96"/><path class="4e10a72b-1326-44ec-b34d-35878387ceb4" d="M449.7711,73.8872h138.72"/><path class="4e10a72b-1326-44ec-b34d-35878387ceb4" d="M450.2611,73.7192l140.27-32.829"/><rect class="a6b0a69e-3d6b-4cc2-8521-be23fc1406a5" x="668.5711" y="149.6622" width="44.4321" height="37.5386"/><path class="f7090032-7500-4d68-b832-f20cad5bde58" d="M668.5711,187.2012V152.1551"/><path class="f7090032-7500-4d68-b832-f20cad5bde58" d="M668.5711,187.2l44.43-37.538"/><rect class="a6b0a69e-3d6b-4cc2-8521-be23fc1406a5" x="326.5711" y="170.6622" width="356.754" height="192.746"/><path class="f23b1e4a-8d12-452f-8bda-3e4f4306d7fc" d="M471.3211,170.6622h-144.75v109.749h144.75Z"/><path class="6769a630-3fba-4ef6-a93f-55d02297b0e6" d="M660.3612,363.4081a23.0969,23.0969,0,1,0-22.96-23.0959A23.0289,23.0289,0,0,0,660.3612,363.4081Z"/><path class="8826e6ed-1cda-4652-b94b-3b7eceb0fb48" d="M251.1131,332.3242l-.542-160.0281c.233-3.7929,1.6951-20.89,16.045-34.2539a51.47,51.47,0,0,1,30.4831-13.38l402.1819,1.084"/><path class="dcea3f1a-b6e3-462c-aaf6-265de9264cce" d="M265.2682,284.3321V187.28h9.3029"/><path class="8826e6ed-1cda-4652-b94b-3b7eceb0fb48" d="M445.5012,289.0682l-97.77.461-.47-103.82,141.85-.922,1.38,67.528,38.1-67.067,1.37,141.028"/><path class="8826e6ed-1cda-4652-b94b-3b7eceb0fb48" d="M540.5211,182.0292l48.67.461,1.37,144.6909"/><path class="8826e6ed-1cda-4652-b94b-3b7eceb0fb48" d="M603.8712,182.95h38.56l1.38,147"/><path class="c62a2d3e-e9ed-4381-8f4f-48d9867d278d" d="M279.2831,336.1172l170.648.482Z"/><path class="eece4544-0967-40bf-b4c2-6575da283b1a" d="M279.2831,336.3333l170.648.2659"/><path class="eece4544-0967-40bf-b4c2-6575da283b1a" d="M465.3512,336.4583l9.16-.125"/><path class="c62a2d3e-e9ed-4381-8f4f-48d9867d278d" d="M675.0411,338.9892l30.24.1949Z"/><path class="c74fc280-84b8-4b7f-8728-e9c672b263a0" d="M675.0411,338.9892l30.24.1949"/><path class="28048a04-852f-43e8-a043-8d1159a95eb4" d="M425.0653,78.656c6.1142-8.0279-2.9608-17.1023-10.9883-10.9877C407.9628,75.6962,417.0378,84.7706,425.0653,78.656Z"/></g></svg>