<svg xmlns="http://www.w3.org/2000/svg" xmlns:xlink="http://www.w3.org/1999/xlink" width="700.8348" height="376.3333" viewBox="0 0 700.8348 376.3333"><defs><style>.a,.c,.e,.h,.j{fill:none;}.b{clip-path:url(#a);}.c,.e,.g{stroke:#fad262;}.c,.e,.g,.h,.j{stroke-linecap:round;}.c,.h{stroke-miterlimit:10;}.c,.e,.h,.j{stroke-width:7px;}.d{fill-opacity:0;}.e,.g,.j{stroke-linejoin:round;}.f{fill:#fad262;}.g,.i,.k{fill:#fff;}.g{stroke-width:14.86px;}.h,.j{stroke:#ffaa5b;}.k{stroke:#f5a859;stroke-width:4px;}</style><clipPath id="a"><polyline class="a" points="135 376.333 135 -523.667 700.835 -523.667 700.835 376.333"/></clipPath></defs><title>home-bg-mobile</title><g class="b"><path class="c" d="M602.6274,72.18h31.62"/><rect class="d" x="381.4373" y="41.1288" width="190.021" height="33.4253"/><path class="c" d="M381.4373,41.1288h189.96"/><path class="c" d="M430.6973,74.5538h138.72"/><path class="c" d="M431.1873,74.3858l140.27-32.829"/><rect class="d" x="649.4974" y="150.3288" width="44.4321" height="37.5386"/><path class="e" d="M649.4974,187.8678v-35.046"/><path class="e" d="M649.4974,187.8669l44.43-37.5381"/><rect class="d" x="231.4974" y="125.3288" width="454.708" height="238.746"/><rect class="d" x="307.4974" y="171.3288" width="356.754" height="192.746"/><path class="f" d="M452.2474,171.3288h-144.75V281.0779h144.75Z"/><path class="g" d="M641.2874,364.0748a23.0969,23.0969,0,1,0-22.96-23.0959A23.0289,23.0289,0,0,0,641.2874,364.0748Z"/><rect class="d" x="231.4974" y="125.3288" width="454.708" height="214.522"/><path class="h" d="M232.0394,332.9908l-.542-160.028c.2329-3.793,1.695-20.89,16.045-34.254a51.4713,51.4713,0,0,1,30.483-13.38l402.1819,1.084"/><path class="h" d="M246.1944,284.9988v-97.052h9.303"/><path class="h" d="M426.4274,289.7348l-97.77.461-.47-103.82,141.85-.922,1.38,67.528,38.1-67.067,1.37,141.028"/><path class="h" d="M521.4473,182.6958l48.67.461,1.37,144.691"/><path class="h" d="M584.7974,183.6169h38.56l1.38,147"/><path class="i" d="M260.2094,336.7839l170.648.4819Z"/><path class="j" d="M260.2094,336.7839l170.648.4819"/><path class="j" d="M446.2774,339.6559h9.16"/><path class="i" d="M655.9673,339.6559l30.24.1949Z"/><path class="j" d="M655.9673,339.6559l30.24.1949"/><path class="k" d="M405.9915,79.3227c6.1142-8.0279-2.9608-17.1023-10.9883-10.9877C388.889,76.3629,397.964,85.4373,405.9915,79.3227Z"/></g></svg>