<svg id="4c891f40-1e00-4fef-b6b4-cd948d1593a1" data-name="Layer 1" xmlns="http://www.w3.org/2000/svg" xmlns:xlink="http://www.w3.org/1999/xlink" viewBox="0 0 1400 900"><defs><style>.\31 762fae6-16be-43b2-8bfe-43818a225474,.\31 aa5570e-9289-476d-b2f4-75320bc2e469,.\32 ba7a4e0-4bb9-4e32-a726-8a6b47c8f92e,.\33 2193460-2b64-4e84-a4ab-e8c533c781ca,.\34 5f2050d-7f1d-4be4-9d28-dd2209ddcf43,.\36 0d8038a-b717-480c-b25d-e3363e1712d8,.\36 21420ea-fa9d-4a73-a745-4a3ed7afa6a5,.\36 c1749ea-b971-4fa6-9016-be123f122496,.\36 d68c186-9a13-4c3d-a3cf-cbaf24aab65f,.\37 b0eeb0c-13cf-444b-9651-a2475b2f5cb8,.\39 6ac8f6d-405a-4a6f-bcd9-1a51296ddf96,.a5a02821-93b7-4137-abff-8b5414697a57,.a6fe50b0-5838-4cbb-a58f-8794dc2591b7,.c1dc0c6f-70fa-4262-80ae-cd525b985d74,.cbb2c2e1-6e27-4d72-b58e-9f9dc2fe4caf,.d617271a-681c-417c-bd2b-f598842f99bf,.db3ed79c-4ba4-4880-a952-38adfe70039e,.e0b57793-29fc-4c2d-ae8e-c4135411ff4b,.e46441dd-0249-4b6d-8e95-8dd8306f4354,.ebf06170-325b-4516-9d96-10d580c948de{fill:none;}.\36 1b27140-389f-470a-8c9f-682b427a44b8{clip-path:url(#678d98a5-aa78-4a67-a05b-d10a8945c208);}.ce00f148-b7e9-4ade-bcc7-2c54eace635d{fill-opacity:0;}.\39 a37418b-95e3-4832-9450-3c3bcc1269a1{fill:#ef6843;}.\33 9342c86-9081-482e-a03d-29ebbeedf540,.ebf06170-325b-4516-9d96-10d580c948de{stroke:#3a3d6d;}.\31 762fae6-16be-43b2-8bfe-43818a225474,.\31 aa5570e-9289-476d-b2f4-75320bc2e469,.\32 ba7a4e0-4bb9-4e32-a726-8a6b47c8f92e,.\33 2193460-2b64-4e84-a4ab-e8c533c781ca,.\34 5f2050d-7f1d-4be4-9d28-dd2209ddcf43,.\35 bebcc0b-f664-4177-a67c-8e61ff3129e9,.\36 21420ea-fa9d-4a73-a745-4a3ed7afa6a5,.\36 c1749ea-b971-4fa6-9016-be123f122496,.\36 d68c186-9a13-4c3d-a3cf-cbaf24aab65f,.\37 b0eeb0c-13cf-444b-9651-a2475b2f5cb8,.\39 6ac8f6d-405a-4a6f-bcd9-1a51296ddf96,.a5a02821-93b7-4137-abff-8b5414697a57,.a6fe50b0-5838-4cbb-a58f-8794dc2591b7,.c1dc0c6f-70fa-4262-80ae-cd525b985d74,.cbb2c2e1-6e27-4d72-b58e-9f9dc2fe4caf,.db3ed79c-4ba4-4880-a952-38adfe70039e,.e46441dd-0249-4b6d-8e95-8dd8306f4354,.ebf06170-325b-4516-9d96-10d580c948de{stroke-linecap:round;}.ebf06170-325b-4516-9d96-10d580c948de{stroke-width:15px;}.\32 d83c608-875e-47f9-9a1c-42342a8fbc7b,.\33 9342c86-9081-482e-a03d-29ebbeedf540,.\35 a321126-86b4-4d97-9e12-d7c8d41d8d99,.\35 bebcc0b-f664-4177-a67c-8e61ff3129e9,.\36 4f3ac9a-a558-4a18-8a7b-4b8dd24614ef,.\37 09e35e7-0087-4715-9a21-228f7e693aae,.\37 8651294-c0ed-4dcc-a5ab-ea8ff3cf1a7c,.\39 efa7b02-f276-4878-899c-f9069e5f489d,.c14b0e6e-4b64-4a2a-9473-076c56f74a11,.cc017b12-5198-4d23-a0dd-6effddb8c806,.e30838a9-38f1-4edf-9bfa-f344b1b3b261,.e995e472-0a86-42e4-8ff0-e790e3e1438e,.f164d38d-c129-4ddd-889b-1c66c54b1ae4,.fd7edfa9-8bff-4785-91bd-50f405200d6e{fill:#fff;}.\33 9342c86-9081-482e-a03d-29ebbeedf540,.\35 a321126-86b4-4d97-9e12-d7c8d41d8d99,.e30838a9-38f1-4edf-9bfa-f344b1b3b261,.f164d38d-c129-4ddd-889b-1c66c54b1ae4{stroke-width:4px;}.\36 4f3ac9a-a558-4a18-8a7b-4b8dd24614ef,.\36 d68c186-9a13-4c3d-a3cf-cbaf24aab65f{stroke:#6077ca;}.\31 762fae6-16be-43b2-8bfe-43818a225474,.\34 5f2050d-7f1d-4be4-9d28-dd2209ddcf43,.\36 4f3ac9a-a558-4a18-8a7b-4b8dd24614ef,.\36 c1749ea-b971-4fa6-9016-be123f122496,.\37 b0eeb0c-13cf-444b-9651-a2475b2f5cb8,.\39 6ac8f6d-405a-4a6f-bcd9-1a51296ddf96,.\39 efa7b02-f276-4878-899c-f9069e5f489d,.a5a02821-93b7-4137-abff-8b5414697a57,.db3ed79c-4ba4-4880-a952-38adfe70039e,.e0b57793-29fc-4c2d-ae8e-c4135411ff4b,.e995e472-0a86-42e4-8ff0-e790e3e1438e,.fd7edfa9-8bff-4785-91bd-50f405200d6e{stroke-miterlimit:10;}.\35 bebcc0b-f664-4177-a67c-8e61ff3129e9,.\36 4f3ac9a-a558-4a18-8a7b-4b8dd24614ef{stroke-width:14.86px;}.\39 efa7b02-f276-4878-899c-f9069e5f489d,.e46441dd-0249-4b6d-8e95-8dd8306f4354{stroke:#ef6843;}.\39 efa7b02-f276-4878-899c-f9069e5f489d,.fd7edfa9-8bff-4785-91bd-50f405200d6e{stroke-width:10.43px;}.\31 762fae6-16be-43b2-8bfe-43818a225474,.a5a02821-93b7-4137-abff-8b5414697a57{stroke:#d25c59;}.\31 aa5570e-9289-476d-b2f4-75320bc2e469,.\33 2193460-2b64-4e84-a4ab-e8c533c781ca,.\34 5f2050d-7f1d-4be4-9d28-dd2209ddcf43,.\36 d68c186-9a13-4c3d-a3cf-cbaf24aab65f,.\37 09e35e7-0087-4715-9a21-228f7e693aae,.a5a02821-93b7-4137-abff-8b5414697a57,.cbb2c2e1-6e27-4d72-b58e-9f9dc2fe4caf{stroke-width:8px;}.\31 762fae6-16be-43b2-8bfe-43818a225474,.\32 ba7a4e0-4bb9-4e32-a726-8a6b47c8f92e,.\36 21420ea-fa9d-4a73-a745-4a3ed7afa6a5,.\36 c1749ea-b971-4fa6-9016-be123f122496,.\37 b0eeb0c-13cf-444b-9651-a2475b2f5cb8,.\39 6ac8f6d-405a-4a6f-bcd9-1a51296ddf96,.db3ed79c-4ba4-4880-a952-38adfe70039e,.e0b57793-29fc-4c2d-ae8e-c4135411ff4b,.e46441dd-0249-4b6d-8e95-8dd8306f4354,.e995e472-0a86-42e4-8ff0-e790e3e1438e{stroke-width:7px;}.\32 d83c608-875e-47f9-9a1c-42342a8fbc7b,.\35 a321126-86b4-4d97-9e12-d7c8d41d8d99,.a6fe50b0-5838-4cbb-a58f-8794dc2591b7{stroke:#d15b58;}.\32 d83c608-875e-47f9-9a1c-42342a8fbc7b,.\37 8651294-c0ed-4dcc-a5ab-ea8ff3cf1a7c,.a6fe50b0-5838-4cbb-a58f-8794dc2591b7,.c1dc0c6f-70fa-4262-80ae-cd525b985d74,.d617271a-681c-417c-bd2b-f598842f99bf{stroke-width:10px;}.\31 aa5570e-9289-476d-b2f4-75320bc2e469,.\32 ba7a4e0-4bb9-4e32-a726-8a6b47c8f92e,.\33 2193460-2b64-4e84-a4ab-e8c533c781ca,.\35 bebcc0b-f664-4177-a67c-8e61ff3129e9,.\36 21420ea-fa9d-4a73-a745-4a3ed7afa6a5,.\36 d68c186-9a13-4c3d-a3cf-cbaf24aab65f,.cbb2c2e1-6e27-4d72-b58e-9f9dc2fe4caf,.e46441dd-0249-4b6d-8e95-8dd8306f4354{stroke-linejoin:round;}.\31 aa5570e-9289-476d-b2f4-75320bc2e469,.\36 21420ea-fa9d-4a73-a745-4a3ed7afa6a5,.\39 6ac8f6d-405a-4a6f-bcd9-1a51296ddf96{stroke:#ffaa5b;}.\35 bebcc0b-f664-4177-a67c-8e61ff3129e9,.cbb2c2e1-6e27-4d72-b58e-9f9dc2fe4caf{stroke:#fad262;}.\32 ba7a4e0-4bb9-4e32-a726-8a6b47c8f92e,.\33 2193460-2b64-4e84-a4ab-e8c533c781ca{stroke:#5c5299;}.\34 5f2050d-7f1d-4be4-9d28-dd2209ddcf43,.\37 b0eeb0c-13cf-444b-9651-a2475b2f5cb8{stroke:#3649a3;}.\36 b5d3c54-3172-4a6b-ba9d-35f6dae71643{fill:#6077ca;}.db3ed79c-4ba4-4880-a952-38adfe70039e,.e995e472-0a86-42e4-8ff0-e790e3e1438e{stroke:#a94a64;}.\38 31f5bd5-79fd-427c-b60d-528bcc7c934d{fill:#5c5299;}.\36 c1749ea-b971-4fa6-9016-be123f122496,.e0b57793-29fc-4c2d-ae8e-c4135411ff4b{stroke:#3b3e6e;}.\32 d45de25-53fc-46cc-a1a1-0f0f5f3bc750{fill:#a94a64;}.ba232264-a85c-4fdf-85f6-7a92514fcfda{fill:#fad262;}.\37 8651294-c0ed-4dcc-a5ab-ea8ff3cf1a7c,.c14b0e6e-4b64-4a2a-9473-076c56f74a11,.d617271a-681c-417c-bd2b-f598842f99bf,.e30838a9-38f1-4edf-9bfa-f344b1b3b261,.fd7edfa9-8bff-4785-91bd-50f405200d6e{stroke:#f5a859;}.c14b0e6e-4b64-4a2a-9473-076c56f74a11{stroke-width:5px;}.\37 09e35e7-0087-4715-9a21-228f7e693aae{stroke:#5c59a4;}.c1dc0c6f-70fa-4262-80ae-cd525b985d74,.f164d38d-c129-4ddd-889b-1c66c54b1ae4{stroke:#3549a2;}</style><clipPath id="678d98a5-aa78-4a67-a05b-d10a8945c208"><rect class="60d8038a-b717-480c-b25d-e3363e1712d8" width="1440" height="900"/></clipPath></defs><title>home-bg</title><g class="61b27140-389f-470a-8c9f-682b427a44b8"><rect class="ce00f148-b7e9-4ade-bcc7-2c54eace635d" x="-23.8348" y="766" width="1392.5" height="137"/><path class="9a37418b-95e3-4832-9450-3c3bcc1269a1" d="M724.1652,798h-160v34h160Z"/><path class="ebf06170-325b-4516-9d96-10d580c948de" d="M102.9751,901V807.183c6.3544-21.448,14.3417-25.279,31.1361-27.409,0,0,648.054.226,682.554.226s46,1.5,46,22,23.5,19,23.5,19H1310"/><path class="39342c86-9081-482e-a03d-29ebbeedf540" d="M110.3587,807.395a7.5988,7.5988,0,1,0-7.5968,7.774A7.6861,7.6861,0,0,0,110.3587,807.395Z"/><path class="39342c86-9081-482e-a03d-29ebbeedf540" d="M206.6193,779.774a7.5986,7.5986,0,1,0-7.5971,7.774A7.6867,7.6867,0,0,0,206.6193,779.774Z"/><path class="39342c86-9081-482e-a03d-29ebbeedf540" d="M326.1652,779.5a11.0109,11.0109,0,1,0-11,11.5A11.258,11.258,0,0,0,326.1652,779.5Z"/><path class="39342c86-9081-482e-a03d-29ebbeedf540" d="M382.6592,779.774a7.5985,7.5985,0,1,0-7.5959,7.774A7.6864,7.6864,0,0,0,382.6592,779.774Z"/><path class="39342c86-9081-482e-a03d-29ebbeedf540" d="M623.3582,779.774a7.5985,7.5985,0,1,0-7.596,7.774A7.6865,7.6865,0,0,0,623.3582,779.774Z"/><path class="39342c86-9081-482e-a03d-29ebbeedf540" d="M741.0783,779.774a7.5986,7.5986,0,1,0-7.5971,7.774A7.6867,7.6867,0,0,0,741.0783,779.774Z"/><path class="39342c86-9081-482e-a03d-29ebbeedf540" d="M865.3582,786.774a7.5985,7.5985,0,1,0-7.596,7.774A7.6865,7.6865,0,0,0,865.3582,786.774Z"/><path class="39342c86-9081-482e-a03d-29ebbeedf540" d="M1035.3552,821.774a7.5971,7.5971,0,1,0-7.59,7.774A7.682,7.682,0,0,0,1035.3552,821.774Z"/><path class="39342c86-9081-482e-a03d-29ebbeedf540" d="M1150.3552,821.774a7.5971,7.5971,0,1,0-7.59,7.774A7.682,7.682,0,0,0,1150.3552,821.774Z"/><path class="64f3ac9a-a558-4a18-8a7b-4b8dd24614ef" d="M632.1262,167.193a23.0969,23.0969,0,1,0-22.961-23.097A23.0293,23.0293,0,0,0,632.1262,167.193Z"/><path class="9efa7b02-f276-4878-899c-f9069e5f489d" d="M422.2812,773.417a16.2088,16.2088,0,1,0-16.116-16.208A16.1629,16.1629,0,0,0,422.2812,773.417Z"/><path class="a5a02821-93b7-4137-abff-8b5414697a57" d="M433.1652,710.054,607.7423,710"/><path class="1762fae6-16be-43b2-8bfe-43818a225474" d="M1249.2952,483.851h31.62"/><rect class="ce00f148-b7e9-4ade-bcc7-2c54eace635d" x="1028.1052" y="452.8" width="190.021" height="33.4253"/><path class="1762fae6-16be-43b2-8bfe-43818a225474" d="M1028.1052,452.8h189.96"/><path class="1762fae6-16be-43b2-8bfe-43818a225474" d="M1077.3652,486.225h138.72"/><path class="1762fae6-16be-43b2-8bfe-43818a225474" d="M1077.8552,486.057l140.27-32.829"/><circle class="2d83c608-875e-47f9-9a1c-42342a8fbc7b" cx="849.6652" cy="107.5" r="32.5"/><path class="e46441dd-0249-4b6d-8e95-8dd8306f4354" d="M1273.1652,862h7.73"/><path class="1aa5570e-9289-476d-b2f4-75320bc2e469" d="M349.1652,680h146.336"/><path class="cbb2c2e1-6e27-4d72-b58e-9f9dc2fe4caf" d="M512.1652,822H670.16"/><path class="6d68c186-9a13-4c3d-a3cf-cbaf24aab65f" d="M1091.1652,841h162"/><path class="32193460-2b64-4e84-a4ab-e8c533c781ca" d="M556.1652,524.165V293"/><path class="32193460-2b64-4e84-a4ab-e8c533c781ca" d="M533.1652,347.728V276"/><path class="7b0eeb0c-13cf-444b-9651-a2475b2f5cb8" d="M954.1652,402H1320"/><path class="7b0eeb0c-13cf-444b-9651-a2475b2f5cb8" d="M1288.1652,421.3333h37.06"/><path class="7b0eeb0c-13cf-444b-9651-a2475b2f5cb8" d="M1211.0653,421.3333h24.42"/><path class="7b0eeb0c-13cf-444b-9651-a2475b2f5cb8" d="M1250.6552,421.3333h5.54"/><path class="45f2050d-7f1d-4be4-9d28-dd2209ddcf43" d="M636.1652,136h34.414"/><path class="45f2050d-7f1d-4be4-9d28-dd2209ddcf43" d="M581.1652,136h31.8531"/><path class="45f2050d-7f1d-4be4-9d28-dd2209ddcf43" d="M548.1652,136h9.7911"/><path class="39342c86-9081-482e-a03d-29ebbeedf540" d="M532.3582,134.774a7.5985,7.5985,0,1,0-7.596,7.774A7.6865,7.6865,0,0,0,532.3582,134.774Z"/><path class="39342c86-9081-482e-a03d-29ebbeedf540" d="M821.3582,361.774a7.5985,7.5985,0,1,0-7.596,7.774A7.6865,7.6865,0,0,0,821.3582,361.774Z"/><path class="45f2050d-7f1d-4be4-9d28-dd2209ddcf43" d="M605.1652,370.364h120.552L726.21,361h76.8321"/><rect class="ce00f148-b7e9-4ade-bcc7-2c54eace635d" x="680.1652" y="159" width="660.432" height="496"/><path class="6b5d3c54-3172-4a6b-ba9d-35f6dae71643" d="M766.1652,518.135V601l224-192.457V321Z"/><path class="db3ed79c-4ba4-4880-a952-38adfe70039e" d="M778.1652,467l94-80"/><path class="db3ed79c-4ba4-4880-a952-38adfe70039e" d="M680.1652,655l222-189"/><rect class="ce00f148-b7e9-4ade-bcc7-2c54eace635d" x="1296.1652" y="584" width="44.4321" height="37.5386"/><path class="2ba7a4e0-4bb9-4e32-a726-8a6b47c8f92e" d="M1296.1652,621.539V586.493"/><path class="2ba7a4e0-4bb9-4e32-a726-8a6b47c8f92e" d="M1296.1652,621.538l44.43-37.538"/><rect class="ce00f148-b7e9-4ade-bcc7-2c54eace635d" x="849.1652" y="159" width="303.744" height="227.67"/><path class="6b5d3c54-3172-4a6b-ba9d-35f6dae71643" d="M1012.1953,303.947l.5,82.723h50.32V320.394a14.7871,14.7871,0,0,0-3.1-10.779c-4.61-5.63-11.66-5.219-12.34-5.17Z"/><path class="831f5bd5-79fd-427c-b60d-528bcc7c934d" d="M1108.2253,159h-150.06v34.021h150.06Z"/><path class="e0b57793-29fc-4c2d-ae8e-c4135411ff4b" d="M1138.3253,284.264l-42.34.19q-.06-41.5485-.11-83.097"/><path class="e995e472-0a86-42e4-8ff0-e790e3e1438e" d="M1021.4453,298.359a14.4583,14.4583,0,1,0-14.37-14.458A14.4119,14.4119,0,0,0,1021.4453,298.359Z"/><path class="e995e472-0a86-42e4-8ff0-e790e3e1438e" d="M1138.5352,299.917a14.4588,14.4588,0,1,0-14.37-14.459A14.4126,14.4126,0,0,0,1138.5352,299.917Z"/><path class="2d45de25-53fc-46cc-a1a1-0f0f5f3bc750" d="M863.5373,268.917a14.4588,14.4588,0,1,0-14.3721-14.459A14.4157,14.4157,0,0,0,863.5373,268.917Z"/><rect class="ce00f148-b7e9-4ade-bcc7-2c54eace635d" x="863.1652" y="169" width="268.397" height="214.342"/><path class="6c1749ea-b971-4fa6-9016-be123f122496" d="M1097.4553,193.148l-.51-23.606L947.0653,169l-.51,30.813,147.29.515"/><path class="6c1749ea-b971-4fa6-9016-be123f122496" d="M947.0653,169l-83.9,90.554.5041,119.34a4.474,4.474,0,0,0,.839,2.352,4.8243,4.8243,0,0,0,1.7169,1.323c2.1661.981,172.93.807,263.02.655a1.9823,1.9823,0,0,0,1.88-.65,1.9392,1.9392,0,0,0,.36-.715,1.8135,1.8135,0,0,0,.06-.802q-.045-40.335-.08-80.675"/><path class="6c1749ea-b971-4fa6-9016-be123f122496" d="M965.7652,203.455q-.1349,42.486-.27,84.978l40.07.541"/><path class="6c1749ea-b971-4fa6-9016-be123f122496" d="M997.0052,298.052l-.54,82.837"/><path class="6c1749ea-b971-4fa6-9016-be123f122496" d="M1011.9553,305.27a79.7179,79.7179,0,0,1,25.91.266c9.28,1.663,12.38,4.021,13.62,5.077,6.49,5.571,7.33,14.123,7.47,17.103l.55,53.444"/><path class="6c1749ea-b971-4fa6-9016-be123f122496" d="M1035.7253,312.483a13.6015,13.6015,0,0,1,5.34,2.135c5.16,3.517,6,9.527,6.14,10.686l.54,54.246"/><path class="6c1749ea-b971-4fa6-9016-be123f122496" d="M1098.2053,310.077a15.3618,15.3618,0,0,1,4.01,3.208,16.8655,16.8655,0,0,1,4.01,10.957l1.62,55.85"/><path class="6c1749ea-b971-4fa6-9016-be123f122496" d="M1053.8852,303.395l44.06.542a21.4911,21.4911,0,0,1,10.95,4.01c7.88,5.782,8.7,15.071,8.81,16.566l1.08,55.314"/><path class="6c1749ea-b971-4fa6-9016-be123f122496" d="M1074.4353,277.551l.38-74.952"/><path class="6c1749ea-b971-4fa6-9016-be123f122496" d="M981.3552,266.16l66.22-65.474"/><rect class="ce00f148-b7e9-4ade-bcc7-2c54eace635d" x="878.1652" y="559" width="454.708" height="238.746"/><rect class="ce00f148-b7e9-4ade-bcc7-2c54eace635d" x="954.1652" y="605" width="356.754" height="192.746"/><path class="ba232264-a85c-4fdf-85f6-7a92514fcfda" d="M1098.9152,605h-144.75V714.749h144.75Z"/><path class="5bebcc0b-f664-4177-a67c-8e61ff3129e9" d="M1287.9553,797.746a23.0969,23.0969,0,1,0-22.96-23.096A23.0289,23.0289,0,0,0,1287.9553,797.746Z"/><rect class="ce00f148-b7e9-4ade-bcc7-2c54eace635d" x="878.1652" y="559" width="454.708" height="214.522"/><path class="96ac8f6d-405a-4a6f-bcd9-1a51296ddf96" d="M878.7072,766.662l-.542-160.028c.233-3.793,1.695-20.89,16.045-34.254A51.47,51.47,0,0,1,924.6933,559l402.1819,1.084"/><path class="96ac8f6d-405a-4a6f-bcd9-1a51296ddf96" d="M892.8623,718.67V621.618h9.3029"/><path class="96ac8f6d-405a-4a6f-bcd9-1a51296ddf96" d="M1073.0953,723.406l-97.77.461-.47-103.82,141.85-.922,1.38,67.528,38.1-67.067,1.37,141.028"/><path class="96ac8f6d-405a-4a6f-bcd9-1a51296ddf96" d="M1168.1152,616.367l48.67.461,1.37,144.691"/><path class="96ac8f6d-405a-4a6f-bcd9-1a51296ddf96" d="M1231.4653,617.288h38.56l1.38,147"/><path class="cc017b12-5198-4d23-a0dd-6effddb8c806" d="M906.8772,770.455l170.648.482Z"/><path class="621420ea-fa9d-4a73-a745-4a3ed7afa6a5" d="M906.8772,770.455l170.648.482"/><path class="621420ea-fa9d-4a73-a745-4a3ed7afa6a5" d="M1092.9453,773.327h9.16"/><path class="cc017b12-5198-4d23-a0dd-6effddb8c806" d="M1302.6352,773.327l30.24.195Z"/><path class="621420ea-fa9d-4a73-a745-4a3ed7afa6a5" d="M1302.6352,773.327l30.24.195"/><rect class="ce00f148-b7e9-4ade-bcc7-2c54eace635d" x="639.1652" y="-28" width="645" height="973"/><path class="d617271a-681c-417c-bd2b-f598842f99bf" d="M812.6652,778V757.5c0-27.5-7.5-35.5-31.5-35.5h-61c-51,0-65.5-10-65.5-50.5V239l158-92.5,51-30V-28"/><circle class="e30838a9-38f1-4edf-9bfa-f344b1b3b261" cx="654.1652" cy="240.5" r="7.5"/><circle class="c14b0e6e-4b64-4a2a-9473-076c56f74a11" cx="811.1652" cy="148.5" r="13"/><circle class="e30838a9-38f1-4edf-9bfa-f344b1b3b261" cx="759.1652" cy="177.5" r="7.5"/><circle class="e30838a9-38f1-4edf-9bfa-f344b1b3b261" cx="863.1652" cy="46.5" r="7.5"/><circle class="e30838a9-38f1-4edf-9bfa-f344b1b3b261" cx="704.1652" cy="211.5" r="7.5"/><circle class="e30838a9-38f1-4edf-9bfa-f344b1b3b261" cx="654.1652" cy="372.5" r="7.5"/><circle class="e30838a9-38f1-4edf-9bfa-f344b1b3b261" cx="654.1652" cy="431.5" r="7.5"/><circle class="c14b0e6e-4b64-4a2a-9473-076c56f74a11" cx="654.1652" cy="551.5" r="13"/><circle class="78651294-c0ed-4dcc-a5ab-ea8ff3cf1a7c" cx="1249.6652" cy="332.5" r="32.5"/><path class="e30838a9-38f1-4edf-9bfa-f344b1b3b261" d="M1052.6594,490.9939c6.1142-8.028-2.9608-17.1023-10.9883-10.9877C1035.5569,488.0341,1044.6319,497.1085,1052.6594,490.9939Z"/><circle class="e30838a9-38f1-4edf-9bfa-f344b1b3b261" cx="654.1652" cy="671.5" r="7.5"/><circle class="e30838a9-38f1-4edf-9bfa-f344b1b3b261" cx="747.1652" cy="722.5" r="7.5"/><circle class="e30838a9-38f1-4edf-9bfa-f344b1b3b261" cx="803.1652" cy="728.5" r="7.5"/><circle class="e30838a9-38f1-4edf-9bfa-f344b1b3b261" cx="813.1652" cy="780.5" r="7.5"/><path class="fd7edfa9-8bff-4785-91bd-50f405200d6e" d="M829.2812,877.75a16.2088,16.2088,0,1,0-16.116-16.208A16.1629,16.1629,0,0,0,829.2812,877.75Z"/><path class="a6fe50b0-5838-4cbb-a58f-8794dc2591b7" d="M1543.6652-61.5h-177c-21.72,5.7412-31.68,17.7463-33,38V111c0,32.1667,0,46.5-28.5,46.5h-47.5c-44.8-2.166-54.5,6.6592-54.5,50v88c0,25.5,17.5,30,43.5,30H1385"/><circle class="5a321126-86b4-4d97-9e12-d7c8d41d8d99" cx="1333.6652" cy="21.5" r="7.5"/><circle class="5a321126-86b4-4d97-9e12-d7c8d41d8d99" cx="1333.6652" cy="113.5" r="7.5"/><circle class="5a321126-86b4-4d97-9e12-d7c8d41d8d99" cx="1257.6652" cy="157.5" r="7.5"/><circle class="5a321126-86b4-4d97-9e12-d7c8d41d8d99" cx="813.6652" cy="501.5" r="7.5"/><circle class="5a321126-86b4-4d97-9e12-d7c8d41d8d99" cx="1209.6652" cy="167.5" r="7.5"/><circle class="5a321126-86b4-4d97-9e12-d7c8d41d8d99" cx="1202.6652" cy="217.5" r="7.5"/><circle class="5a321126-86b4-4d97-9e12-d7c8d41d8d99" cx="1204.6652" cy="303.5" r="7.5"/><circle class="5a321126-86b4-4d97-9e12-d7c8d41d8d99" cx="1319.6652" cy="326.5" r="7.5"/><path class="39342c86-9081-482e-a03d-29ebbeedf540" d="M1263.3552,821.774a7.5971,7.5971,0,1,0-7.59,7.774A7.682,7.682,0,0,0,1263.3552,821.774Z"/><path class="39342c86-9081-482e-a03d-29ebbeedf540" d="M1319.3552,821.774a7.5971,7.5971,0,1,0-7.59,7.774A7.682,7.682,0,0,0,1319.3552,821.774Z"/><path class="709e35e7-0087-4715-9a21-228f7e693aae" d="M1329.1652,474a17.5069,17.5069,0,1,1-18,17.5A17.7539,17.7539,0,0,1,1329.1652,474Z"/><rect class="ce00f148-b7e9-4ade-bcc7-2c54eace635d" x="1005.1652" y="-239" width="1043" height="309"/><path class="c1dc0c6f-70fa-4262-80ae-cd525b985d74" d="M1005.1652-239l240.5,293H1385"/><path class="f164d38d-c129-4ddd-889b-1c66c54b1ae4" d="M1280.3552,54.7738a7.5971,7.5971,0,1,0-7.59,7.7738A7.6819,7.6819,0,0,0,1280.3552,54.7738Z"/><path class="f164d38d-c129-4ddd-889b-1c66c54b1ae4" d="M1213.2552,10.9359a7.5966,7.5966,0,1,0,9.68,11.7047,7.5966,7.5966,0,1,0-9.68-11.7047Z"/><path class="f164d38d-c129-4ddd-889b-1c66c54b1ae4" d="M1392.12,54.774a7.597,7.597,0,1,0-7.59,7.7738A7.6819,7.6819,0,0,0,1392.12,54.774Z"/><circle class="5a321126-86b4-4d97-9e12-d7c8d41d8d99" cx="1384.525" cy="326.5" r="7.5"/></g></svg>