<svg xmlns="http://www.w3.org/2000/svg" width="720" height="200" viewBox="0 0 720 200"><defs><style>.a,.c,.d,.i{fill:#fff;}.a{stroke:#6077ca;stroke-width:14.86px;}.a,.b,.d,.e,.h,.i{stroke-miterlimit:10;}.b,.e,.f,.h,.k{fill:none;stroke-linecap:round;}.b{stroke:#3649a3;}.b,.e,.f,.k{stroke-width:8px;}.c{stroke:#3a3d6d;stroke-width:4px;}.d{stroke:#ef6843;stroke-width:10.43px;}.e{stroke:#d25c59;}.f{stroke:#ffaa5b;}.f,.k{stroke-linejoin:round;}.g{fill:#5c5299;}.h{stroke:#3b3e6e;}.h,.i{stroke-width:7px;}.i{stroke:#a94a64;}.j{fill:#ef6843;}.k{stroke:#fad262;}</style></defs><title>home-bg-mobile-top</title><path class="a" d="M666.9145,89.2112a23.0969,23.0969,0,1,0-22.961-23.097A23.0292,23.0292,0,0,0,666.9145,89.2112Z"/><path class="b" d="M670.9535,58.0182h34.414"/><path class="b" d="M615.9535,58.0182h31.853"/><path class="b" d="M582.9535,58.0182h9.791"/><path class="c" d="M567.1465,56.7922a7.5985,7.5985,0,1,0-7.596,7.774A7.6865,7.6865,0,0,0,567.1465,56.7922Z"/><path class="d" d="M402.9578,135.0182a16.1163,16.1163,0,1,0,32.232,0v.209a16.1163,16.1163,0,1,0-32.232,0"/><path class="e" d="M429.9578,88.0722l174.577-.054"/><path class="f" d="M345.9578,58.0182h146.336"/><path class="g" d="M288.2679,46.4582h-150.06v34.021h150.06Z"/><path class="h" d="M277.4979,80.6062,276.9879,57l-149.88-.542-.51,30.813,147.29.515"/><path class="h" d="M127.1079,56.4582l-90.0207,97.16"/><path class="h" d="M161.3978,153.6182l66.22-65.474"/><path class="i" d="M345.9578,149.5807a14.4583,14.4583,0,1,0-14.37-14.458A14.4119,14.4119,0,0,0,345.9578,149.5807Z"/><path class="h" d="M37.0872,153.6182h90.0207"/><path class="j" d="M688.9535,124.1227h-160v34h160Z"/><path class="k" d="M476.9535,148.1227h157.995"/></svg>