<svg xmlns="http://www.w3.org/2000/svg" xmlns:xlink="http://www.w3.org/1999/xlink" width="720" height="200" viewBox="0 0 720 200"><defs><style>.a,.c,.e,.f,.i,.j,.l,.m,.o{fill:none;}.b{clip-path:url(#a);}.c,.l{stroke:#d25c59;}.c,.e,.f,.h,.i,.j,.l,.m,.o{stroke-linecap:round;}.c,.e,.i,.j,.o,.q{stroke-miterlimit:10;}.c,.e,.f,.i,.j,.l,.m{stroke-width:7px;}.d{fill-opacity:0;}.e,.q{stroke:#6077ca;}.f{stroke:#3649a3;}.f,.h,.l,.m{stroke-linejoin:round;}.g{fill:#fad262;}.h,.k,.n,.p,.q{fill:#fff;}.h{stroke:#ef6843;stroke-width:14.86px;}.i{stroke:#5c5299;}.j,.m{stroke:#ffaa5b;}.n{stroke:#a94a64;}.n,.p{stroke-width:4px;}.o,.p{stroke:#3a3d6d;}.o{stroke-width:8px;}.q{stroke-width:10.43px;}</style><clipPath id="a"><polyline class="a" points="0 186.583 0 -189.75 719.909 -189.75 719.909 186.583"/></clipPath></defs><title>home-bg-mobile-bottom</title><g class="b"><path class="c" d="M227.6179,153.6654h24.1276"/><rect class="d" x="35.6072" y="40.0981" width="144.9955" height="25.5052"/><path class="e" d="M35.6072,40.0981H180.5563"/><path class="e" d="M73.1951,65.6031h105.85"/><path class="e" d="M73.569,65.4749l107.033-25.05"/><path class="f" d="M675.2865,62.7679V37.6818"/><path class="f" d="M675.2865,62.7671l30.081-25.0853"/><path class="g" d="M486.7784,27.25H376.327v83.744H486.7784Z"/><path class="h" d="M671.0254,174.3248a17.6241,17.6241,0,1,0-17.52-17.6234A17.5723,17.5723,0,0,0,671.0254,174.3248Z"/><path class="i" d="M231.0738,113.9859V39.93h7.0986"/><path class="j" d="M467.0765,117.6l-74.6034.3518-.3587-79.22,108.2387-.7035,1.053,51.5272L530.4783,38.38l1.0454,107.6115"/><path class="j" d="M559.5815,35.9236l37.1376.3518,1.0454,110.4064"/><path class="j" d="M627.9207,36.6264h29.4232l1.053,112.1683"/><path class="k" d="M265.3051,153.5l130.2129.3678Z"/><path class="l" d="M265.3051,153.6654l130.2129.2028"/><path class="l" d="M407.2843,153.7608l6.99-.0954"/><path class="k" d="M682.2269,155.6919l23.0747.1488Z"/><path class="m" d="M682.2269,155.6919l23.0747.1488"/><path class="n" d="M54.3433,69.2419c4.6654-6.1257-2.2592-13.05-8.3846-8.3841C41.2933,66.9835,48.2179,73.9077,54.3433,69.2419Z"/></g><path class="o" d="M49.0775,127.3768H110.04V116.2759h58.6266"/><path class="p" d="M181.1167,116.8665a5.798,5.798,0,1,0-5.7961,5.932A5.8651,5.8651,0,0,0,181.1167,116.8665Z"/><path class="i" d="M247.5738,113.8665V76.9346"/><path class="i" d="M247.5738,113.8665h36.9319"/><path class="i" d="M288.5057,61.25h24.42"/><path class="i" d="M328.0957,61.25h5.54"/><path class="q" d="M333.6357,116.2085a16.2088,16.2088,0,1,0-16.116-16.208A16.1629,16.1629,0,0,0,333.6357,116.2085Z"/><path class="i" d="M247.5738,113.8665,288.5057,61.25"/></svg>