<svg xmlns="http://www.w3.org/2000/svg" xmlns:xlink="http://www.w3.org/1999/xlink" width="720" height="375" viewBox="0 0 720 375"><defs><style>.a,.c,.e,.h,.j{fill:none;}.b{clip-path:url(#a);}.c,.e,.g{stroke:#fad262;}.c,.e,.g,.h,.j{stroke-linecap:round;}.c,.h{stroke-miterlimit:10;}.c,.e,.h,.j{stroke-width:7px;}.d{fill-opacity:0;}.e,.g,.j{stroke-linejoin:round;}.f{fill:#fad262;}.g,.i,.k{fill:#fff;}.g{stroke-width:14.86px;}.h,.j{stroke:#ffaa5b;}.k{stroke:#f5a859;stroke-width:4px;}</style><clipPath id="a"><polyline class="a" points="154.074 375.667 154.074 -0.667 719.909 -0.667 719.909 375.667"/></clipPath></defs><title>home-bg-mobile</title><g class="b"><path class="c" d="M621.7012,71.5132h31.62"/><rect class="d" x="400.5111" y="40.4622" width="190.021" height="33.4253"/><path class="c" d="M400.5111,40.4622h189.96"/><path class="c" d="M449.7711,73.8872h138.72"/><path class="c" d="M450.2611,73.7192l140.27-32.829"/><rect class="d" x="668.5711" y="149.6622" width="44.4321" height="37.5386"/><path class="e" d="M668.5711,187.2012V152.1551"/><path class="e" d="M668.5711,187.2l44.43-37.538"/><rect class="d" x="250.5711" y="124.6622" width="454.708" height="238.746"/><rect class="d" x="326.5711" y="170.6622" width="356.754" height="192.746"/><path class="f" d="M471.3211,170.6622h-144.75v109.749h144.75Z"/><path class="g" d="M660.3612,363.4081a23.0969,23.0969,0,1,0-22.96-23.0959A23.0289,23.0289,0,0,0,660.3612,363.4081Z"/><rect class="d" x="250.5711" y="124.6622" width="454.708" height="214.522"/><path class="h" d="M251.1131,332.3242l-.542-160.0281c.233-3.7929,1.6951-20.89,16.045-34.2539a51.47,51.47,0,0,1,30.4831-13.38l402.1819,1.084"/><path class="h" d="M265.2682,284.3321V187.28h9.3029"/><path class="h" d="M445.5012,289.0682l-97.77.461-.47-103.82,141.85-.922,1.38,67.528,38.1-67.067,1.37,141.028"/><path class="h" d="M540.5211,182.0292l48.67.461,1.37,144.6909"/><path class="h" d="M603.8712,182.95h38.56l1.38,147"/><path class="i" d="M279.2831,336.1172l170.648.482Z"/><path class="j" d="M279.2831,336.1172l170.648.482"/><path class="j" d="M465.3512,338.9892h9.16"/><path class="i" d="M675.0411,338.9892l30.24.1949Z"/><path class="j" d="M675.0411,338.9892l30.24.1949"/><path class="k" d="M425.0653,78.656c6.1142-8.0279-2.9608-17.1023-10.9883-10.9877C407.9628,75.6962,417.0378,84.7706,425.0653,78.656Z"/></g></svg>