<svg id="37b9e18c-bf2e-4ef4-aa61-f1a60ad49546" data-name="Layer 1" xmlns="http://www.w3.org/2000/svg" viewBox="0 0 720 229"><defs><style>.\34 02701dd-6cc8-469a-915f-d626ab1daadb,.\36 f38c39e-238e-478b-abc7-ebaa9ede0eec,.\39 06fabcb-e51a-4cb7-bf60-e6bcdcbc78d9,.c4d99502-dfc3-4bc2-9f2e-95f199810257{fill:#fff;}.\34 02701dd-6cc8-469a-915f-d626ab1daadb{stroke:#6077ca;stroke-width:14.86px;}.\32 d121520-ef99-40a1-8970-68ee5fce276b,.\34 02701dd-6cc8-469a-915f-d626ab1daadb,.\35 618ad31-aadc-4245-a4ca-8e53f002e403,.\36 f38c39e-238e-478b-abc7-ebaa9ede0eec,.c4d99502-dfc3-4bc2-9f2e-95f199810257,.d2a20ae4-47ca-4777-baac-fb9cf5561400{stroke-miterlimit:10;}.\32 d121520-ef99-40a1-8970-68ee5fce276b,.\35 618ad31-aadc-4245-a4ca-8e53f002e403,.d1d5c773-3868-4f03-bfb2-ee1599c09f00,.d2a20ae4-47ca-4777-baac-fb9cf5561400{fill:none;stroke-linecap:round;}.\35 618ad31-aadc-4245-a4ca-8e53f002e403{stroke:#3649a3;}.\35 618ad31-aadc-4245-a4ca-8e53f002e403,.d1d5c773-3868-4f03-bfb2-ee1599c09f00,.d2a20ae4-47ca-4777-baac-fb9cf5561400{stroke-width:8px;}.\39 06fabcb-e51a-4cb7-bf60-e6bcdcbc78d9{stroke:#3a3d6d;stroke-width:4px;}.\36 f38c39e-238e-478b-abc7-ebaa9ede0eec{stroke:#ef6843;stroke-width:10.43px;}.d2a20ae4-47ca-4777-baac-fb9cf5561400{stroke:#d25c59;}.d1d5c773-3868-4f03-bfb2-ee1599c09f00{stroke:#ffaa5b;stroke-linejoin:round;}.dd0805a5-3bfb-46fb-8ab5-f10016394d92{fill:#5c5299;}.\32 d121520-ef99-40a1-8970-68ee5fce276b{stroke:#3b3e6e;}.\32 d121520-ef99-40a1-8970-68ee5fce276b,.c4d99502-dfc3-4bc2-9f2e-95f199810257{stroke-width:7px;}.c4d99502-dfc3-4bc2-9f2e-95f199810257{stroke:#a94a64;}</style></defs><title>home-bg-mobile-bottom</title><path class="402701dd-6cc8-469a-915f-d626ab1daadb" d="M666.9145,103.8779a23.0969,23.0969,0,1,0-22.961-23.097A23.0292,23.0292,0,0,0,666.9145,103.8779Z"/><path class="5618ad31-aadc-4245-a4ca-8e53f002e403" d="M670.9535,72.6849h34.414"/><path class="5618ad31-aadc-4245-a4ca-8e53f002e403" d="M615.9535,72.6849h31.853"/><path class="5618ad31-aadc-4245-a4ca-8e53f002e403" d="M582.9535,72.6849h9.791"/><path class="906fabcb-e51a-4cb7-bf60-e6bcdcbc78d9" d="M567.1465,71.4589a7.5985,7.5985,0,1,0-7.596,7.774A7.6865,7.6865,0,0,0,567.1465,71.4589Z"/><path class="6f38c39e-238e-478b-abc7-ebaa9ede0eec" d="M402.9578,149.6849a16.1163,16.1163,0,1,0,32.232,0v.209a16.1163,16.1163,0,1,0-32.232,0"/><path class="d2a20ae4-47ca-4777-baac-fb9cf5561400" d="M429.9578,102.7389l174.577-.054"/><path class="d1d5c773-3868-4f03-bfb2-ee1599c09f00" d="M345.9578,72.6849h146.336"/><path class="dd0805a5-3bfb-46fb-8ab5-f10016394d92" d="M288.2679,61.1249h-150.06v34.021h150.06Z"/><path class="2d121520-ef99-40a1-8970-68ee5fce276b" d="M277.4979,95.2729l-.51-23.606-149.88-.542-.51,30.813,147.29.515"/><path class="2d121520-ef99-40a1-8970-68ee5fce276b" d="M127.1079,71.1249l-90.0207,97.16"/><path class="2d121520-ef99-40a1-8970-68ee5fce276b" d="M161.3978,168.2849l66.22-65.474"/><path class="c4d99502-dfc3-4bc2-9f2e-95f199810257" d="M345.9578,164.2474a14.4583,14.4583,0,1,0-14.37-14.458A14.4119,14.4119,0,0,0,345.9578,164.2474Z"/><path class="2d121520-ef99-40a1-8970-68ee5fce276b" d="M37.0872,168.2849h89.5107"/></svg>