<svg version="1.2" baseProfile="tiny" xmlns="http://www.w3.org/2000/svg" x="0px" y="0px" width="890px" height="370px" viewBox="0 0 890 370" overflow="scroll" xml:space="preserve"><g fill="#c3122f"><path d="M251.522 85.899v13.108c10.036-11.798 21.697-16.592 38.942-16.592 37.943 0 56.294 19.214 56.294 59.779v93.412c0 14.38-1.31 24.419-5.242 33.597-6.551 17.902-24.145 27.593-48.877 27.593-16.592 0-27.596-3.448-38.428-13.107v83.786h-42.876V85.899h40.187zm27.041 176.335c16.143 0 24.458-8.727 24.458-25.32v-96.03c0-17.007-7.867-25.318-24.458-25.318-16.59 0-24.422 8.311-24.422 25.318v96.03c-.033 16.627 7.832 25.354 24.422 25.354v-.034zM409.919 85.899v13.108c10.04-11.798 21.836-16.592 38.842-16.592 37.941 0 56.291 19.214 56.291 59.779v93.412c0 14.38-1.309 24.419-5.24 33.597-6.557 17.902-24.148 27.593-48.879 27.593-16.593 0-27.597-3.448-38.394-13.107v83.786h-42.738V85.899h40.15-.032zM437 262.234c16.141 0 24.418-8.727 24.418-25.32v-96.03c0-17.007-7.861-25.318-24.418-25.318-16.558 0-24.423 8.311-24.423 25.318v96.03c0 16.627 7.832 25.354 24.423 25.354v-.034zM528.199 85.899h43.639v207.759h-43.639zM597.154 155.3v-15.245c0-38.393 21.836-57.605 66.332-57.605s64.607 17.904 64.607 57.605v136.183c-.051 5.866.529 11.714 1.727 17.454h-41.912l-.447-13.072c-7.867 11.348-20.076 16.591-40.15 16.591-35.357 0-53.676-16.179-53.676-47.154v-24.868c0-26.185 9.59-38.876 35.357-47.155l55.881-17.903v-19.247c0-16.144-7.414-23.561-22.699-23.561-16.143 0-24.145 7.417-24.145 23.145V155.3h-40.875zm56.295 48.292c-12.213 3.93-16.145 10.04-16.145 24.458v16.143c0 14.833 7.416 22.284 22.699 22.284 17.041 0 24.869-8.312 24.869-26.63v-46.119l-31.423 9.864zM754.24 85.899h41.014v13.798c10.098-11.844 25.045-18.437 40.602-17.901 14.418 0 28.803 4.793 37.529 12.659 4.143 3.753 7.418 8.369 9.592 13.521 3.932 8.728 4.379 13.522 4.379 30.563v154.948h-43.189V140.884c0-17.007-7.861-25.318-23.145-25.318-15.279 0-23.146 8.311-23.146 25.318v152.774H754.24V85.899zM185.844 293.658V2.525h-80.165L2.644 293.658h45.67l21.076-64.986c5.798-12.661 11.385-13.352 21.87-17.074l53.434-17.249v98.964h3.448v.521l37.702-.176zM86.292 176.377l41.396-127.904h16.9v109.278l-58.296 18.626zM580.494 37.056L551.037 7.597h-2.381l-29.355 29.389v2.484l29.424 29.423H551l29.494-29.492z"/></g></svg>