<svg xmlns="http://www.w3.org/2000/svg" width="492" height="177.88"><defs><clipPath id="b"><path d="M20 723.789h176.692v48.281H20v-48.281z"/></clipPath><clipPath id="a"><path d="M12 717.035h187.601v60.034H12v-60.034z"/></clipPath></defs><path d="M470.5 17.346C437.61-18.931 225.986 13.7 135.99 33.359l-2.097.454a.806.806 0 0 0-.648.921.8.8 0 0 0 .925.649l2.08-.407c74.56-13.276 229.614-31.68 262.981 1.401 10.18 10.093 7.75 23.101-4.052 38.44 6.366 4.09 10.898 10.516 12.939 18.564 46.076-30.655 77.038-59.87 62.383-76.035M333.553 128.209c-.02.017-.043.031-.065.048-20.865 14.768-45.579 30.283-72.17 46.569l-1.05.61a.79.79 0 0 0-.186 1.107.78.78 0 0 0 1.099.19l.886-.467c22.552-11.771 48.45-25.739 74.513-40.074.143-.073.28-.156.42-.229a32.548 32.548 0 0 1-3.447-7.753" fill="#d22f2f"/><g fill="#004879"><g clip-path="url(#a)" transform="matrix(4.32435 0 0 -4.32435 -85.487 3339.702)"><path d="M97.486 745.015c-.175 5.037 3.772 10.188 9.504 10.188 3.834 0 6.343-2.555 6.484-6.468.183-5.312-3.503-10.19-9.504-10.19-3.835 0-6.344 2.55-6.484 6.47m2.494-.158c.098-2.952 1.965-5.37 4.401-5.37 4.72 0 6.73 5.796 6.59 9.669-.1 2.959-2.016 5.37-4.448 5.37-4.06 0-6.682-5.77-6.543-9.67M48.167 749.444c-.021-.463-.1-.868-.224-1.576l-.844-4.732c-.072-.42.084-.75.474-.976l-.026-.185-4.827.007-.044 1.204a9.54 9.54 0 0 0-2.319-.992c-.765-.196-1.384-.283-2.313-.283-1.56 0-2.453.162-3.069.702-.626.558-.929.927-.9 1.694.024.442.253 1.008.584 1.405.334.402.789.665 1.285.897.498.238 1.084.41 1.937.544.854.14 2.043.277 3.635.41.837.07 1.347.263 1.587.358.332.13.463.273.512.543.089.487-.067.764-.712.893-1.74.342-4.999-.22-6.679-.642l.913 2.463c2.216.324 4.293.531 6.478.531 3.475 0 4.587-.992 4.552-2.265m-4.983-3.099a5.44 5.44 0 0 0-.798-.222 32.368 32.368 0 0 0-1.793-.318c-.598-.093-1.012-.219-1.249-.388-.226-.168-.359-.367-.398-.61-.046-.26.039-.468.264-.63.229-.16.613-.243 1.155-.243.406 0 .805.065 1.191.188.39.128.719.302.973.517.185.16.318.365.418.61.057.161.14.524.237 1.096M64.091 753.62c.138.777 1.365 1.408 2.735 1.408 1.373 0 2.375-.63 2.243-1.408-.145-.778-1.369-1.407-2.744-1.407-1.377 0-2.373.63-2.234 1.407m-1.932-11.645l1.676 9.455h4.622l-1.675-9.455H62.16z"/></g><g clip-path="url(#b)" transform="matrix(4.32435 0 0 -4.32435 -85.487 3339.702)"><path d="M89.854 749.426c-.019-.464-.101-.873-.228-1.574l-.838-4.738c-.072-.418.083-.746.471-.979l-.029-.164-4.825-.009-.037 1.205a9.499 9.499 0 0 0-2.321-.989c-.768-.202-1.387-.285-2.322-.285-1.558 0-2.444.156-3.063.7-.629.56-.932.927-.898 1.692.017.444.248 1.015.581 1.405.334.407.79.665 1.288.899.498.234 1.087.407 1.929.549a53.45 53.45 0 0 0 3.643.41 5.45 5.45 0 0 1 1.577.349c.337.131.47.276.519.548.086.477-.067.762-.708.892-1.748.345-4.998-.222-6.679-.639l.909 2.462c2.224.325 4.291.532 6.479.532 3.473 0 4.58-.995 4.552-2.266m-4.982-3.104a8.484 8.484 0 0 0-.802-.222c-.324-.077-.922-.173-1.796-.316-.594-.094-1.016-.219-1.244-.389a.96.96 0 0 1-.401-.608c-.048-.261.047-.472.264-.629.234-.161.62-.239 1.163-.239.403 0 .797.06 1.186.182.394.132.721.3.977.517.177.161.315.37.411.615.06.158.14.522.242 1.089M33.444 745.374c-1.504-.298-2.351-.413-3.84-.413-2.207 0-3.961 1.096-3.866 3.106.068 1.338 1.654 4.163 5.683 4.163 1.267 0 2.259-.224 3.593-.984l.585 3.284c-1.813.685-3.014.788-4.57.771-5.28-.057-10.354-2.458-10.982-7.34-.64-4.96 5.419-6.208 8.109-6.196 1.553.004 3.168.068 4.675.224l.613 3.385z"/></g><path d="M221.56 90.014l1.436-8.324 20.908-4.55-2.227 12.874h10.236l-1.942 8.238-9.933-.026-6.032 32.883s-20.126-.13-20.2 0l6.011-32.8h-7.602l1.544-8.295h7.801zM323.363 131.11l-20.359.031 10.24-57.047 19.832.558-9.713 56.459zM120.484 145.257l9.73-54.803h17.548l-1.358 6.997c1.526-2.089 3.956-3.805 7.317-5.202 3.385-1.384 7.195-2.413 11.338-2.413 4.58 0 7.403.246 10.832 2.02 3.412 1.79 5.786 4.38 7.084 7.761 1.314 3.326 1.587 7.066.878 11.131-1.19 6.755-4.485 12.083-9.882 15.996-5.357 3.91-10.175 4.939-17.063 4.964-2.44 0-4.476-.255-6.171-.665-1.657-.433-2.975-.96-3.983-1.6-.956-.645-1.976-1.54-3.29-2.971l-3.27 18.785h-19.71zm36.393-45.423c-2.62 0-4.99.791-7.1 2.382-2.085 1.592-3.412 3.91-3.953 7.002-.627 3.567-.26 6.127 1.155 7.714 1.427 1.57 3.48 2.357 6.18 2.357 1.816 0 3.701-.324 5.085-1.008 1.712-.903 2.893-1.86 3.913-3.364 1.103-1.587 1.825-3.347 2.197-5.397.57-3.226.09-5.647-1.41-7.239-1.453-1.639-3.46-2.447-6.067-2.447M485.105 130.024l1.583 1.072c-3.996 8.143-12.147 14.699-21.712 14.699-7.823 0-14.236-5.207-14.573-14.989C449.77 113.284 466.19 97 479.635 97c5.769 0 11.118 2.52 11.356 8.73.493 13.938-19.075 18.202-31.97 18.491-.42 1.453-.575 2.92-.497 5.146.207 5.778 3.71 10.643 10.936 10.643 6.244 0 12.489-5.03 15.645-9.985m-1.755-25.168c-.113-3.3-1.769-5.514-5.172-5.514-8.2 0-16.917 16.061-18.422 22.535 13.453 0 23.922-8.01 23.594-17.021"/><path d="M404.919 104.395c1.388-.186 3.624-.429 4.588-.429 1.47 0 2.854.277 2.923 1.735.026.864-1.535 7.07-1.863 8.51l-3.118 13.747c-1.254 5.626-2.62 11.516-3.832 16.169h8.01l4.5-21.778c13.74-14.305 19.024-18.97 22.267-18.97 1.457 0 2.465.765 2.534 2.512.082 2.517-1.48 8.233-2.024 9.872l-4.592 15.884c-1.047 3.572-1.817 6.789-1.747 9.09.142 3.49 2.248 5.037 5.38 5.037 5.854 0 10.096-6.101 13.815-12.095l-1.09-1.963c-1.5 2.408-4.972 7.667-7.71 7.667-.869 0-1.682-.575-1.712-2.028-.082-1.86.705-4.632 1.241-6.474l5.103-18.607c1.366-5.125 2.028-8.424 1.993-10.18-.13-3.472-2.158-5.098-5.267-5.098-5.267 0-12.268 3.848-27.079 20.9h-.216l1.868-8.32c1.012-4.55 2.002-9.298 2.966-12.58-5.124 1.846-12.467 3.913-17.007 4.791l.069 2.608z"/></g></svg>