<svg xmlns="http://www.w3.org/2000/svg" viewBox="0 0 600 192"><defs><style>.cls-1{fill:#798188}</style></defs><path class="cls-1" d="M565.88 154.21a75.94 75.94 0 0 0 27.67-5.21v-16.19a60.59 60.59 0 0 1-26.2 6 42.66 42.66 0 0 1-10.44-1.11 23.65 23.65 0 0 1-8.64-4.43q-4.27-3.32-6.43-10.2a58.56 58.56 0 0 1-2.16-17.31q0-19.67 7.35-26.36t20.32-6.7h.37a58.75 58.75 0 0 1 25.84 6.19V62.53a75.2 75.2 0 0 0-27.67-5.23q-21.42 0-32.61 12.41t-11.18 36q0 23.64 11.18 36t32.6 12.5zm-126.68-1.45V76.4a72 72 0 0 1 22.13-3.4q12.82 0 17.07 4.79t4.24 13.08v61.9h17.58V92.18q0-16.46-10.14-25.74t-28-9.29a89.5 89.5 0 0 0-40 9.65v86zm-47.89 0v-94h-17.14v94zm.55-108.54V26.06h-18.25v18.16zm-49.25 108.54V23h-17.14v129.76zm-69.4 1.45a76 76 0 0 0 27.68-5.21v-16.19a60.57 60.57 0 0 1-26.2 6 42.7 42.7 0 0 1-10.44-1.11 23.65 23.65 0 0 1-8.64-4.43q-4.28-3.32-6.44-10.2a58.75 58.75 0 0 1-2.17-17.31q0-19.67 7.36-26.36t20.32-6.7h.37a58.75 58.75 0 0 1 25.84 6.19V62.53a75.22 75.22 0 0 0-27.68-5.23q-21.42 0-32.6 12.41t-11.18 36q0 23.64 11.18 36t32.6 12.5zM190.28 82.56l-9.21-15.92c-1.78-3.08-2.51-5.59-2-7.67a9 9 0 0 1 4.51-5.39l5-2.93-7.37-12.73-5.05 2.92a9 9 0 0 1-6.91 1.22c-2.09-.55-3.9-2.43-5.68-5.51l-9.21-15.92c-2.87-4.94-6.65-8.17-11.67-9.52-4.17-1.11-8.94-.25-14.65 3.06l-11.2 6.48 7.44 12.84 5.81-3.37c3.3-1.91 5.24-2.59 7.15-2.08s3.67 2.28 5.84 6l8.58 14.82c4.57 7.9 10.43 7.15 13.92 6.6-2.22 2.75-5.8 7.45-1.21 15.36L173 85.66c2.16 3.74 2.76 6 2.32 8s-2.07 3.34-5.32 5.2l-5.82 3.38 7.44 12.84 11.2-6.48c5.7-3.3 8.84-7 9.94-11.18 1.31-5.03.38-9.92-2.48-14.86zM62.6 91.77a37.76 37.76 0 1 0 11.24-26.63A37.66 37.66 0 0 0 62.6 91.77zM85.52 77a21.14 21.14 0 1 1-6.29 14.91A21 21 0 0 1 85.52 77zM60.34 26.56l13.93 8.06 7.37-12.71L53.46 5.58 2.05 94.3l28.18 16.33 7.37-12.72-13.92-8.07 36.66-63.28zM126.54 171.65c5.34 0 10.8-.35 15.65-3.13s8.5-6.66 12.5-10.65L144 147.2c-2.91 2.89-4.49 4.71-8 6.77q-3.29 1.82-10.19 1.8H74.46q-6.91 0-10.19-1.8c-3.52-2.06-5.1-3.87-8-6.77l-10.65 10.67c4 4 7.77 7.87 12.5 10.65s10.31 3.14 15.64 3.13z"/></svg>