<svg xmlns="http://www.w3.org/2000/svg" viewBox="0 0 116.4527 53.1939"><defs><style>.a{fill:none;}.b{fill:#004b8d;}</style></defs><title>duke-cs</title><rect class="a" x="-9.2866" y="-40.9038" width="135.001" height="135.001"/><path class="b" d="M36.2862,16.001s2.3989-.168,4.2856-.3662c0,0,.0737-1.3819-.0063-3.8985,0,0-2.04.1455-4.3355.2764Zm-8.5992.43s.0132,1.3818.0132,4.0957c0,0,2.8877-.0967,4.2949-.208l.0191,4.0507s-1.3521.1377-4.314.2481c0,0-.0068-4.0293-.0068-4.0908,0,0-3.4463.0947-4.3042.0761v4.0557s-.4395.0186-4.3037-.0644l-.0064-4.05s1.8306.0761,4.3.0556V16.541s2.6914-.0312,4.3081-.1123l-.0009-4.0976s-1.3428.0537-4.2969.0537V8.3242c2.8144.01,2.8135-.03,4.3032-.0879,0,0,.0171-5.6923.0171-6.8906A185.9508,185.9508,0,0,1-.001-.001S-1.6875,26.0835,23.002,52.7739c0,0,2.1269-2.1172,3.3423-3.5966,0,0-2.667.1777-2.9737.1709V45.273s2.4087,0,4.3467-.1622c0,0,.019-3.0761-.0039-4.1054,0,0,1.271-.0293,4.3184-.3975l-.01-4.06s-2.7353.2959-4.3076.3721l-.0088-4.1025s-3.1475.1435-4.3418.1142l.0073-4.1132s3.1021-.0127,4.3262-.1l.0083,4.0987s2.55-.1289,4.313-.3272l-.0108-4.0625s2.6412-.2275,4.3028-.459l-.0088-3.9936L40.4,23.4785a38.79,38.79,0,0,0,.18-3.9443s-3.7339.4189-4.2822.457l-.0117-3.99L32,16.2637S29.6411,16.3858,27.687,16.4307ZM45.0156.2324c-2.68.3887-4.4751.5723-4.4751.5723l.0162,3.1328,4.4589-.1435A16.8048,16.8048,0,0,0,45.0156.2324Zm-13.0273,11.98-.0132-4.0556c-.4136.0068-4.2827.08-4.2827.08l-.0063,4.0948C28.2373,12.3447,31.9883,12.2119,31.9883,12.2119Zm4.2876-4.1894s-.0083-3.5811-.0078-3.9912c0,0-3.667.0546-4.2954.0625l.01,4.06S34.1773,8.0977,36.2759,8.0225Zm-.8286,28.0923a17.0834,17.0834,0,0,0,1.5063-4.0362l-4.9355.4121.0034,4.0576ZM40.5581,7.834c.02,1.3232.0074,3.9023.0074,3.9023,2.6933-.1572,3.9794-.3466,3.9794-.3466A22.7063,22.7063,0,0,0,44.814,7.624C42.3843,7.751,40.5581,7.834,40.5581,7.834Z"/><path class="b" d="M58.2578,9.45a6.927,6.927,0,0,1,4.149,1.0957,7.7243,7.7243,0,0,1,3.0752,6.5234c0,4.6084-2.8545,7.6192-7.4664,7.6192H53.0322V9.45ZM55.7769,22.4688h2.3056c2.7872,0,4.4122-1.9737,4.4122-5.4229,0-3.4473-1.625-5.4219-4.4341-5.4219H55.7769Z"/><path class="b" d="M70.0484,9.45v9.7686c0,2.3945.9,3.5146,2.9638,3.5146,2.11,0,3.0323-1.1416,3.0323-3.5566V9.45h2.2587v9.8564c0,3.7989-1.8212,5.6875-5.5546,5.6875a5.49,5.49,0,0,1-4.6758-2.0859,6.1989,6.1989,0,0,1-.791-3.623V9.45Z"/><path class="b" d="M83.7066,9.45v7.9473L89.6782,9.45h2.7012l-3.9736,5.2481,5.1582,9.99H90.6206l-3.9941-7.8819-2.92,3.71v4.1719H81.0943V9.45Z"/><path class="b" d="M105.5532,9.45V11.624H97.979v4.0616h6.0371v2.0615H97.979v4.7217h7.7285v2.22H95.2993V9.45Z"/><path class="b" d="M55.7837,30.2808c-1.5474,0-2.5967,1.4121-2.5967,3.8886S54.2232,38.06,55.7837,38.06c1.1978,0,2.0064-.7793,2.3687-2.3008l1.0366.2265c-.4443,1.9913-1.6279,3.045-3.4053,3.045-2.3418,0-3.8349-1.8194-3.8349-4.8614a5.3089,5.3089,0,0,1,1.2778-3.7412,3.4284,3.4284,0,0,1,2.5571-1.1025c1.7774,0,2.9326,1.0215,3.3779,3l-1.0625.2168C57.8023,31.0737,56.9683,30.2808,55.7837,30.2808Z"/><path class="b" d="M60.0366,34.1694c0-3,1.587-4.8437,3.836-4.8437,2.2471,0,3.8349,1.8437,3.8349,4.8437s-1.5878,4.8614-3.8349,4.8614C61.6236,39.0308,60.0366,37.17,60.0366,34.1694Zm6.42,0c0-2.4765-1.0371-3.8886-2.584-3.8886-1.5615,0-2.5987,1.4121-2.5987,3.8886S62.3111,38.06,63.8726,38.06,66.4566,36.645,66.4566,34.1694Z"/><path class="b" d="M69.0816,29.5122h1.6406l2.8525,7.835,2.8272-7.835h1.6289v9.34H76.94V30.5483l-3.0694,8.3038h-.7929l-3.0284-8.3545v8.3545h-.9677Z"/><path class="b" d="M80.1822,29.5122H83.32c2.0713,0,3.1875,1.0361,3.1875,2.8682,0,1.5625-1.1972,2.6933-3.2421,2.6933H81.2993v3.7784H80.1822Zm2.9619,4.59c1.3974,0,2.1132-.6338,2.1132-1.8545,0-1.0537-.7412-1.7784-2.0332-1.7784H81.2993v3.6329Z"/><path class="b" d="M88.6734,29.5122v5.9365c0,1.7627.6054,2.6114,2.0742,2.6114,1.5469,0,2.1543-.8487,2.1543-2.6114V29.5122h.9551v5.9365c0,2.4092-1.01,3.5938-3.2041,3.5938-2.1661,0-3.1221-1.1729-3.1221-3.5938V29.5122Z"/><path class="b" d="M98.645,38.8521H97.4907V30.4829H94.8648v-.9707h6.4082v.9707H98.645Z"/><path class="b" d="M102.3609,29.5122h5.9209v.9317H103.479v3.0244h3.7823v.9043H103.479v3.5117h4.9239v.9678h-6.042Z"/><path class="b" d="M109.6958,29.5122h3.2285c2.2491,0,3.3789.916,3.3789,2.6367a2.4205,2.4205,0,0,1-1.7353,2.3868l1.8848,4.3164h-1.1465l-1.7871-4.1036h-2.708v4.1036h-1.1153Zm1.1153.957v3.35h1.98c1.5332,0,2.2871-.5381,2.2871-1.6817,0-1.0635-.7539-1.668-2.1923-1.668Z"/><path class="b" d="M52.9033,50.2476a2.6,2.6,0,0,0,2.6661,1.9785c1.3325,0,2.2065-.74,2.2065-1.6153,0-1.1308-.78-1.44-2.356-1.8583a5.2649,5.2649,0,0,1-2.5024-1.0489,2.0646,2.0646,0,0,1-.6728-1.5469c0-1.5341,1.2514-2.68,3.1215-2.68a3.307,3.307,0,0,1,3.4195,2.3554l-1.0918.2569a2.231,2.231,0,0,0-2.3277-1.6407c-1.1958,0-1.9375.6592-1.9375,1.545a1.18,1.18,0,0,0,.5249,1.0088,6.8224,6.8224,0,0,0,2.0186.7128c2.02.58,3.0019,1.2276,3.0019,2.7745,0,1.5878-1.32,2.7041-3.3789,2.7041a3.6563,3.6563,0,0,1-3.8076-2.73Z"/><path class="b" d="M63.9126,44.4487c-1.5469,0-2.5976,1.4092-2.5976,3.8868,0,2.4755,1.0351,3.8906,2.5976,3.8906,1.1983,0,2.0059-.7822,2.3692-2.3028l1.0341.23c-.4423,1.9913-1.6259,3.0411-3.4033,3.0411-2.3428,0-3.8359-1.8164-3.8359-4.8584a5.2893,5.2893,0,0,1,1.2793-3.7383,3.4169,3.4169,0,0,1,2.5566-1.1035c1.7774,0,2.9346,1.0214,3.3779,3l-1.0634.2129C65.9312,45.24,65.0982,44.4487,63.9126,44.4487Z"/><path class="b" d="M68.8111,43.6782h1.1572V53.02H68.8111Z"/><path class="b" d="M72.31,43.6782H78.232v.93H73.4273v3.0283h3.78v.8995h-3.78v3.5136h4.9248V53.02H72.31Z"/><path class="b" d="M79.6978,43.6782h1.5068l4.4014,7.6993V43.6782h.9424V53.02H85.4029l-4.7764-8.3174V53.02h-.9287Z"/><path class="b" d="M91.5679,44.4487c-1.5479,0-2.5957,1.4092-2.5957,3.8868,0,2.4755,1.0351,3.8906,2.5957,3.8906,1.1973,0,2.0059-.7822,2.3682-2.3028l1.0361.23c-.4443,1.9913-1.6279,3.0411-3.4043,3.0411-2.3428,0-3.8359-1.8164-3.8359-4.8584a5.2848,5.2848,0,0,1,1.2793-3.7383,3.4152,3.4152,0,0,1,2.5566-1.1035c1.7764,0,2.9336,1.0214,3.3779,3l-1.0635.2129C93.5855,45.24,92.7534,44.4487,91.5679,44.4487Z"/><path class="b" d="M96.3325,43.6782h5.9209v.93H97.45v3.0283h3.7823v.8995H97.45v3.5136h4.9239V53.02H96.3325Z"/></svg>