<svg xmlns="http://www.w3.org/2000/svg" width="316.33" height="63" viewBox="0 0 316.33 63"><defs><style>.a{fill:#4967a9;}</style></defs><title>fb-family</title><path class="a" d="M27.33,11.3c-3.62,0-4.64,1.57-4.64,5.11v5.82h9.6l-.94,9.44H22.69V60.41H11.12V31.76H3.33V22.32h7.79V16.66C11.12,7.06,15,2,25.68,2a56.0644,56.0644,0,0,1,6.77.39V11.3Zm5.74,28.88c0-10.62,5-18.65,15.66-18.65,5.74,0,9.29,3,11,6.69V22.4h11.1V60.56H59.67V54.82c-1.57,3.7-5.19,6.61-11,6.61C38.11,61.43,33,53.4,33,42.78v-2.6ZM44.64,42.7c0,5.67,2,9.44,7.48,9.44,4.72,0,7.16-3.46,7.16-8.89V39.4c0-5.43-2.44-8.89-7.16-8.89-5.35,0-7.48,3.78-7.48,9.44ZM94.77,21.53c4.49,0,8.73.94,11.1,2.6l-2.6,8.11a18.3215,18.3215,0,0,0-7.71-1.73c-6.22,0-9,3.62-9,9.76v2.28c0,6.14,2.75,9.76,9,9.76a18.62,18.62,0,0,0,7.71-1.73l2.6,8.18c-2.36,1.57-6.61,2.6-11.1,2.6C81.23,61.27,75.1,54,75.1,42.23V40.5C75.1,28.77,81.23,21.53,94.77,21.53Zm12.59,21.32V39.48c0-10.86,6.14-17.94,18.73-17.94,11.88,0,17.08,7.24,17.08,17.78v6.06H118.85c.24,5.19,2.6,7.55,9,7.55a31.9,31.9,0,0,0,12.28-2.36l2,7.95c-3.07,1.57-9.29,2.83-14.79,2.83-14.56,0-20-7.32-20-18.49Zm11.57-5h13.93v-.94c0-4.17-1.65-7.48-6.77-7.48S118.93,32.73,118.93,37.85Zm67,4.72c0,10.62-5.11,18.65-15.74,18.65-5.74,0-9.76-2.91-11.41-6.61v5.74h-10.9V3.12l11.57-1v25.5c1.65-3.38,5.35-6.06,10.78-6.06,10.54,0,15.74,8,15.74,18.65Zm-11.49-2.6c0-5.35-2-9.36-7.63-9.36-4.72,0-7.32,3.38-7.32,8.81v4c0,5.43,2.6,8.81,7.32,8.81,5.51,0,7.63-4,7.63-9.36Zm15.34,2.36V40.42c0-11,6.22-18.89,19-18.89s19,7.95,19,18.89v1.89c0,11-6.22,18.89-19,18.89s-19-7.87-19-18.89Zm26.44-2.68c0-5-2-9-7.48-9s-7.48,4-7.48,9v3.54c0,5,2,9,7.48,9s7.48-4,7.48-9Zm15.42,2.68V40.42c0-11,6.22-18.89,19-18.89s19,7.95,19,18.89v1.89c0,11-6.22,18.89-19,18.89s-18.95-7.88-18.95-18.89Zm26.44-2.68c0-5-2-9-7.48-9s-7.48,4-7.48,9v3.54c0,5,2,9,7.48,9s7.48-4,7.48-9Zm27.46.87L297,22.32h12.28l-12,18.81,12.43,19.36H297.47L285.59,41.84V60.49H274V3.12l11.57-1V40.5Z"/></svg>