<svg xmlns="http://www.w3.org/2000/svg" fill-rule="evenodd" clip-rule="evenodd" image-rendering="optimizeQuality" shape-rendering="geometricPrecision" text-rendering="geometricPrecision" viewBox="0 0 2030 433"><defs><style>.fil0{fill:#737373}</style></defs><g id="Layer_x0020_1"><g id="_710120288"><path d="M717 250l-12 34h-1c-2-8-6-20-12-34L627 87h-64v260h42V187v-36c0-7-1-12-1-16h1c2 10 4 17 6 22l78 189h29l78-191c1-4 3-13 5-20h1c-1 19-2 36-2 46v165h44V87h-61l-66 163zm170-90h43v186h-43V160zm22-79c-7 0-13 3-19 8-5 4-7 10-7 18 0 7 2 13 7 18 6 4 12 7 19 7s14-3 18-7c5-5 8-11 8-18s-3-13-8-18c-4-5-10-8-18-8zm176 77c-8-1-16-2-24-2-20 0-38 4-53 13-15 8-27 20-35 36-8 15-12 33-12 53 0 18 4 34 11 48 8 14 19 26 33 34 14 7 30 11 48 11 21 0 39-4 53-12h1v-41l-2 2c-6 4-14 8-21 11-8 2-15 4-21 4-18 0-31-5-41-16s-15-26-15-44c0-20 5-35 15-46 11-11 24-17 41-17 14 0 29 5 42 15l2 1v-43h-1c-5-2-12-5-21-7zm145-1c-11 0-21 3-30 10-7 6-12 15-17 25v-32h-44v186h44v-95c0-16 3-30 11-39 7-10 16-15 28-15 4 0 8 1 13 1 5 2 8 3 10 5l2 1v-44h-1c-3-2-9-3-16-3zm119-1c-31 0-55 9-73 27-17 18-26 42-26 73 0 29 9 52 26 70 17 16 40 25 68 25 30 0 54-9 71-27 18-18 26-43 26-72 0-30-8-53-24-71-16-17-39-25-68-25zm35 143c-8 10-21 15-37 15s-29-5-38-16c-9-10-13-25-13-44 0-20 5-35 13-46 9-11 22-16 38-16 15 0 27 5 36 15 9 11 13 26 13 46s-4 36-12 46zm155-62c-14-6-23-10-27-14-3-3-5-8-5-14 0-5 2-10 7-13 5-4 11-5 19-5s15 1 23 3c7 2 14 5 19 9l2 2v-41l-1-1c-5-2-12-4-20-5-8-2-15-2-21-2-21 0-38 5-52 16-13 10-20 24-20 41 0 8 2 16 5 22 3 7 7 13 13 18s15 10 27 15c10 4 18 8 22 10 5 3 8 6 11 9 1 2 2 6 2 10 0 12-9 18-28 18-8 0-15-1-25-4-9-3-17-7-24-12l-2-2v43h1c7 3 14 5 24 8 9 1 18 3 25 3 23 0 41-5 54-16 14-11 21-25 21-43 0-12-4-23-11-32-10-8-22-16-39-23zm165-81c-31 0-55 9-72 27s-26 42-26 73c0 29 9 52 25 70 17 16 40 25 69 25s53-9 70-27c18-18 26-43 26-72 0-30-8-53-24-71-16-17-39-25-68-25zm35 143c-9 10-21 15-37 15s-29-5-38-16c-9-10-13-25-13-44 0-20 5-35 13-46 9-11 22-16 38-16 15 0 27 5 36 15 9 11 13 26 13 46s-4 36-12 46zM2030 196v-36h-44v-55h-1l-42 13h-1v42h-66v-24c0-10 3-19 7-24 5-6 12-8 21-8 6 0 12 1 19 4l2 1V71h-1c-6-2-14-3-24-3-14 0-25 3-35 8-11 5-19 13-24 23-6 11-9 22-9 35v26h-31v36h31v150h44V196h66v96c0 39 18 59 55 59 6 0 13-1 19-2 6-2 11-3 14-5v-36l-2 1c-2 2-5 3-9 4-3 1-6 2-8 2-9 0-15-2-20-7-4-5-6-13-6-24v-88h45z" class="fil0"/><path fill="#f25022" d="M0 0h206v206H0z"/><path fill="#7fba00" d="M228 0h206v206H228z"/><path fill="#00a4ef" d="M0 227h206v206H0z"/><path fill="#ffb900" d="M228 227h206v206H228z"/></g></g></svg>