<svg id="e6d3f5b2-20fd-4ad9-8891-06ae93bfe7fc" data-name="Layer 1" xmlns="http://www.w3.org/2000/svg" viewBox="0 0 387.4252 130.4307"><defs><style>.\31 59f47d2-d3c5-4e62-8191-451edc674c2b{fill:#f57f29;}.\33 3382f8d-a4c7-4c98-9acd-a16e76f90889{fill:#e0601f;}.\31 4847775-d81d-4869-bc2d-84bb0c2444d3{fill:#fdb515;}.\33 8cf9f69-551c-402d-8833-73a702249f51{fill:#b3b2b1;}.\39 6cb2834-1f39-433e-b180-16d23003d076{fill:#8b8b8e;}.\38 f50734e-2984-4a1f-856b-0dfba7ef9abd{fill:#d2d0ce;}.\30 e8c32b3-7127-4945-94a8-d2d04b6a84df{fill:#e09e14;}.e5be517c-ac87-4f77-b782-3060c0711d6f{fill:#ffd600;}.c8beee89-a613-44ce-89be-f305bcd4a33d{fill:#f2b411;}.\39 95bce42-b896-46dd-b832-f34ee67a8196{fill:#55565a;}</style></defs><title>optum</title><path class="159f47d2-d3c5-4e62-8191-451edc674c2b" d="M83.9833,80.3049C82.314,86.76,80.669,93.4234,79.067,100.2141c7.2006,4.6488,14.2568,9.2351,21.2867,13.1654C94.9727,103.1779,89.57,91.9376,83.9833,80.3049Z"/><path class="33382f8d-a4c7-4c98-9acd-a16e76f90889" d="M83.9833,80.3049c6.4353,4.5922,12.7232,9.2449,18.9193,13.5462-.8386,6.2907-1.6948,12.8139-2.5489,19.5284C94.9727,103.1779,89.57,91.9376,83.9833,80.3049Z"/><path class="33382f8d-a4c7-4c98-9acd-a16e76f90889" d="M83.9833,80.3049C82.314,86.76,80.669,93.4234,79.067,100.2141c-7.1918-4.6449-14.53-9.3542-21.9036-13.554A164.4442,164.4442,0,0,1,83.9833,80.3049Z"/><path class="14847775-d81d-4869-bc2d-84bb0c2444d3" d="M83.9833,80.3049c-6.4324-4.5941-13.0141-9.1277-19.6651-13.2024C61.8717,73.5319,59.4858,80.094,57.1634,86.66A164.4442,164.4442,0,0,1,83.9833,80.3049Z"/><path class="159f47d2-d3c5-4e62-8191-451edc674c2b" d="M91.3089,53.857q-1.6429,5.5353-3.3007,11.4609c5.7706,4.6312,11.3809,9.3874,16.8586,13.96C100.4171,71.2924,95.9323,62.7055,91.3089,53.857Z"/><path class="33382f8d-a4c7-4c98-9acd-a16e76f90889" d="M91.3089,53.857c5.1925,4.6819,10.2143,9.5124,15.0778,14.27q-.7365,5.3978-1.52,11.1505C100.4171,71.2924,95.9323,62.7055,91.3089,53.857Z"/><path class="14847775-d81d-4869-bc2d-84bb0c2444d3" d="M83.9833,80.3049c1.3287-5.1427,2.6758-10.1528,4.0249-14.987,5.7706,4.6312,11.3809,9.3874,16.8586,13.96A105.0833,105.0833,0,0,0,83.9833,80.3049Z"/><path class="159f47d2-d3c5-4e62-8191-451edc674c2b" d="M83.9833,80.3049c6.4353,4.5922,12.7232,9.2449,18.9193,13.5462q1.0015-7.5152,1.9642-14.5732A105.0833,105.0833,0,0,0,83.9833,80.3049Z"/><path class="38cf9f69-551c-402d-8833-73a702249f51" d="M91.3089,53.857q1.3662-4.6009,2.7179-8.8993c4.6839,4.7152,9.194,9.5866,13.5372,14.4462A71.73,71.73,0,0,0,91.3089,53.857Z"/><path class="96cb2834-1f39-433e-b180-16d23003d076" d="M91.3089,53.857c5.1925,4.6819,10.2143,9.5124,15.0778,14.27q.6107-4.4926,1.1773-8.7235A71.73,71.73,0,0,0,91.3089,53.857Z"/><path class="96cb2834-1f39-433e-b180-16d23003d076" d="M91.3089,53.857q1.3662-4.6009,2.7179-8.8993c-4.683-4.7152-9.5407-9.27-14.5292-13.5032C83.5382,38.9714,87.4713,46.504,91.3089,53.857Z"/><path class="8f50734e-2984-4a1f-856b-0dfba7ef9abd" d="M91.3089,53.857c-5.1867-4.682-10.5452-9.2176-16.0248-13.39,1.397-3.1063,2.8058-6.119,4.2135-9.0125C83.5382,38.9714,87.4713,46.504,91.3089,53.857Z"/><path class="33382f8d-a4c7-4c98-9acd-a16e76f90889" d="M44.3982,56.6373c-3.1248,6.5172-6.14,13.0834-9.0983,19.5109A151.5136,151.5136,0,0,1,57.1634,86.66C52.952,76.3707,48.67,66.2823,44.3982,56.6373Z"/><path class="159f47d2-d3c5-4e62-8191-451edc674c2b" d="M44.3982,56.6373a151.9449,151.9449,0,0,1,19.92,10.4652C61.8717,73.5319,59.4858,80.094,57.1634,86.66,52.952,76.3707,48.67,66.2823,44.3982,56.6373Z"/><path class="0e8c32b3-7127-4945-94a8-d2d04b6a84df" d="M44.3982,56.6373c-3.1248,6.5172-6.14,13.0834-9.0983,19.5109C28.2124,73.52,21.4267,71.95,15.5126,71.964A91.379,91.379,0,0,1,44.3982,56.6373Z"/><path class="e5be517c-ac87-4f77-b782-3060c0711d6f" d="M44.3982,56.6373a71.8432,71.8432,0,0,0-18.83-5.43C22.072,58.2187,18.7527,65.2163,15.5126,71.964A91.379,91.379,0,0,1,44.3982,56.6373Z"/><path class="e5be517c-ac87-4f77-b782-3060c0711d6f" d="M58.5985,29.2483c-2.221,3.8814-4.4037,7.9035-6.5407,12.0075a85.3943,85.3943,0,0,0-17.785-6.7028A69.3465,69.3465,0,0,1,58.5985,29.2483Z"/><path class="c8beee89-a613-44ce-89be-f305bcd4a33d" d="M58.5985,29.2483A97.9593,97.9593,0,0,0,41.9294,21.454c-2.6368,4.2408-5.1886,8.6319-7.6566,13.099A69.3465,69.3465,0,0,1,58.5985,29.2483Z"/><path class="c8beee89-a613-44ce-89be-f305bcd4a33d" d="M44.3982,56.6373c2.4875-5.1917,5.0374-10.35,7.66-15.3815a85.3943,85.3943,0,0,0-17.785-6.7028C37.6,41.5506,40.9942,48.9524,44.3982,56.6373Z"/><path class="0e8c32b3-7127-4945-94a8-d2d04b6a84df" d="M44.3982,56.6373a71.8432,71.8432,0,0,0-18.83-5.43c2.7852-5.5841,5.6806-11.1778,8.705-16.6545C37.6,41.5506,40.9942,48.9524,44.3982,56.6373Z"/><path class="96cb2834-1f39-433e-b180-16d23003d076" d="M58.5985,29.2483c1.845-3.2255,3.72-6.3553,5.6123-9.364a162.5315,162.5315,0,0,1,15.2868,11.57A74.2314,74.2314,0,0,0,58.5985,29.2483Z"/><path class="38cf9f69-551c-402d-8833-73a702249f51" d="M58.5985,29.2483A158.84,158.84,0,0,1,75.2841,40.467c1.397-3.1063,2.8058-6.119,4.2135-9.0125A74.2314,74.2314,0,0,0,58.5985,29.2483Z"/><path class="c8beee89-a613-44ce-89be-f305bcd4a33d" d="M58.5985,29.2483c1.845-3.2255,3.72-6.3553,5.6123-9.364a109.1251,109.1251,0,0,0-15.5493-8.6689C51.99,17.0142,55.3125,23.059,58.5985,29.2483Z"/><path class="0e8c32b3-7127-4945-94a8-d2d04b6a84df" d="M58.5985,29.2483A97.9593,97.9593,0,0,0,41.9294,21.454c2.1867-3.5261,4.436-6.9527,6.7321-10.2386C51.99,17.0142,55.3125,23.059,58.5985,29.2483Z"/><path class="995bce42-b896-46dd-b832-f34ee67a8196" d="M144.8882,119.2154c-13.8351,0-23.488-10.4886-23.488-23.23a23.0937,23.0937,0,0,1,23.6169-23.3591c13.836,0,23.4889,10.4906,23.4889,23.23A23.094,23.094,0,0,1,144.8882,119.2154Zm0-39.3185c-8.9442,0-15.1862,7.144-15.1862,15.9593,0,8.8173,6.37,16.0883,15.3151,16.0883s15.187-7.1422,15.187-15.96C160.2041,87.17,153.8333,79.8969,144.8882,79.8969Z"/><path class="995bce42-b896-46dd-b832-f34ee67a8196" d="M192.7028,103.9648h-8.9451v14.4793h-7.9153V73.3971h17.7615c10.4886,0,17.1181,5.92,17.1181,15.1237C210.722,98.6873,202.6135,103.9648,192.7028,103.9648Zm.2577-23.3592h-9.2028V96.8208h9.2028c5.9852,0,9.7174-3.2821,9.7174-8.1087C202.6779,83.3722,198.88,80.6056,192.9605,80.6056Z"/><path class="995bce42-b896-46dd-b832-f34ee67a8196" d="M236.593,118.4441h-7.9807v-37.71H214.3262V73.3971h36.5519v7.3374H236.593Z"/><path class="995bce42-b896-46dd-b832-f34ee67a8196" d="M296.4406,98.945c0,13.45-7.5932,20.206-19.3693,20.206-11.7118,0-19.176-6.7556-19.176-19.8194V73.3971H265.81V99.0094c0,8.3663,4.3119,12.8706,11.3905,12.8706,7.0142,0,11.3263-4.2466,11.3263-12.5484V73.3971h7.9142Z"/><path class="995bce42-b896-46dd-b832-f34ee67a8196" d="M327.2015,107.3757h-.2577L312.851,86.2677v32.1764h-7.7864V73.3971h8.4307l13.7062,21.3013,13.7063-21.3013h8.43v45.047h-7.9143V86.1388Z"/><path class="995bce42-b896-46dd-b832-f34ee67a8196" d="M358.0078,78.7445v-.039a6.76,6.76,0,1,1,13.5193-.0391v.0391a6.76,6.76,0,1,1-13.5193.039Zm12.7422-.039v-.0391a5.9829,5.9829,0,1,0-11.9651.0391v.039a5.9829,5.9829,0,1,0,11.9651-.039Zm-8.5078-3.5348h3.03c1.398,0,2.5252.7381,2.5252,2.0977a2.0915,2.0915,0,0,1-1.6713,2.0586l1.9043,2.6418h-1.36l-1.7091-2.4862H363.33v2.4862h-1.0882Zm2.9131,3.4183c.9711,0,1.5152-.5051,1.5152-1.2431,0-.8155-.5832-1.2041-1.5152-1.2041H363.33V78.589Z"/></svg>