<svg width="198" height="156" xmlns="http://www.w3.org/2000/svg"><g fill="none" fill-rule="evenodd"><path d="M137.932 58.458l15.87-17.805-23.303-5.08 2.375-23.733-21.84 9.586L99 .83 86.972 21.424 65.137 11.83l2.369 23.734L44.2 40.64l15.867 17.808-15.87 17.805 23.303 5.08-2.374 23.732 21.838-9.585L99 116.075l12.027-20.591 21.837 9.59-2.369-23.732 23.304-5.076-15.867-17.808zm7.698 13.394l-13.746-4.702-9.12-11.854 12.13 4.507 10.736 12.049zm-36.828 21.17l-8.221 14.076V92.173l8.545-12.469-.324 13.319zm-14.4-58.354l-14.146-5.031-8.464-11.428 14.835 6.517 7.775 9.942zm16.978-9.94l14.834-6.511-8.47 11.42-14.142 5.03 7.778-9.938zm15.874 11.518l-7.377 10.46.418-15.199 8.592-11.586-1.633 16.325zM99 88.886l-9.898-14.441L99 61.015l9.897 13.43L99 88.886zM81.397 50.75l-.481-17.522 16.503 5.868v17.052L81.397 50.75zm19.184-11.654l16.503-5.868-.482 17.522-16.021 5.398V39.096zM70.75 36.24l-1.63-16.32 8.584 11.587.417 15.196-7.37-10.463zm25.69 22.918l-9.894 13.425-16.808-4.955 10.673-13.872 16.03 5.401zM88.871 79.7l8.548 12.472V107.1L89.19 93.02l-.319-13.32zm12.687-20.544l16.03-5.401 10.673 13.87-16.809 4.956-9.894-13.425zM147.84 42.59L135.353 56.6l-14.725-5.47 8.846-12.544 18.365 4.004zM99 7.1l9.473 16.211L99 35.415l-9.467-12.106L99 7.1zM50.163 42.578l18.368-4 8.84 12.55-14.723 5.463-12.485-14.013zm12.941 17.217l12.135-4.502-9.122 11.855-13.752 4.696 10.74-12.049zM53.06 74.95l14.054-4.798 14.638 4.314-12.612 3.99-16.08-3.506zm17.624 6.334l14.948-4.73.381 15.89-17.2 7.553 1.87-18.713zm41.295 11.165l.387-15.894 14.946 4.735 1.868 18.713-17.2-7.554zm16.877-13.987l-12.612-3.995 14.643-4.316 14.056 4.808-16.087 3.503z" fill="#D10"/><path d="M0 128.186h6.825l3.212 17.73 4.734-17.73h6l5.62 18.04 3.286-18.04h6.485l-5.548 26.53h-7.487l-4.979-16.552-5.093 16.552H5.2L0 128.186zm198 26.53h-6.825l-3.207-17.795-4.738 17.795h-6.003l-5.595-18.037-3.308 18.037h-6.487l5.549-26.53h7.486l4.978 16.565 5.098-16.565h7.851l5.201 26.53zm-147.545-26.99c8.635 0 13.14 5.21 13.14 13.724 0 8.438-4.58 13.719-13.14 13.719-8.557 0-13.137-5.281-13.137-13.719 0-8.513 4.504-13.723 13.137-13.723zm0 22.199c4.243 0 5.93-4.105 5.93-8.475 0-4.602-1.687-8.477-5.93-8.477-4.243 0-5.931 3.875-5.931 8.477 0 4.37 1.688 8.475 5.93 8.475zM67.5 128.182h6.983v21.286h10.811v5.242H67.5v-26.528zm20.685 0h17.525v5.018H95.166v5.818h10.094v5.013H95.166v10.68h-6.981v-26.529zm21.176 0h12.462c4.656 0 8.448 2.127 8.448 6.692 0 3.536-1.652 5.89-5.03 6.689v.077c2.25.608 2.403 2.623 3.716 5.854l2.55 7.216h-7.28l-1.5-4.786c-1.43-4.56-2.328-5.701-4.918-5.701h-1.467v10.487h-6.981v-26.528zm6.98 11.026h1.844c2.25 0 5.104-.077 5.104-3.081 0-2.469-2.44-2.927-5.104-2.927h-1.843v6.008zm25.744-11.026h8.561l10.097 26.528h-7.658l-1.952-5.66H141.3l-2.066 5.66h-7.097l9.948-26.528zm4.281 5.476h-.073l-3.378 10.373h6.566l-3.115-10.373z" fill="#333"/></g></svg>