<?xml version="1.0" encoding="utf-8"?>
<svg version="1.1" xmlns="http://www.w3.org/2000/svg" xmlns:xlink="http://www.w3.org/1999/xlink" x="0px" y="0px"
	 viewBox="0 0 326.5 116.1">
<style type="text/css">
	.st0{fill:#DD1100;}
	.st1{fill:#333333;}
</style>
<path class="st0" d="M95.1,58.5L111,40.7l-23.3-5.1l2.4-23.7l-21.8,9.6l-12-20.6l-12,20.6l-21.8-9.6l2.4,23.7L1.6,40.7l15.9,17.8
	L1.4,76.3l23.3,5.1l-2.4,23.7l21.8-9.6l12,20.6l12-20.6l21.8,9.6l-2.4-23.7l23.3-5.1L95.1,58.5L95.1,58.5z M102.8,71.9l-13.7-4.7
	L80,55.3l12.1,4.5L102.8,71.9z M66,93l-8.2,14.1V92.2l8.5-12.5L66,93L66,93z M51.6,34.7l-14.1-5L29,18.2l14.8,6.5L51.6,34.7z
	 M68.6,24.7l14.8-6.5l-8.5,11.4l-14.1,5L68.6,24.7L68.6,24.7z M84.4,36.2L77,46.7l0.4-15.2L86,19.9L84.4,36.2z M56.2,88.9l-9.9-14.4
	L56.2,61l9.9,13.4L56.2,88.9z M38.6,50.8l-0.5-17.5l16.5,5.9v17.1L38.6,50.8z M57.8,39.1l16.5-5.9l-0.5,17.5l-16,5.4V39.1z
	 M27.9,36.2l-1.6-16.3l8.6,11.6l0.4,15.2L27.9,36.2L27.9,36.2z M53.6,59.2l-9.9,13.4l-16.8-5l10.7-13.9L53.6,59.2L53.6,59.2z
	 M46.1,79.7l8.5,12.5v14.9L46.4,93L46.1,79.7z M58.8,59.2l16-5.4l10.7,13.9l-16.8,5L58.8,59.2z M105,42.6l-12.5,14l-14.7-5.5
	l8.8-12.5L105,42.6L105,42.6z M56.2,7.1l9.5,16.2l-9.5,12.1l-9.5-12.1L56.2,7.1z M7.4,42.6l18.4-4l8.8,12.5l-14.7,5.5L7.4,42.6z
	 M20.3,59.8l12.1-4.5l-9.1,11.9L9.5,71.9L20.3,59.8L20.3,59.8z M10.3,74.9l14.1-4.8L39,74.4l-12.6,4L10.3,74.9z M27.9,81.3l14.9-4.7
	l0.4,15.9L26,100L27.9,81.3L27.9,81.3z M69.2,92.4l0.4-15.9l14.9,4.7l1.9,18.7L69.2,92.4L69.2,92.4z M86,78.5l-12.6-4L88,70.2
	l14.1,4.8L86,78.5z"/>
<path class="st1" d="M127.1,45.2h6.8l3.2,17.7l4.7-17.7h6l5.6,18l3.3-18h6.5l-5.5,26.5h-7.5l-5-16.6l-5.1,16.6h-7.9L127.1,45.2z
	 M325.1,71.7h-6.8l-3.2-17.8l-4.7,17.8h-6l-5.6-18l-3.3,18H289l5.5-26.5h7.5l5,16.6l5.1-16.6h7.9L325.1,71.7L325.1,71.7z
	 M177.6,44.7c8.6,0,13.1,5.2,13.1,13.7c0,8.4-4.6,13.7-13.1,13.7c-8.6,0-13.1-5.3-13.1-13.7C164.4,49.9,168.9,44.7,177.6,44.7
	L177.6,44.7z M177.6,66.9c4.2,0,5.9-4.1,5.9-8.5c0-4.6-1.7-8.5-5.9-8.5s-5.9,3.9-5.9,8.5C171.6,62.8,173.3,66.9,177.6,66.9
	L177.6,66.9z M194.6,45.2h7v21.3h10.8v5.2h-17.8V45.2z M215.3,45.2h17.5v5h-10.5V56h10.1v5h-10.1v10.7h-7V45.2z M236.5,45.2H249
	c4.7,0,8.4,2.1,8.4,6.7c0,3.5-1.7,5.9-5,6.7v0.1c2.3,0.6,2.4,2.6,3.7,5.9l2.5,7.2h-7.3l-1.5-4.8c-1.4-4.6-2.3-5.7-4.9-5.7h-1.5v10.5
	h-7L236.5,45.2z M243.5,56.2h1.8c2.3,0,5.1-0.1,5.1-3.1c0-2.5-2.4-2.9-5.1-2.9h-1.8L243.5,56.2L243.5,56.2z M269.2,45.2h8.6
	l10.1,26.5h-7.7l-2-5.7h-9.8l-2.1,5.7h-7.1L269.2,45.2z M273.5,50.7L273.5,50.7L270.1,61h6.6L273.5,50.7L273.5,50.7z"/>
</svg>
