<?xml version="1.0" encoding="UTF-8"?>
<svg version="1.1" viewBox="0 0 348.5 116.1" xml:space="preserve" xmlns="http://www.w3.org/2000/svg">
<style type="text/css">.st0{fill:#DD1100;}.st1{fill:#333333;}</style>
<path class="st0" d="M106.1,58.5L122,40.7l-23.3-5.1l2.4-23.7l-21.8,9.6l-12-20.6l-12,20.6l-21.8-9.6l2.4,23.7l-23.3,5.1l15.9,17.8
	L12.4,76.3l23.3,5.1l-2.4,23.7l21.8-9.6l12,20.6l12-20.6l21.8,9.6l-2.4-23.7l23.3-5.1L106.1,58.5L106.1,58.5z M113.8,71.9l-13.7-4.7
	L91,55.3l12.1,4.5L113.8,71.9z M77,93l-8.2,14.1V92.2l8.5-12.5L77,93L77,93z M62.6,34.7l-14.1-5L40,18.2l14.8,6.5L62.6,34.7z
	 M79.6,24.7l14.8-6.5l-8.5,11.4l-14.1,5L79.6,24.7L79.6,24.7z M95.4,36.2l-7.4,10.5l0.4-15.2l8.6-11.6L95.4,36.2z M67.2,88.9
	l-9.9-14.4L67.2,61l9.9,13.4L67.2,88.9z M49.6,50.8l-0.5-17.5l16.5,5.9v17.1L49.6,50.8z M68.8,39.1l16.5-5.9l-0.5,17.5l-16,5.4
	L68.8,39.1z M38.9,36.2l-1.6-16.3l8.6,11.6l0.4,15.2L38.9,36.2L38.9,36.2z M64.6,59.2l-9.9,13.4l-16.8-5l10.7-13.9L64.6,59.2
	L64.6,59.2z M57.1,79.7l8.5,12.5v14.9L57.4,93L57.1,79.7z M69.8,59.2l16-5.4l10.7,13.9l-16.8,5L69.8,59.2z M116,42.6l-12.5,14
	l-14.7-5.5l8.8-12.5L116,42.6L116,42.6z M67.2,7.1l9.5,16.2l-9.5,12.1l-9.5-12.1L67.2,7.1z M18.4,42.6l18.4-4l8.8,12.5l-14.7,5.5
	L18.4,42.6z M31.3,59.8l12.1-4.5l-9.1,11.9l-13.8,4.7L31.3,59.8L31.3,59.8z M21.3,74.9l14.1-4.8l14.6,4.3l-12.6,4L21.3,74.9z
	 M38.9,81.3l14.9-4.7l0.4,15.9L37,100L38.9,81.3L38.9,81.3z M80.2,92.4l0.4-15.9l14.9,4.7l1.9,18.7L80.2,92.4L80.2,92.4z M97,78.5
	l-12.6-4l14.6-4.3l14.1,4.8L97,78.5z"/>
<path class="st1" d="M138.1,45.2h6.8l3.2,17.7l4.7-17.7h6l5.6,18l3.3-18h6.5l-5.5,26.5h-7.5l-5-16.6l-5.1,16.6h-7.9L138.1,45.2z
	 M336.1,71.7h-6.8l-3.2-17.8l-4.7,17.8h-6l-5.6-18l-3.3,18h-6.5l5.5-26.5h7.5l5,16.6l5.1-16.6h7.9L336.1,71.7L336.1,71.7z
	 M188.6,44.7c8.6,0,13.1,5.2,13.1,13.7c0,8.4-4.6,13.7-13.1,13.7c-8.6,0-13.1-5.3-13.1-13.7C175.4,49.9,179.9,44.7,188.6,44.7
	L188.6,44.7z M188.6,66.9c4.2,0,5.9-4.1,5.9-8.5c0-4.6-1.7-8.5-5.9-8.5s-5.9,3.9-5.9,8.5C182.6,62.8,184.3,66.9,188.6,66.9
	L188.6,66.9z M205.6,45.2h7v21.3h10.8v5.2h-17.8V45.2z M226.3,45.2h17.5v5h-10.5V56h10.1v5h-10.1v10.7h-7L226.3,45.2z M247.5,45.2
	h12.5c4.7,0,8.4,2.1,8.4,6.7c0,3.5-1.7,5.9-5,6.7v0.1c2.3,0.6,2.4,2.6,3.7,5.9l2.5,7.2h-7.3l-1.5-4.8c-1.4-4.6-2.3-5.7-4.9-5.7h-1.5
	v10.5h-7L247.5,45.2z M254.5,56.2h1.8c2.3,0,5.1-0.1,5.1-3.1c0-2.5-2.4-2.9-5.1-2.9h-1.8L254.5,56.2L254.5,56.2z M280.2,45.2h8.6
	l10.1,26.5h-7.7l-2-5.7h-9.8l-2.1,5.7h-7.1L280.2,45.2z M284.5,50.7L284.5,50.7L281.1,61h6.6L284.5,50.7L284.5,50.7z"/>
</svg>
