<svg id="5d19901e-b7e2-4b0b-b6d5-ce4f4a4a3669" data-name="Layer 1" xmlns="http://www.w3.org/2000/svg" viewBox="0 0 348.5 116.075"><defs><style>.\35 d803dc4-e32f-4f22-8f52-7f3909a499a6{fill:#d10;}.d2f658e1-63cc-4600-abf5-34d21737b0a7{fill:#333;}</style></defs><title>wolfram</title><path class="5d803dc4-e32f-4f22-8f52-7f3909a499a6" d="M106.1243,58.458l15.87-17.805-23.303-5.08,2.375-23.733-21.84,9.586L67.1923.83,55.1643,21.424,33.3293,11.83l2.369,23.734L12.3923,40.64l15.867,17.808-15.87,17.805,23.303,5.08-2.374,23.732L55.1562,95.48l12.0361,20.595,12.027-20.591,21.8369,9.59-2.369-23.732,23.304-5.076-15.867-17.808Zm7.698,13.394-13.746-4.702-9.12-11.854,12.13,4.507Zm-36.828,21.17-8.221,14.076V92.173l8.545-12.469-.324,13.319Zm-14.4-58.354L48.4482,29.637,39.9843,18.209l14.835,6.517Zm16.978-9.94,14.834-6.511-8.47,11.42-14.142,5.03,7.778-9.938Zm15.874,11.518-7.377,10.46.418-15.199,8.592-11.586Zm-28.254,52.64L57.2942,74.445l9.8981-13.43,9.897,13.43ZM49.5893,50.75l-.481-17.522,16.5029,5.868V56.148Zm19.184-11.654,16.503-5.868L84.7942,50.75l-16.021,5.398ZM38.9423,36.24l-1.63-16.32,8.584,11.587.417,15.196-7.37-10.463Zm25.69,22.918-9.894,13.425L37.93,67.628l10.673-13.872,16.03,5.401ZM57.0633,79.7l8.548,12.472V107.1l-8.229-14.08ZM69.75,59.156l16.03-5.401,10.6731,13.87-16.809,4.956Zm46.282-16.566L103.5452,56.6,88.82,51.13l8.8461-12.544,18.365,4.004ZM67.1923,7.1l9.473,16.211-9.473,12.104L57.7252,23.309ZM18.3552,42.578l18.368-4,8.84,12.55L30.84,56.591Zm12.941,17.217,12.135-4.502-9.122,11.855-13.752,4.696,10.74-12.049ZM21.2523,74.95l14.0539-4.798,14.6381,4.314-12.612,3.99Zm17.624,6.334,14.948-4.73.381,15.89-17.2,7.553,1.87-18.713Zm41.295,11.165.387-15.894,14.946,4.735,1.868,18.713-17.2-7.554Zm16.877-13.987-12.612-3.995,14.643-4.316,14.056,4.808Z"/><path class="d2f658e1-63cc-4600-abf5-34d21737b0a7" d="M138.1107,45.191h6.825l3.212,17.73,4.734-17.73h6l5.62,18.04,3.286-18.04h6.485l-5.548,26.53h-7.487l-4.979-16.552-5.093,16.552h-7.855Zm198,26.53h-6.825l-3.207-17.795-4.738,17.795h-6.003l-5.595-18.037-3.308,18.037h-6.487l5.549-26.53h7.486l4.978,16.565,5.098-16.565h7.851l5.201,26.53Zm-147.545-26.99c8.6351,0,13.14,5.21,13.14,13.724,0,8.438-4.58,13.719-13.14,13.719-8.557,0-13.137-5.281-13.137-13.719,0-8.513,4.504-13.723,13.137-13.723Zm0,22.199c4.243,0,5.93-4.105,5.93-8.475,0-4.602-1.687-8.477-5.93-8.477s-5.931,3.875-5.931,8.477c0,4.37,1.688,8.475,5.93,8.475Zm17.045-21.743h6.983V66.473h10.811v5.242h-17.794Zm20.685,0h17.525v5.018h-10.544v5.818h10.094v5.013h-10.094v10.68h-6.981Zm21.176,0h12.462c4.656,0,8.448,2.127,8.448,6.692,0,3.536-1.652,5.89-5.03,6.689v.077c2.25.608,2.403,2.623,3.716,5.854l2.55,7.216h-7.28l-1.5-4.786c-1.43-4.56-2.3281-5.701-4.918-5.701h-1.4671V71.715h-6.981Zm6.98,11.026h1.8441c2.25,0,5.1039-.077,5.1039-3.081,0-2.469-2.44-2.927-5.104-2.927h-1.843v6.008Zm25.7441-11.026h8.561l10.097,26.528h-7.658l-1.952-5.66h-9.8331l-2.0659,5.66h-7.097Zm4.281,5.476h-.073l-3.378,10.373h6.5659l-3.115-10.373Z"/></svg>