<svg xmlns="http://www.w3.org/2000/svg" xmlns:xlink="http://www.w3.org/1999/xlink" viewBox="0 0 1366 800"><defs><style>.f248642b-5bce-4c95-8824-ff3227a8d426{fill:url(#31127e45-8299-4e92-8226-2ba6b8d934e0);}.ca017cc6-f929-478d-9635-0c26207e167b{fill:url(#675828b4-8abd-49e5-8352-867333fea6fe);}</style><linearGradient id="31127e45-8299-4e92-8226-2ba6b8d934e0" x1="103.3" y1="1" x2="103.3" y2="-799" gradientUnits="userSpaceOnUse"><stop offset="0" stop-color="#5f76cb"/><stop offset="1" stop-color="#3a3d6d"/></linearGradient><linearGradient id="675828b4-8abd-49e5-8352-867333fea6fe" x1="103.3" y1="800" x2="103.3" gradientUnits="userSpaceOnUse"><stop offset="0" stop-color="#a94a64"/><stop offset="1" stop-color="#5f76cb"/></linearGradient></defs><title>tracks-line</title><g id="4ed9aa1e-5fb8-474a-974b-404c4aa4d881" data-name="Layer 2"><path class="f248642b-5bce-4c95-8824-ff3227a8d426" d="M125.3-682.5a21.577,21.577,0,0,0-14.8252-20.32V-799h-15v96.41A21.5552,21.5552,0,0,0,81.3-682.5a21.5552,21.5552,0,0,0,14.1748,20.09V1h15V-662.18A21.577,21.577,0,0,0,125.3-682.5Zm-22,13.5a13.7721,13.7721,0,0,1-14-13.5,13.7721,13.7721,0,0,1,14-13.5,13.7721,13.7721,0,0,1,14,13.5A13.7721,13.7721,0,0,1,103.3-669Z"/><path class="ca017cc6-f929-478d-9635-0c26207e167b" d="M125.3,116.5a21.577,21.577,0,0,0-14.8252-20.32V0h-15V96.41a21.3237,21.3237,0,0,0,0,40.1792V800h15V136.82A21.577,21.577,0,0,0,125.3,116.5Zm-22,13.5a13.5089,13.5089,0,1,1,14-13.5A13.7721,13.7721,0,0,1,103.3,130Z"/></g></svg>