<svg id="939dda7c-1059-4ba5-aa65-a5bd6e7604f2" data-name="Layer 1" xmlns="http://www.w3.org/2000/svg" viewBox="0 0 765 464">
    <title>tracks</title>
    <rect width="870" height="464" style="fill-opacity:0" />
    <rect width="870" height="46" style="fill-opacity:0" />
    <path d="M0,23A23.01,23.01,0,0,1,23.02,0h83.96a23,23,0,1,1,0,46H23.02A23.01,23.01,0,0,1,0,23Z" style="fill:#3549a2" />
    <rect x="121" y="18" width="749" height="10" style="fill:#3549a2" />
    <path d="M25.479,30.0988v-9.73h2.0649v9.73Z" style="fill:#fff" />
    <path d="M38.6344,30.0988H36.01l-4.2364-7.3606h-.06q.1264,1.95.1265,2.7819v4.5787H29.9951v-9.73H32.6l4.23,7.2873h.0466q-.1-1.8966-.1-2.682V20.369h1.8584Z" style="fill:#fff" />
    <path d="M46.7008,30.0988H41.0923v-9.73h5.6085v1.69H43.1572v2.1363h3.2972v1.69H43.1572v2.509h3.5436Z" style="fill:#fff" />
    <path d="M57.5782,25.2206a6.1362,6.1362,0,0,1-.6128,2.8816A3.7028,3.7028,0,0,1,55.18,29.7993l2.3447,2.6154H54.8805l-1.7851-2.1828h-.1532a4.4468,4.4468,0,0,1-3.4371-1.2978,5.2972,5.2972,0,0,1-1.199-3.7268A5.222,5.222,0,0,1,49.5051,21.5a4.5029,4.5029,0,0,1,3.45-1.2845,4.4248,4.4248,0,0,1,3.43,1.2911A5.2812,5.2812,0,0,1,57.5782,25.2206Zm-7.1073,0a4.0615,4.0615,0,0,0,.62,2.4557,2.1682,2.1682,0,0,0,1.8518.8252q2.4711,0,2.4712-3.2809,0-3.2877-2.4579-3.2876a2.18,2.18,0,0,0-1.8584.8318A4.0287,4.0287,0,0,0,50.4709,25.2206Z" style="fill:#fff" />
    <path d="M67.523,20.369v6.2957a3.6075,3.6075,0,0,1-.4863,1.89,3.1213,3.1213,0,0,1-1.3921,1.2445,4.994,4.994,0,0,1-2.1581.4326,4.1436,4.1436,0,0,1-2.9175-.9584A3.42,3.42,0,0,1,59.53,26.6381V20.369h2.0583v5.9563a2.4938,2.4938,0,0,0,.4529,1.6505,1.8841,1.8841,0,0,0,1.4987.5257,1.8378,1.8378,0,0,0,1.4655-.5257,2.5076,2.5076,0,0,0,.46-1.6638V20.369Z" style="fill:#fff" />
    <path d="M75.8692,30.0988l-.7061-2.316h-3.55l-.706,2.316H68.682l3.4371-9.77h2.5245l3.45,9.77ZM74.67,26.0525q-.9792-3.1479-1.1057-3.56-.12-.4127-.1732-.6522-.22.8518-1.2589,4.2127Z" style="fill:#fff" />
    <path d="M79.3262,30.0988v-9.73h2.0649v8.0261h3.95v1.7037Z" style="fill:#fff" />
    <path d="M87.04,30.0988v-9.73h2.0649v9.73Z" style="fill:#fff" />
    <path d="M95.3125,30.0988H93.2476V22.086H90.6032V20.369h7.3537v1.717H95.3125Z" style="fill:#fff" />
    <path d="M102.486,24.3754l2.032-4.0064h2.225l-3.231,5.943v3.7868h-2.051v-3.72l-3.231-6.01h2.238Z" style="fill:#fff" />
    <path d="M296,4c10.604,0,19,8.32,19,18.34s-8.396,18.34-19,18.34-19-8.32-19-18.34S285.396,4,296,4Z" style="fill:#fff;stroke:#3549a2;stroke-width:8px" />
    <path d="M495,4c10.604,0,19,8.32,19,18.34s-8.396,18.34-19,18.34-19-8.32-19-18.34S484.396,4,495,4Z" style="fill:#fff;stroke:#3549a2;stroke-width:8px" />
    <rect x="669" width="47" height="45" style="fill-opacity:0" />
    <g id="inequality-more" style="cursor:pointer">
    <circle cx="691.5" cy="22.5" r="22.5" style="fill:#3549a2" />
    <path d="M699.061,21.9393a1.5015,1.5015,0,0,1,0,2.1214l-9.546,9.5459a1.5,1.5,0,1,1-2.122-2.1213L695.879,23l-8.486-8.4853a1.5,1.5,0,1,1,2.122-2.1213ZM697,21.5h1v3h-1Z" style="fill:#fff" />
    </g>
    <rect y="138" width="869" height="48" style="fill-opacity:0" />
    <path d="M0,161a23.01,23.01,0,0,1,23.02-23h83.96a23,23,0,1,1,0,46H23.02A23.01,23.01,0,0,1,0,161Z" style="fill:#5c5299" />
    <path d="M45.4353,168.099H39.8267v-9.73h5.6086v1.69H41.8916v2.137h3.2972v1.69H41.8916v2.509h3.5437Z" style="fill:#fff" />
    <path d="M56.1128,168.099H53.4884l-4.2364-7.361h-.06q.1266,1.95.1266,2.782v4.579H47.4735v-9.73h2.6044l4.23,7.287h.0466q-.1-1.896-.1-2.682v-4.605h1.8584Z" style="fill:#fff" />
    <path d="M64.1792,168.099H58.5707v-9.73h5.6085v1.69H60.6356v2.137h3.2971v1.69H60.6356v2.509h3.5436Z" style="fill:#fff" />
    <path d="M68.2823,162.688h.6661a2.5538,2.5538,0,0,0,1.4455-.326,1.1633,1.1633,0,0,0,.4662-1.025,1.0623,1.0623,0,0,0-.48-.985,2.8748,2.8748,0,0,0-1.4721-.293h-.6262Zm0,1.677v3.734H66.2175v-9.73H69.055a4.8472,4.8472,0,0,1,2.9375.725,2.5683,2.5683,0,0,1,.9525,2.19,2.5984,2.5984,0,0,1-.4729,1.531,3.1362,3.1362,0,0,1-1.3389,1.044q2.1982,3.282,2.8643,4.24H71.7061l-2.3247-3.734Z" style="fill:#fff" />
    <path d="M78.92,162.635h3.8634v5.044a10.4574,10.4574,0,0,1-1.7719.426,11.0749,11.0749,0,0,1-1.6918.127,4.31,4.31,0,0,1-3.37-1.291,5.404,5.404,0,0,1-1.159-3.72,4.9062,4.9062,0,0,1,1.3455-3.674,5.1343,5.1343,0,0,1,3.7435-1.318,7.2473,7.2473,0,0,1,2.8908.599l-.686,1.651a4.9035,4.9035,0,0,0-2.2181-.533,2.741,2.741,0,0,0-2.1449.899,3.4822,3.4822,0,0,0-.8059,2.415,3.9085,3.9085,0,0,0,.6461,2.423,2.26,2.26,0,0,0,1.8917.832,6.7419,6.7419,0,0,0,1.3122-.133v-2.03H78.92Z" style="fill:#fff" />
    <path d="M88.1387,162.375l2.0316-4.006H92.395l-3.23,5.943v3.787H87.1129v-3.72l-3.2306-6.01H86.12Z" style="fill:#fff" />
    <rect x="120" y="156" width="749" height="10" style="fill:#5c5299" />
    <path d="M296,143c10.604,0,19,8.32,19,18.34s-8.396,18.341-19,18.341-19-8.32-19-18.341S285.396,143,296,143Z" style="fill:#fff;stroke:#5c5299;stroke-width:8px" />
    <path d="M494,144c10.604,0,19,8.32,19,18.34s-8.396,18.341-19,18.341-19-8.32-19-18.341S483.396,144,494,144Z" style="fill:#fff;stroke:#5c5299;stroke-width:8px" />
    <rect x="669" y="141" width="47" height="45" style="fill-opacity:0" />
    <g id="energy-more" style="cursor:pointer">
    <circle cx="691.5" cy="163.5" r="22.5" style="fill:#5c5299" />
    <path d="M699.061,162.939a1.5022,1.5022,0,0,1,0,2.122l-9.546,9.546a1.5,1.5,0,1,1-2.122-2.122L695.879,164l-8.486-8.485a1.5,1.5,0,1,1,2.122-2.122ZM697,162.5h1v3h-1Z" style="fill:#fff" />
    </g>
    <rect y="278" width="868" height="48" style="fill-opacity:0" />
    <path d="M0,301a23.099,23.099,0,0,1,23.1974-23H107.803a23.0008,23.0008,0,1,1,0,46H23.1974A23.099,23.099,0,0,1,0,301Z" style="fill:#d25c59" />
    <path d="M48.2882,308.099h-2.074v-4.2H42.3278v4.2H40.247v-9.73h2.0808v3.813h3.8864v-3.813h2.074Z" style="fill:#fff" />
    <path d="M56.4234,308.099H50.7717v-9.73h5.6517v1.69H52.8525v2.137h3.3226v1.69H52.8525v2.509h3.5709Z" style="fill:#fff" />
    <path d="M64.4848,308.099l-.7115-2.316H60.1957l-.7115,2.316H57.2423l3.4635-9.77H63.25l3.4769,9.77Zm-1.2082-4.047q-.9867-3.147-1.1143-3.56-.1208-.4125-.1745-.652-.2214.852-1.2686,4.212Z" style="fill:#fff" />
    <path d="M67.9684,308.099v-9.73h2.0808v8.026h3.98v1.704Z" style="fill:#fff" />
    <path d="M79.5268,308.099H77.446v-8.013H74.7813v-1.717h7.41v1.717H79.5268Z" style="fill:#fff" />
    <path d="M91.743,308.099H89.6689v-4.2H85.7826v4.2H83.7018v-9.73h2.0808v3.813h3.8863v-3.813H91.743Z" style="fill:#fff" />
    <rect x="119" y="296" width="749" height="10" style="fill:#d25c59" />
    <path d="M296,282c10.604,0,19,8.32,19,18.34s-8.396,18.341-19,18.341-19-8.32-19-18.341S285.396,282,296,282Z" style="fill:#fff;stroke:#d25c59;stroke-width:8px" />
    <path d="M494,283c10.604,0,19,8.32,19,18.34s-8.396,18.341-19,18.341-19-8.32-19-18.341S483.396,283,494,283Z" style="fill:#fff;stroke:#d25c59;stroke-width:8px" />
    <rect x="669" y="281" width="47" height="45" style="fill-opacity:0" />
    <g id="health-more" style="cursor:pointer">
    <circle cx="691.5" cy="303.5" r="22.5" style="fill:#d25c59" />
    <path d="M699.061,302.939a1.5022,1.5022,0,0,1,0,2.122l-9.546,9.546a1.5,1.5,0,1,1-2.122-2.122L695.879,304l-8.486-8.485a1.5,1.5,0,1,1,2.122-2.122ZM697,302.5h1v3h-1Z" style="fill:#fff" />
    </g>
    <rect y="416" width="868" height="48" style="fill-opacity:0" />
    <path d="M0,440.5A23.4373,23.4373,0,0,1,23.3744,417H108.626a23.5,23.5,0,0,1,0,47H23.3744A23.4373,23.4373,0,0,1,0,440.5Z" style="fill:#fad26c" />
    <path d="M32.5531,447.753H26.8583v-9.941h5.6948v1.727H28.9549v2.183h3.3479v1.727H28.9549v2.563h3.5982Z" style="fill:#fff" />
    <path d="M42.8268,442.687a4.9054,4.9054,0,0,1-1.3933,3.761,5.6374,5.6374,0,0,1-4.0107,1.305h-2.8v-9.941h3.1044a5.21,5.21,0,0,1,3.7605,1.285A4.742,4.742,0,0,1,42.8268,442.687Zm-2.1779.055q0-3.2025-2.8136-3.203H36.7194v6.473h.8995Q40.6489,446.012,40.6489,442.742Z" style="fill:#fff" />
    <path d="M52.9246,437.812v6.432a3.7051,3.7051,0,0,1-.4938,1.932,3.1717,3.1717,0,0,1-1.4135,1.271,5.0393,5.0393,0,0,1-2.1914.442,4.19,4.19,0,0,1-2.9624-.979,3.5062,3.5062,0,0,1-1.0551-2.693v-6.405h2.09v6.086a2.5573,2.5573,0,0,0,.46,1.686,1.9064,1.9064,0,0,0,1.5217.537,1.86,1.86,0,0,0,1.488-.537,2.5737,2.5737,0,0,0,.4667-1.7v-6.072Z" style="fill:#fff" />
    <path d="M59.546,439.423a2.1309,2.1309,0,0,0-1.8329.898,4.16,4.16,0,0,0-.6493,2.489q0,3.324,2.4822,3.325a7.8127,7.8127,0,0,0,2.5227-.524v1.768a6.9728,6.9728,0,0,1-2.7189.51,4.14,4.14,0,0,1-3.3-1.312,5.6071,5.6071,0,0,1-1.143-3.781,6.1752,6.1752,0,0,1,.5613-2.713,4.0482,4.0482,0,0,1,1.61-1.788,4.7506,4.7506,0,0,1,2.4687-.626,6.6366,6.6366,0,0,1,2.8947.7l-.6763,1.714a11.004,11.004,0,0,0-1.116-.462A3.3008,3.3008,0,0,0,59.546,439.423Z" style="fill:#fff" />
    <path d="M70.2322,447.753l-.7169-2.366H65.91l-.717,2.366H62.9345l3.49-9.982h2.5633l3.5035,9.982Zm-1.2174-4.134q-.9942-3.216-1.1227-3.638-.1218-.4215-.1759-.666-.2232.87-1.2783,4.304Z" style="fill:#fff" />
    <path d="M77.557,447.753H75.46v-8.187h-2.685v-1.754h7.4668v1.754H77.557Z" style="fill:#fff" />
    <path d="M81.7639,447.753v-9.941h2.0966v9.941Z" style="fill:#fff" />
    <path d="M95.3246,442.769a5.4129,5.4129,0,0,1-1.2175,3.794,5.2555,5.2555,0,0,1-6.98,0,5.4341,5.4341,0,0,1-1.2174-3.808,5.3561,5.3561,0,0,1,1.2174-3.787,4.5558,4.5558,0,0,1,3.5034-1.312,4.4755,4.4755,0,0,1,3.4832,1.319A5.4159,5.4159,0,0,1,95.3246,442.769Zm-7.2166,0a4.1678,4.1678,0,0,0,.629,2.509,2.1962,2.1962,0,0,0,1.88.843q2.5092,0,2.5092-3.352,0-3.3585-2.4957-3.359a2.2067,2.2067,0,0,0-1.887.85A4.1349,4.1349,0,0,0,88.108,442.769Z" style="fill:#fff" />
    <path d="M106.146,447.753h-2.665l-4.3013-7.52h-.0608q.1284,1.992.1285,2.842v4.678H97.3739v-9.941h2.6441l4.295,7.446h.048q-.102-1.938-.102-2.741v-4.705h1.887Z" style="fill:#fff" />
    <rect x="119" y="435" width="749" height="10" style="fill:#fad26c" />
    <path d="M296,420c10.604,0,19,8.32,19,18.34s-8.396,18.341-19,18.341-19-8.32-19-18.341S285.396,420,296,420Z" style="fill:#fff;stroke:#fad26c;stroke-width:8px" />
    <path d="M492,422c10.604,0,19,8.32,19,18.34s-8.396,18.341-19,18.341-19-8.32-19-18.341S481.396,422,492,422Z" style="fill:#fff;stroke:#fad26c;stroke-width:8px" />
    <rect x="666" y="417" width="47" height="45" style="fill-opacity:0" />
    <g id="education-more" style="cursor:pointer">
    <circle cx="691.5" cy="439.5" r="22.5" style="fill:#fad26c" />
    <path d="M699.061,438.254a1.5022,1.5022,0,0,1,0,2.122l-9.546,9.546a1.5,1.5,0,1,1-2.122-2.122l8.486-8.485-8.486-8.485a1.5,1.5,0,1,1,2.122-2.122ZM697,437.815h1v3h-1Z" style="fill:#fff" />
    </g>
</svg>