<svg id="e3000381-7a45-4862-95a9-96d5434da062" data-name="Layer 1" xmlns="http://www.w3.org/2000/svg" viewBox="0 0 28 28"><defs><style>.\36 b676270-ac9a-4381-9b22-5cf621c4a26a{fill:none;stroke:#fff;stroke-linecap:round;stroke-linejoin:round;}</style></defs><title>energy</title><path class="6b676270-ac9a-4381-9b22-5cf621c4a26a" d="M11.4063,19.875v3.5a2.0058,2.0058,0,0,0,2,2H24.0938"/><path class="6b676270-ac9a-4381-9b22-5cf621c4a26a" d="M7.1146,15.4583V18.875a1.0029,1.0029,0,0,0,1,1h6.5833a1.0029,1.0029,0,0,0,1-1V15.4583"/><path class="6b676270-ac9a-4381-9b22-5cf621c4a26a" d="M13.7813,15.4583h4.125a1.0029,1.0029,0,0,0,1-1V6.8333a1.0029,1.0029,0,0,0-1-1h-13a1.0029,1.0029,0,0,0-1,1v7.625a1.0029,1.0029,0,0,0,1,1h4.125"/><line class="6b676270-ac9a-4381-9b22-5cf621c4a26a" x1="8.1667" y1="5.8333" x2="8.1667" y2="2.625"/><line class="6b676270-ac9a-4381-9b22-5cf621c4a26a" x1="14.6458" y1="5.8333" x2="14.6458" y2="2.625"/><line class="6b676270-ac9a-4381-9b22-5cf621c4a26a" x1="4.316" y1="9.1719" x2="16.1076" y2="9.1719"/></svg>