<svg id="e11b3048-106d-4e53-9cd8-87652b60e9fa" data-name="Layer 1" xmlns="http://www.w3.org/2000/svg" viewBox="0 0 28 28"><defs><style>.\37 1f8b149-9683-4912-b76a-c7580d926376,.\37 7f88254-8067-4ece-88a2-9b2de30966da{fill:none;stroke:#fff;stroke-linecap:round;}.\37 1f8b149-9683-4912-b76a-c7580d926376{stroke-linejoin:round;}</style></defs><title>inequality</title><line class="77f88254-8067-4ece-88a2-9b2de30966da" x1="6.8728" y1="25.9303" x2="21.1272" y2="25.9303"/><line class="77f88254-8067-4ece-88a2-9b2de30966da" x1="10.0878" y1="23.7612" x2="17.9122" y2="23.7612"/><line class="77f88254-8067-4ece-88a2-9b2de30966da" x1="14" y1="2.0697" x2="14" y2="21.4061"/><line class="77f88254-8067-4ece-88a2-9b2de30966da" x1="25.2176" y1="4.6727" x2="2.7824" y2="4.6727"/><line class="77f88254-8067-4ece-88a2-9b2de30966da" x1="2.815" y1="12.7499" x2="8.5323" y2="12.7499"/><path class="71f8b149-9683-4912-b76a-c7580d926376" d="M2.815,12.75c-.279,1.5539,1.28,2.8586,2.8586,2.8586S8.8112,14.3038,8.5323,12.75A59.9861,59.9861,0,0,0,5.6736,5.0445,59.974,59.974,0,0,0,2.815,12.75Z"/><line class="77f88254-8067-4ece-88a2-9b2de30966da" x1="19.4677" y1="12.7499" x2="25.185" y2="12.7499"/><path class="71f8b149-9683-4912-b76a-c7580d926376" d="M19.4677,12.75c-.2789,1.5539,1.28,2.8586,2.8587,2.8586S25.464,14.3038,25.185,12.75a59.974,59.974,0,0,0-2.8586-7.7054A59.9861,59.9861,0,0,0,19.4677,12.75Z"/></svg>