<svg id="5ab1033e-6a3f-47d3-ad01-d254424a5b91" data-name="Layer 1" xmlns="http://www.w3.org/2000/svg" viewBox="0 0 28 28"><defs><style>.\31 bcb28d2-03bd-4d0f-b859-e17df3cb5cfe,.\38 cfabf10-bf08-4dd2-81c8-2b3f3680a993,.ea647f2a-92d6-4bf9-b74f-a3f99ca22627{fill:none;stroke:#fff;}.\38 cfabf10-bf08-4dd2-81c8-2b3f3680a993,.ea647f2a-92d6-4bf9-b74f-a3f99ca22627{stroke-linecap:round;}.ea647f2a-92d6-4bf9-b74f-a3f99ca22627{stroke-linejoin:round;}</style></defs><title>inequality</title><line class="8cfabf10-bf08-4dd2-81c8-2b3f3680a993" x1="6.8728" y1="25.9303" x2="21.1272" y2="25.9303"/><line class="8cfabf10-bf08-4dd2-81c8-2b3f3680a993" x1="10.0878" y1="23.7612" x2="17.9122" y2="23.7612"/><line class="8cfabf10-bf08-4dd2-81c8-2b3f3680a993" x1="14" y1="2.0697" x2="14" y2="21.4061"/><line class="8cfabf10-bf08-4dd2-81c8-2b3f3680a993" x1="25.2176" y1="4.6727" x2="2.7824" y2="4.6727"/><line class="1bcb28d2-03bd-4d0f-b859-e17df3cb5cfe" x1="2.815" y1="12.7499" x2="8.5323" y2="12.7499"/><path class="ea647f2a-92d6-4bf9-b74f-a3f99ca22627" d="M2.815,12.75c-.279,1.5539,1.28,2.8586,2.8586,2.8586S8.8112,14.3038,8.5323,12.75A59.9861,59.9861,0,0,0,5.6736,5.0445,59.974,59.974,0,0,0,2.815,12.75Z"/><line class="1bcb28d2-03bd-4d0f-b859-e17df3cb5cfe" x1="19.4677" y1="12.7499" x2="25.185" y2="12.7499"/><path class="ea647f2a-92d6-4bf9-b74f-a3f99ca22627" d="M19.4677,12.75c-.2789,1.5539,1.28,2.8586,2.8587,2.8586S25.464,14.3038,25.185,12.75a59.974,59.974,0,0,0-2.8586-7.7054A59.9861,59.9861,0,0,0,19.4677,12.75Z"/></svg>