<svg xmlns="http://www.w3.org/2000/svg" xmlns:xlink="http://www.w3.org/1999/xlink" viewBox="0 0 1400 800"><defs><style>.\32 2a88614-1483-41bd-8c85-a4d6322f166b,.c29b3e51-050e-4f4d-9a52-31496a798364{fill:none;}.\38 ea73647-932b-49d9-aaf2-d816620ba88a{clip-path:url(#2b2350bb-1be6-48b0-aa01-cea6341e425b);}.bab2fd63-9c2e-4e74-ac9f-0a4d1d064db9{fill-opacity:0;}.\32 2a88614-1483-41bd-8c85-a4d6322f166b{stroke:#3a3d6d;stroke-linecap:round;stroke-width:15px;}.\32 3658fef-13ca-40f4-8ab0-e08a07e419a3{fill:url(#4e7119d3-48ad-4d62-9a56-da7cad6b5117);}</style><clipPath id="2b2350bb-1be6-48b0-aa01-cea6341e425b"><rect class="c29b3e51-050e-4f4d-9a52-31496a798364" y="-900" width="1440" height="900"/></clipPath><linearGradient id="4e7119d3-48ad-4d62-9a56-da7cad6b5117" x1="103.3" y1="800" x2="103.3" gradientUnits="userSpaceOnUse"><stop offset="0" stop-color="#5f76cb"/><stop offset="1" stop-color="#3a3d6d"/></linearGradient></defs><title>about-line</title><g id="5e70e8b5-e78a-481e-b543-96fee6af3a81" data-name="Layer 1"><g class="8ea73647-932b-49d9-aaf2-d816620ba88a"><rect class="bab2fd63-9c2e-4e74-ac9f-0a4d1d064db9" x="-23.8348" y="-134" width="1392.5" height="137"/><path class="22a88614-1483-41bd-8c85-a4d6322f166b" d="M102.9751,1V-92.817c6.3544-21.448,14.3417-25.279,31.1361-27.409,0,0,648.054.226,682.554.226s46,1.5,46,22,23.5,19,23.5,19H1310"/><rect class="bab2fd63-9c2e-4e74-ac9f-0a4d1d064db9" x="639.1652" y="-928" width="645" height="973"/></g></g><g id="3e6056a2-f095-49e7-a923-3cddd44f4908" data-name="Layer 2"><path class="23658fef-13ca-40f4-8ab0-e08a07e419a3" d="M125.3,116.5a21.577,21.577,0,0,0-14.8252-20.32V0h-15V96.41a21.3237,21.3237,0,0,0,0,40.1792V800h15V136.82A21.577,21.577,0,0,0,125.3,116.5Zm-22,13.5a13.5089,13.5089,0,1,1,14-13.5A13.7721,13.7721,0,0,1,103.3,130Z"/></g></svg>