<svg xmlns="http://www.w3.org/2000/svg" xmlns:xlink="http://www.w3.org/1999/xlink" viewBox="0 0 1366 800"><defs><style>.\39 e944b7b-d1dd-46a3-a395-55c824cd54b5,.f35eabd5-0223-472c-b178-162b5dc69b6e{fill:none;}.\33 800633a-f112-4e72-b263-3ea654e63b38{clip-path:url(#31f9cb27-e499-4879-8434-88350f923a74);}.\37 7ecd629-6c06-4e79-a2c9-8cdc013b91d5{fill-opacity:0;}.f35eabd5-0223-472c-b178-162b5dc69b6e{stroke:#3a3d6d;stroke-width:15px;}.\32 2d509cd-a3de-4475-8d17-02be0cdf93eb{fill:url(#3dd13ecb-d764-404a-973a-251f7d315171);}</style><clipPath id="31f9cb27-e499-4879-8434-88350f923a74"><rect class="9e944b7b-d1dd-46a3-a395-55c824cd54b5" x="-73.8348" y="-900" width="1440" height="900"/></clipPath><linearGradient id="3dd13ecb-d764-404a-973a-251f7d315171" x1="103.3" y1="800" x2="103.3" gradientUnits="userSpaceOnUse"><stop offset="0" stop-color="#5f76cb"/><stop offset="1" stop-color="#3a3d6d"/></linearGradient></defs><title>ABOUTLINE</title><g id="0a738392-cafe-40fe-bb88-09970c29ada8" data-name="Layer 1"><g class="3800633a-f112-4e72-b263-3ea654e63b38"><rect class="77ecd629-6c06-4e79-a2c9-8cdc013b91d5" x="-23.8348" y="-134" width="1392.5" height="137"/><path class="f35eabd5-0223-472c-b178-162b5dc69b6e" d="M102.9751,3V-92.817c6.3544-21.448,14.3417-25.279,31.1361-27.409,0,0,648.054.226,682.554.226s46,1.5,46,22,23.5,19,23.5,19h482.5"/><rect class="77ecd629-6c06-4e79-a2c9-8cdc013b91d5" x="639.1652" y="-928" width="645" height="973"/></g></g><g id="23c50ddf-9bf8-48c9-9a19-2df7c8400011" data-name="Layer 2"><path class="22d509cd-a3de-4475-8d17-02be0cdf93eb" d="M125.3,116.5a21.577,21.577,0,0,0-14.8252-20.32V0h-15V96.41a21.3237,21.3237,0,0,0,0,40.1792V800h15V136.82A21.577,21.577,0,0,0,125.3,116.5Zm-22,13.5a13.5089,13.5089,0,1,1,14-13.5A13.7721,13.7721,0,0,1,103.3,130Z"/></g></svg>