<svg id="82f41240-4f57-4417-bb39-a5c3888935a2" data-name="Layer 1" xmlns="http://www.w3.org/2000/svg" xmlns:xlink="http://www.w3.org/1999/xlink" viewBox="0 0 1366 900"><defs><style>.\31 89d0daa-c298-4671-b698-d9815dee267a,.\31 8dcd7d4-b7e9-43c3-92e1-35c583063a0e,.\31 bead06d-6f47-4f1a-9f65-f7e22e60fe2c,.\33 b7c35ef-a2a4-4ae5-ba7c-97369c9592da,.\33 e9df875-7abe-49a6-81c5-91bd8a545b81,.\34 9a93c30-4f11-471b-81fe-a97dad324dfb,.\35 a68967b-f807-464f-88ab-a8f7ce42a835,.\36 88de2a9-e8c7-496d-b863-ba844b597a36,.\37 5fdcd07-5661-4ff5-9822-33293c4cd4d1,.\37 8c76462-1217-4d46-b96e-2fd7df7f545a,.\37 d1f6a5e-9846-412b-a0b2-1368a4f149e6,.\38 5a41169-47b8-41dc-8b64-feb9c6be15e5,.\38 7d4a332-a5be-4404-9855-efe727e366e6,.bb90c011-23e0-4687-af7e-07a8146dedd5,.bdb9b6fa-e47c-4988-a7d2-3a6f2c1c72d8,.df70959c-2a42-47d9-9141-ccb059a0f6af,.e919a3b8-9868-43fc-b7fd-74f7b729392d,.edc28959-a9b4-4a94-a1a0-8886c346e2ce,.f060c31f-fd66-4592-b00f-531922f4f552,.f48d7780-c25a-436c-8f95-f8a3ed63502a,.ffd807d5-c5e6-49c2-9195-d8033609ddd1{fill:none;}.\32 62c40d7-7d05-490e-aaed-1ab04321ab71{clip-path:url(#2c9c20a8-ae31-45e8-8f76-461e66aad1e9);}.c6590c80-726c-4ae2-a756-342fcb702066{fill-opacity:0;}.\37 347e92d-7fd7-4148-9f25-ad1fa2250be8{fill:#ef6843;}.\36 88de2a9-e8c7-496d-b863-ba844b597a36,.aff56449-3e27-4e73-b9e3-d407b75036fd{stroke:#3a3d6d;}.\36 88de2a9-e8c7-496d-b863-ba844b597a36{stroke-width:15px;}.\31 b924c27-748d-4631-8502-a5702c3b2d03,.\31 cd6049e-6ba8-4719-ac50-58b8f65aff90,.\33 eeb8b38-eb81-4fdb-9595-d73915ab946f,.\35 faa52ff-50da-4904-8877-5d66bd8adb8c,.\36 8932c5d-c91e-4c2b-8a99-f2b91f39069a,.\37 37389e2-012b-4c63-ae26-8ef64d071391,.a73fd995-4ebd-4a95-b14f-d3c02dced14f,.aff56449-3e27-4e73-b9e3-d407b75036fd,.d01f417d-bd59-4bfa-a718-2c9ac5b6b2d2,.d5161fbb-bed3-4aea-b81e-007f32a12088,.e66bb250-2ad5-4b8a-90f4-c7b646849254,.ed771099-b214-4875-95ab-0e440c1c2a74,.f421377f-efaf-426c-a526-7d6ba8998928{fill:#fff;}.\35 faa52ff-50da-4904-8877-5d66bd8adb8c,.\37 37389e2-012b-4c63-ae26-8ef64d071391,.aff56449-3e27-4e73-b9e3-d407b75036fd,.ed771099-b214-4875-95ab-0e440c1c2a74{stroke-width:4px;}.\33 eeb8b38-eb81-4fdb-9595-d73915ab946f,.\35 a68967b-f807-464f-88ab-a8f7ce42a835{stroke:#6077ca;}.\31 8dcd7d4-b7e9-43c3-92e1-35c583063a0e,.\33 b7c35ef-a2a4-4ae5-ba7c-97369c9592da,.\33 e9df875-7abe-49a6-81c5-91bd8a545b81,.\33 eeb8b38-eb81-4fdb-9595-d73915ab946f,.\37 d1f6a5e-9846-412b-a0b2-1368a4f149e6,.\38 5a41169-47b8-41dc-8b64-feb9c6be15e5,.\38 7d4a332-a5be-4404-9855-efe727e366e6,.d01f417d-bd59-4bfa-a718-2c9ac5b6b2d2,.e919a3b8-9868-43fc-b7fd-74f7b729392d,.edc28959-a9b4-4a94-a1a0-8886c346e2ce,.f421377f-efaf-426c-a526-7d6ba8998928,.f48d7780-c25a-436c-8f95-f8a3ed63502a{stroke-miterlimit:10;}.\33 eeb8b38-eb81-4fdb-9595-d73915ab946f,.a73fd995-4ebd-4a95-b14f-d3c02dced14f{stroke-width:14.86px;}.f060c31f-fd66-4592-b00f-531922f4f552,.f421377f-efaf-426c-a526-7d6ba8998928{stroke:#ef6843;}.f421377f-efaf-426c-a526-7d6ba8998928{stroke-width:10.43px;}.edc28959-a9b4-4a94-a1a0-8886c346e2ce,.f48d7780-c25a-436c-8f95-f8a3ed63502a{stroke:#d25c59;}.\31 89d0daa-c298-4671-b698-d9815dee267a,.\31 8dcd7d4-b7e9-43c3-92e1-35c583063a0e,.\31 bead06d-6f47-4f1a-9f65-f7e22e60fe2c,.\33 b7c35ef-a2a4-4ae5-ba7c-97369c9592da,.\33 e9df875-7abe-49a6-81c5-91bd8a545b81,.\34 9a93c30-4f11-471b-81fe-a97dad324dfb,.\35 a68967b-f807-464f-88ab-a8f7ce42a835,.\37 8c76462-1217-4d46-b96e-2fd7df7f545a,.\37 d1f6a5e-9846-412b-a0b2-1368a4f149e6,.\38 5a41169-47b8-41dc-8b64-feb9c6be15e5,.\38 7d4a332-a5be-4404-9855-efe727e366e6,.a73fd995-4ebd-4a95-b14f-d3c02dced14f,.df70959c-2a42-47d9-9141-ccb059a0f6af,.edc28959-a9b4-4a94-a1a0-8886c346e2ce,.f060c31f-fd66-4592-b00f-531922f4f552,.f48d7780-c25a-436c-8f95-f8a3ed63502a{stroke-linecap:round;}.\31 89d0daa-c298-4671-b698-d9815dee267a,.\31 bead06d-6f47-4f1a-9f65-f7e22e60fe2c,.\35 a68967b-f807-464f-88ab-a8f7ce42a835,.\36 8932c5d-c91e-4c2b-8a99-f2b91f39069a,.\37 8c76462-1217-4d46-b96e-2fd7df7f545a,.\37 d1f6a5e-9846-412b-a0b2-1368a4f149e6,.edc28959-a9b4-4a94-a1a0-8886c346e2ce{stroke-width:8px;}.\33 b7c35ef-a2a4-4ae5-ba7c-97369c9592da,.\33 e9df875-7abe-49a6-81c5-91bd8a545b81,.\34 9a93c30-4f11-471b-81fe-a97dad324dfb,.\38 5a41169-47b8-41dc-8b64-feb9c6be15e5,.\38 7d4a332-a5be-4404-9855-efe727e366e6,.d01f417d-bd59-4bfa-a718-2c9ac5b6b2d2,.df70959c-2a42-47d9-9141-ccb059a0f6af,.e919a3b8-9868-43fc-b7fd-74f7b729392d,.f060c31f-fd66-4592-b00f-531922f4f552,.f48d7780-c25a-436c-8f95-f8a3ed63502a{stroke-width:7px;}.bb90c011-23e0-4687-af7e-07a8146dedd5,.e66bb250-2ad5-4b8a-90f4-c7b646849254,.ed771099-b214-4875-95ab-0e440c1c2a74{stroke:#d15b58;}.\31 8dcd7d4-b7e9-43c3-92e1-35c583063a0e,.\31 cd6049e-6ba8-4719-ac50-58b8f65aff90,.\37 5fdcd07-5661-4ff5-9822-33293c4cd4d1,.bb90c011-23e0-4687-af7e-07a8146dedd5,.e66bb250-2ad5-4b8a-90f4-c7b646849254,.ffd807d5-c5e6-49c2-9195-d8033609ddd1{stroke-width:10px;}.\31 89d0daa-c298-4671-b698-d9815dee267a,.\31 bead06d-6f47-4f1a-9f65-f7e22e60fe2c,.\34 9a93c30-4f11-471b-81fe-a97dad324dfb,.\35 a68967b-f807-464f-88ab-a8f7ce42a835,.\37 8c76462-1217-4d46-b96e-2fd7df7f545a,.a73fd995-4ebd-4a95-b14f-d3c02dced14f,.df70959c-2a42-47d9-9141-ccb059a0f6af,.f060c31f-fd66-4592-b00f-531922f4f552{stroke-linejoin:round;}.\34 9a93c30-4f11-471b-81fe-a97dad324dfb,.\37 8c76462-1217-4d46-b96e-2fd7df7f545a,.\38 7d4a332-a5be-4404-9855-efe727e366e6{stroke:#ffaa5b;}.\31 bead06d-6f47-4f1a-9f65-f7e22e60fe2c,.a73fd995-4ebd-4a95-b14f-d3c02dced14f{stroke:#fad262;}.\31 89d0daa-c298-4671-b698-d9815dee267a,.df70959c-2a42-47d9-9141-ccb059a0f6af{stroke:#5c5299;}.\31 8dcd7d4-b7e9-43c3-92e1-35c583063a0e,.\37 d1f6a5e-9846-412b-a0b2-1368a4f149e6,.\38 5a41169-47b8-41dc-8b64-feb9c6be15e5{stroke:#3649a3;}.b5e15cd8-7f7f-4248-9956-736c4c9ad37f{fill:#6077ca;}.\33 e9df875-7abe-49a6-81c5-91bd8a545b81,.d01f417d-bd59-4bfa-a718-2c9ac5b6b2d2{stroke:#a94a64;}.\31 45356b8-dc44-4e44-9929-d92c370e8833{fill:#5c5299;}.\33 b7c35ef-a2a4-4ae5-ba7c-97369c9592da,.e919a3b8-9868-43fc-b7fd-74f7b729392d{stroke:#3b3e6e;}.\38 eee41db-5a91-42a1-a73d-3ba994f51ec3{fill:#a94a64;}.\33 7329093-4811-47f6-b963-0778004fac85{fill:#fad262;}.\31 b924c27-748d-4631-8502-a5702c3b2d03,.\31 cd6049e-6ba8-4719-ac50-58b8f65aff90,.\35 faa52ff-50da-4904-8877-5d66bd8adb8c,.\37 5fdcd07-5661-4ff5-9822-33293c4cd4d1{stroke:#f5a859;}.\31 b924c27-748d-4631-8502-a5702c3b2d03{stroke-width:5px;}.\36 8932c5d-c91e-4c2b-8a99-f2b91f39069a{stroke:#5c59a4;}.\37 37389e2-012b-4c63-ae26-8ef64d071391,.ffd807d5-c5e6-49c2-9195-d8033609ddd1{stroke:#3549a2;}</style><clipPath id="2c9c20a8-ae31-45e8-8f76-461e66aad1e9"><rect class="bdb9b6fa-e47c-4988-a7d2-3a6f2c1c72d8" x="-73.83" width="1440" height="900"/></clipPath></defs><title>HOME</title><g class="262c40d7-7d05-490e-aaed-1ab04321ab71"><rect class="c6590c80-726c-4ae2-a756-342fcb702066" x="-23.83" y="766" width="1392.5" height="137"/><path class="7347e92d-7fd7-4148-9f25-ad1fa2250be8" d="M724.17,798h-160v34h160Z"/><path class="688de2a9-e8c7-496d-b863-ba844b597a36" d="M103,903V807.18c6.35-21.45,14.34-25.28,31.13-27.41,0,0,648.06.23,682.56.23s46,1.5,46,22,23.5,19,23.5,19h482.5"/><path class="aff56449-3e27-4e73-b9e3-d407b75036fd" d="M110.36,807.4a7.6,7.6,0,1,0-7.6,7.77A7.69,7.69,0,0,0,110.36,807.4Z"/><path class="aff56449-3e27-4e73-b9e3-d407b75036fd" d="M206.62,779.77a7.6,7.6,0,1,0-7.6,7.78A7.69,7.69,0,0,0,206.62,779.77Z"/><path class="aff56449-3e27-4e73-b9e3-d407b75036fd" d="M326.17,779.5a11,11,0,1,0-11,11.5A11.26,11.26,0,0,0,326.17,779.5Z"/><path class="aff56449-3e27-4e73-b9e3-d407b75036fd" d="M382.66,779.77a7.6,7.6,0,1,0-7.6,7.78A7.69,7.69,0,0,0,382.66,779.77Z"/><path class="aff56449-3e27-4e73-b9e3-d407b75036fd" d="M623.36,779.77a7.6,7.6,0,1,0-7.6,7.78A7.69,7.69,0,0,0,623.36,779.77Z"/><path class="aff56449-3e27-4e73-b9e3-d407b75036fd" d="M741.08,779.77a7.6,7.6,0,1,0-7.6,7.78A7.69,7.69,0,0,0,741.08,779.77Z"/><path class="aff56449-3e27-4e73-b9e3-d407b75036fd" d="M865.36,786.77a7.6,7.6,0,1,0-7.6,7.78A7.69,7.69,0,0,0,865.36,786.77Z"/><path class="aff56449-3e27-4e73-b9e3-d407b75036fd" d="M1035.36,821.77a7.6,7.6,0,1,0-7.59,7.78A7.68,7.68,0,0,0,1035.36,821.77Z"/><path class="aff56449-3e27-4e73-b9e3-d407b75036fd" d="M1150.36,821.77a7.6,7.6,0,1,0-7.59,7.78A7.68,7.68,0,0,0,1150.36,821.77Z"/><path class="3eeb8b38-eb81-4fdb-9595-d73915ab946f" d="M632.13,167.19a23.1,23.1,0,1,0-23-23.09A23,23,0,0,0,632.13,167.19Z"/><path class="f421377f-efaf-426c-a526-7d6ba8998928" d="M422.28,773.42a16.21,16.21,0,1,0-16.11-16.21A16.17,16.17,0,0,0,422.28,773.42Z"/><path class="edc28959-a9b4-4a94-a1a0-8886c346e2ce" d="M433.17,710.05l174.57,0"/><path class="f48d7780-c25a-436c-8f95-f8a3ed63502a" d="M1249.3,483.85h31.62"/><rect class="c6590c80-726c-4ae2-a756-342fcb702066" x="1028.11" y="452.8" width="190.02" height="33.43"/><path class="f48d7780-c25a-436c-8f95-f8a3ed63502a" d="M1028.11,452.8h190"/><path class="f48d7780-c25a-436c-8f95-f8a3ed63502a" d="M1077.37,486.23h138.72"/><path class="f48d7780-c25a-436c-8f95-f8a3ed63502a" d="M1077.86,486.06l140.27-32.83"/><circle class="e66bb250-2ad5-4b8a-90f4-c7b646849254" cx="849.67" cy="107.5" r="32.5"/><path class="f060c31f-fd66-4592-b00f-531922f4f552" d="M1273.17,862h7.73"/><path class="78c76462-1217-4d46-b96e-2fd7df7f545a" d="M349.17,680H495.5"/><path class="1bead06d-6f47-4f1a-9f65-f7e22e60fe2c" d="M512.17,822h158"/><path class="5a68967b-f807-464f-88ab-a8f7ce42a835" d="M1091.17,841h162"/><path class="189d0daa-c298-4671-b698-d9815dee267a" d="M556.17,524.16V293"/><path class="189d0daa-c298-4671-b698-d9815dee267a" d="M533.17,347.73V276"/><path class="85a41169-47b8-41dc-8b64-feb9c6be15e5" d="M954.17,402H1381"/><path class="18dcd7d4-b7e9-43c3-92e1-35c583063a0e" d="M1288.17,422h125.06"/><path class="85a41169-47b8-41dc-8b64-feb9c6be15e5" d="M1211.07,421.57h24.42"/><path class="85a41169-47b8-41dc-8b64-feb9c6be15e5" d="M1250.66,421h5.54"/><path class="7d1f6a5e-9846-412b-a0b2-1368a4f149e6" d="M636.17,136h34.41"/><path class="7d1f6a5e-9846-412b-a0b2-1368a4f149e6" d="M581.17,136H613"/><path class="7d1f6a5e-9846-412b-a0b2-1368a4f149e6" d="M548.17,136H558"/><path class="aff56449-3e27-4e73-b9e3-d407b75036fd" d="M532.36,134.77a7.6,7.6,0,1,0-7.6,7.78A7.69,7.69,0,0,0,532.36,134.77Z"/><path class="aff56449-3e27-4e73-b9e3-d407b75036fd" d="M821.36,361.77a7.6,7.6,0,1,0-7.6,7.78A7.69,7.69,0,0,0,821.36,361.77Z"/><path class="7d1f6a5e-9846-412b-a0b2-1368a4f149e6" d="M605.17,370.36H725.72l.49-9.36H803"/><rect class="c6590c80-726c-4ae2-a756-342fcb702066" x="680.17" y="159" width="660.43" height="496"/><path class="b5e15cd8-7f7f-4248-9956-736c4c9ad37f" d="M766.17,518.14V601l224-192.46V321Z"/><path class="3e9df875-7abe-49a6-81c5-91bd8a545b81" d="M778.17,467l94-80"/><path class="3e9df875-7abe-49a6-81c5-91bd8a545b81" d="M680.17,655l222-189"/><rect class="c6590c80-726c-4ae2-a756-342fcb702066" x="1296.17" y="584" width="44.43" height="37.54"/><path class="df70959c-2a42-47d9-9141-ccb059a0f6af" d="M1296.17,621.54v-35"/><path class="df70959c-2a42-47d9-9141-ccb059a0f6af" d="M1296.17,621.54,1340.6,584"/><rect class="c6590c80-726c-4ae2-a756-342fcb702066" x="849.17" y="159" width="303.74" height="227.67"/><path class="b5e15cd8-7f7f-4248-9956-736c4c9ad37f" d="M1012.2,304l.5,82.72H1063V320.39a14.8,14.8,0,0,0-3.1-10.78c-4.61-5.63-11.66-5.21-12.34-5.16Z"/><path class="145356b8-dc44-4e44-9929-d92c370e8833" d="M1108.23,159H958.17v34h150.06Z"/><path class="e919a3b8-9868-43fc-b7fd-74f7b729392d" d="M1138.33,284.26l-42.34.19q-.06-41.53-.11-83.09"/><path class="d01f417d-bd59-4bfa-a718-2c9ac5b6b2d2" d="M1021.45,298.36a14.46,14.46,0,1,0-14.37-14.46A14.41,14.41,0,0,0,1021.45,298.36Z"/><path class="d01f417d-bd59-4bfa-a718-2c9ac5b6b2d2" d="M1138.54,299.92a14.46,14.46,0,1,0-14.37-14.46A14.42,14.42,0,0,0,1138.54,299.92Z"/><path class="8eee41db-5a91-42a1-a73d-3ba994f51ec3" d="M863.54,268.92a14.46,14.46,0,1,0-14.37-14.46A14.42,14.42,0,0,0,863.54,268.92Z"/><rect class="c6590c80-726c-4ae2-a756-342fcb702066" x="863.17" y="169" width="268.4" height="214.34"/><path class="3b7c35ef-a2a4-4ae5-ba7c-97369c9592da" d="M1097.46,193.15l-.51-23.61L947.07,169l-.51,30.81,147.29.52"/><path class="3b7c35ef-a2a4-4ae5-ba7c-97369c9592da" d="M947.07,169l-83.9,90.55.5,119.34a4.47,4.47,0,0,0,.84,2.36,4.86,4.86,0,0,0,1.72,1.32c2.16,1,172.93.81,263,.65a1.88,1.88,0,0,0,2.24-1.36,1.8,1.8,0,0,0,.06-.8q0-40.33-.08-80.68"/><path class="3b7c35ef-a2a4-4ae5-ba7c-97369c9592da" d="M965.77,203.46l-.27,85,40.07.54"/><path class="3b7c35ef-a2a4-4ae5-ba7c-97369c9592da" d="M997,298.05l-.54,82.84"/><path class="3b7c35ef-a2a4-4ae5-ba7c-97369c9592da" d="M1012,305.27a79.89,79.89,0,0,1,25.91.27c9.28,1.66,12.38,4,13.62,5.07,6.49,5.57,7.33,14.13,7.47,17.11l.55,53.44"/><path class="3b7c35ef-a2a4-4ae5-ba7c-97369c9592da" d="M1035.73,312.48a13.51,13.51,0,0,1,5.34,2.14c5.16,3.52,6,9.52,6.14,10.68l.54,54.25"/><path class="3b7c35ef-a2a4-4ae5-ba7c-97369c9592da" d="M1098.21,310.08a15.17,15.17,0,0,1,4,3.21,16.84,16.84,0,0,1,4,10.95l1.62,55.85"/><path class="3b7c35ef-a2a4-4ae5-ba7c-97369c9592da" d="M1053.89,303.39l44.06.55a21.47,21.47,0,0,1,11,4c7.88,5.78,8.7,15.07,8.81,16.56l1.08,55.32"/><path class="3b7c35ef-a2a4-4ae5-ba7c-97369c9592da" d="M1074.44,277.55l.38-75"/><path class="3b7c35ef-a2a4-4ae5-ba7c-97369c9592da" d="M981.36,266.16l66.22-65.47"/><rect class="c6590c80-726c-4ae2-a756-342fcb702066" x="878.17" y="559" width="454.71" height="238.75"/><rect class="c6590c80-726c-4ae2-a756-342fcb702066" x="954.17" y="605" width="356.75" height="192.75"/><path class="37329093-4811-47f6-b963-0778004fac85" d="M1098.92,605H954.17V714.75h144.75Z"/><path class="a73fd995-4ebd-4a95-b14f-d3c02dced14f" d="M1288,797.75a23.1,23.1,0,1,0-23-23.1A23,23,0,0,0,1288,797.75Z"/><rect class="c6590c80-726c-4ae2-a756-342fcb702066" x="878.17" y="559" width="454.71" height="214.52"/><path class="87d4a332-a5be-4404-9855-efe727e366e6" d="M878.71,766.66l-.54-160c.23-3.79,1.69-20.89,16-34.25A51.45,51.45,0,0,1,924.69,559l402.19,1.08"/><path class="87d4a332-a5be-4404-9855-efe727e366e6" d="M892.86,718.67v-97h9.31"/><path class="87d4a332-a5be-4404-9855-efe727e366e6" d="M1073.1,723.41l-97.77.46-.47-103.82,141.85-.92,1.38,67.52,38.1-67.06,1.37,141"/><path class="87d4a332-a5be-4404-9855-efe727e366e6" d="M1168.12,616.37l48.67.46,1.37,144.69"/><path class="87d4a332-a5be-4404-9855-efe727e366e6" d="M1231.47,617.29H1270l1.38,147"/><path class="d5161fbb-bed3-4aea-b81e-007f32a12088" d="M906.88,770.46l170.65.48Z"/><path class="49a93c30-4f11-471b-81fe-a97dad324dfb" d="M906.88,770.46l170.65.48"/><path class="49a93c30-4f11-471b-81fe-a97dad324dfb" d="M1093,773.33h9.16"/><path class="d5161fbb-bed3-4aea-b81e-007f32a12088" d="M1302.64,773.33l30.24.19Z"/><path class="49a93c30-4f11-471b-81fe-a97dad324dfb" d="M1302.64,773.33l30.24.19"/><rect class="c6590c80-726c-4ae2-a756-342fcb702066" x="639.17" y="-28" width="645" height="973"/><path class="75fdcd07-5661-4ff5-9822-33293c4cd4d1" d="M812.67,778V757.5c0-27.5-7.5-35.5-31.5-35.5h-61c-51,0-65.5-10-65.5-50.5V239l158-92.5,51-30V-28"/><circle class="5faa52ff-50da-4904-8877-5d66bd8adb8c" cx="654.17" cy="240.5" r="7.5"/><circle class="1b924c27-748d-4631-8502-a5702c3b2d03" cx="811.17" cy="148.5" r="13"/><circle class="5faa52ff-50da-4904-8877-5d66bd8adb8c" cx="759.17" cy="177.5" r="7.5"/><circle class="5faa52ff-50da-4904-8877-5d66bd8adb8c" cx="863.17" cy="46.5" r="7.5"/><circle class="5faa52ff-50da-4904-8877-5d66bd8adb8c" cx="704.17" cy="211.5" r="7.5"/><circle class="5faa52ff-50da-4904-8877-5d66bd8adb8c" cx="654.17" cy="372.5" r="7.5"/><circle class="5faa52ff-50da-4904-8877-5d66bd8adb8c" cx="654.17" cy="431.5" r="7.5"/><circle class="1b924c27-748d-4631-8502-a5702c3b2d03" cx="654.17" cy="551.5" r="13"/><path class="1cd6049e-6ba8-4719-ac50-58b8f65aff90" d="M1270.51,356.84c24.86-32.64-12-69.55-44.69-44.68C1201,344.8,1237.86,381.71,1270.51,356.84Z"/><path class="5faa52ff-50da-4904-8877-5d66bd8adb8c" d="M1052.66,491c6.11-8-3-17.1-11-11C1035.56,488,1044.63,497.11,1052.66,491Z"/><circle class="5faa52ff-50da-4904-8877-5d66bd8adb8c" cx="654.17" cy="671.5" r="7.5"/><circle class="5faa52ff-50da-4904-8877-5d66bd8adb8c" cx="747.17" cy="722.5" r="7.5"/><circle class="5faa52ff-50da-4904-8877-5d66bd8adb8c" cx="803.17" cy="728.5" r="7.5"/><circle class="5faa52ff-50da-4904-8877-5d66bd8adb8c" cx="813.17" cy="780.5" r="7.5"/><path class="1cd6049e-6ba8-4719-ac50-58b8f65aff90" d="M839.65,873c12.23-16.06-5.92-34.21-22-22C805.45,867.07,823.6,885.22,839.65,873Z"/><rect class="c6590c80-726c-4ae2-a756-342fcb702066" x="804.17" y="-71" width="748" height="582"/><path class="bb90c011-23e0-4687-af7e-07a8146dedd5" d="M1543.67-61.5h-177c-21.72,5.74-31.68,17.75-33,38V111c1.94,29.33-4.23,39.37-28.5,46.5h-47.5c-44.8-2.17-57.68,7.93-54.5,50v88c0,25.5,17.5,30,43.5,30h239"/><circle class="ed771099-b214-4875-95ab-0e440c1c2a74" cx="1333.67" cy="21.5" r="7.5"/><circle class="ed771099-b214-4875-95ab-0e440c1c2a74" cx="1333.67" cy="113.5" r="7.5"/><circle class="ed771099-b214-4875-95ab-0e440c1c2a74" cx="1257.67" cy="157.5" r="7.5"/><circle class="ed771099-b214-4875-95ab-0e440c1c2a74" cx="813.67" cy="501.5" r="7.5"/><circle class="ed771099-b214-4875-95ab-0e440c1c2a74" cx="1209.67" cy="167.5" r="7.5"/><circle class="ed771099-b214-4875-95ab-0e440c1c2a74" cx="1202.67" cy="217.5" r="7.5"/><circle class="ed771099-b214-4875-95ab-0e440c1c2a74" cx="1204.67" cy="303.5" r="7.5"/><circle class="ed771099-b214-4875-95ab-0e440c1c2a74" cx="1356.67" cy="326.5" r="7.5"/><path class="aff56449-3e27-4e73-b9e3-d407b75036fd" d="M1263.36,821.77a7.6,7.6,0,1,0-7.59,7.78A7.68,7.68,0,0,0,1263.36,821.77Z"/><path class="aff56449-3e27-4e73-b9e3-d407b75036fd" d="M1319.36,821.77a7.6,7.6,0,1,0-7.59,7.78A7.68,7.68,0,0,0,1319.36,821.77Z"/><path class="68932c5d-c91e-4c2b-8a99-f2b91f39069a" d="M1329.17,474a17.51,17.51,0,1,1-18,17.5A17.75,17.75,0,0,1,1329.17,474Z"/><circle class="ed771099-b214-4875-95ab-0e440c1c2a74" cx="1234.67" cy="157.5" r="7.5"/><rect class="c6590c80-726c-4ae2-a756-342fcb702066" x="1005.17" y="-239" width="1043" height="309"/><path class="ffd807d5-c5e6-49c2-9195-d8033609ddd1" d="M1005.17-239l240.5,293h509.5c48.5,0,59-14.5,59-52.5V-89c0-31.5,6.5-42,52.5-42h181.5"/><path class="737389e2-012b-4c63-ae26-8ef64d071391" d="M1280.36,54.77a7.6,7.6,0,1,0-7.59,7.78A7.68,7.68,0,0,0,1280.36,54.77Z"/><path class="737389e2-012b-4c63-ae26-8ef64d071391" d="M1213.26,10.94a7.59,7.59,0,1,0,9.68,11.7,7.59,7.59,0,1,0-9.68-11.7Z"/></g></svg>