<svg xmlns="http://www.w3.org/2000/svg" xmlns:xlink="http://www.w3.org/1999/xlink" viewBox="0 0 1400 800"><defs><style>.f2178808-edee-433e-b322-842de759c194{fill:url(#dc4ddf6b-042c-4a38-9188-a8278cfd2db5);}.f3eeb22e-a02a-437f-981c-bb8f9e679a52{fill:url(#7f50dda4-119a-4c40-99d4-4b377053b650);}</style><linearGradient id="dc4ddf6b-042c-4a38-9188-a8278cfd2db5" x1="103.3" x2="103.3" y2="-660" gradientUnits="userSpaceOnUse"><stop offset="0" stop-color="#a94a64"/><stop offset="1" stop-color="#5f76cb"/></linearGradient><linearGradient id="7f50dda4-119a-4c40-99d4-4b377053b650" x1="103.3" y1="800" x2="103.3" gradientUnits="userSpaceOnUse"><stop offset="0" stop-color="#f16a43"/><stop offset="1" stop-color="#a94a64"/></linearGradient></defs><title>schedule-line</title><g id="b449b5e9-97a5-4c2a-b22a-0c653d4f2253" data-name="Layer 2"><path class="f2178808-edee-433e-b322-842de759c194" d="M125.3-543.5a21.577,21.577,0,0,0-14.8252-20.32V-660h-15v96.41A21.5552,21.5552,0,0,0,81.3-543.5a21.5552,21.5552,0,0,0,14.1748,20.09V0h15V-523.18A21.577,21.577,0,0,0,125.3-543.5Zm-22,13.5a13.7721,13.7721,0,0,1-14-13.5,13.7721,13.7721,0,0,1,14-13.5,13.7721,13.7721,0,0,1,14,13.5A13.7721,13.7721,0,0,1,103.3-530Z"/><path class="f3eeb22e-a02a-437f-981c-bb8f9e679a52" d="M125.3,116.5a21.577,21.577,0,0,0-14.8252-20.32V0h-15V96.41a21.3237,21.3237,0,0,0,0,40.1792V800h15V136.82A21.577,21.577,0,0,0,125.3,116.5Zm-22,13.5a13.5089,13.5089,0,1,1,14-13.5A13.7721,13.7721,0,0,1,103.3,130Z"/></g></svg>